NimbusMonL-ReguObli.ufo
<glyph name="exclam" format="1">
  <advance width="600"/>
  <unicode hex="0021"/>
  <outline>
    <contour>
      <point x="458" y="563" type="curve" smooth="yes"/>
      <point x="370" y="237" type="line" smooth="yes"/>
      <point x="365" y="217"/>
      <point x="357" y="209"/>
      <point x="343" y="209" type="curve" smooth="yes"/>
      <point x="335" y="209"/>
      <point x="328" y="216"/>
      <point x="328" y="224" type="curve" smooth="yes"/>
      <point x="328" y="228"/>
      <point x="328" y="231"/>
      <point x="329" y="237" type="curve" smooth="yes"/>
      <point x="380" y="563" type="line" smooth="yes"/>
      <point x="386" y="601"/>
      <point x="402" y="618"/>
      <point x="431" y="618" type="curve" smooth="yes"/>
      <point x="449" y="618"/>
      <point x="463" y="606"/>
      <point x="463" y="589" type="curve" smooth="yes"/>
      <point x="463" y="584"/>
      <point x="461" y="575"/>
    </contour>
    <contour>
      <point x="311" y="85" type="curve" smooth="yes"/>
      <point x="323" y="85" type="line" smooth="yes"/>
      <point x="350" y="85"/>
      <point x="368" y="69"/>
      <point x="368" y="45" type="curve" smooth="yes"/>
      <point x="368" y="13"/>
      <point x="337" y="-15"/>
      <point x="302" y="-15" type="curve" smooth="yes"/>
      <point x="290" y="-15" type="line" smooth="yes"/>
      <point x="264" y="-15"/>
      <point x="246" y="1"/>
      <point x="246" y="24" type="curve" smooth="yes"/>
      <point x="246" y="57"/>
      <point x="277" y="85"/>
    </contour>
  </outline>
</glyph>
<glyph name="quotedbl" format="1">
  <advance width="600"/>
  <unicode hex="0022"/>
  <outline>
    <contour>
      <point x="274" y="604" type="line"/>
      <point x="402" y="604" type="line"/>
      <point x="315" y="351" type="line" smooth="yes"/>
      <point x="306" y="326"/>
      <point x="295" y="315"/>
      <point x="277" y="315" type="curve" smooth="yes"/>
      <point x="263" y="315"/>
      <point x="254" y="325"/>
      <point x="254" y="341" type="curve" smooth="yes"/>
      <point x="254" y="351" type="line"/>
    </contour>
    <contour>
      <point x="454" y="604" type="line"/>
      <point x="582" y="604" type="line"/>
      <point x="495" y="351" type="line" smooth="yes"/>
      <point x="486" y="326"/>
      <point x="474" y="315"/>
      <point x="457" y="315" type="curve" smooth="yes"/>
      <point x="443" y="315"/>
      <point x="434" y="325"/>
      <point x="434" y="341" type="curve" smooth="yes"/>
      <point x="434" y="351" type="line"/>
    </contour>
  </outline>
</glyph>
<glyph name="numbersign" format="1">
  <advance width="600"/>
  <unicode hex="0023"/>
  <outline>
    <contour>
      <point x="466" y="356" type="line"/>
      <point x="430" y="230" type="line"/>
      <point x="510" y="230" type="line" smooth="yes"/>
      <point x="527" y="230"/>
      <point x="534" y="225"/>
      <point x="534" y="214" type="curve" smooth="yes"/>
      <point x="534" y="199"/>
      <point x="521" y="189"/>
      <point x="501" y="189" type="curve" smooth="yes"/>
      <point x="419" y="189" type="line"/>
      <point x="355" y="-36" type="line" smooth="yes"/>
      <point x="350" y="-54"/>
      <point x="342" y="-62"/>
      <point x="329" y="-62" type="curve" smooth="yes"/>
      <point x="320" y="-62"/>
      <point x="313" y="-55"/>
      <point x="313" y="-46" type="curve" smooth="yes"/>
      <point x="313" y="-43"/>
      <point x="314" y="-39"/>
      <point x="315" y="-33" type="curve" smooth="yes"/>
      <point x="378" y="189" type="line"/>
      <point x="287" y="189" type="line"/>
      <point x="224" y="-36" type="line" smooth="yes"/>
      <point x="219" y="-54"/>
      <point x="210" y="-62"/>
      <point x="197" y="-62" type="curve" smooth="yes"/>
      <point x="188" y="-62"/>
      <point x="181" y="-55"/>
      <point x="181" y="-46" type="curve" smooth="yes"/>
      <point x="181" y="-43"/>
      <point x="181" y="-43"/>
      <point x="184" y="-33" type="curve" smooth="yes"/>
      <point x="247" y="189" type="line"/>
      <point x="160" y="189" type="line" smooth="yes"/>
      <point x="144" y="189"/>
      <point x="137" y="194"/>
      <point x="137" y="205" type="curve" smooth="yes"/>
      <point x="137" y="221"/>
      <point x="149" y="230"/>
      <point x="169" y="230" type="curve" smooth="yes"/>
      <point x="258" y="230" type="line"/>
      <point x="294" y="356" type="line"/>
      <point x="216" y="356" type="line" smooth="yes"/>
      <point x="199" y="356"/>
      <point x="192" y="361"/>
      <point x="192" y="372" type="curve" smooth="yes"/>
      <point x="192" y="388"/>
      <point x="204" y="397"/>
      <point x="225" y="397" type="curve" smooth="yes"/>
      <point x="305" y="397" type="line"/>
      <point x="369" y="622" type="line" smooth="yes"/>
      <point x="374" y="639"/>
      <point x="382" y="647"/>
      <point x="395" y="647" type="curve" smooth="yes"/>
      <point x="404" y="647"/>
      <point x="411" y="640"/>
      <point x="411" y="632" type="curve" smooth="yes"/>
      <point x="411" y="629"/>
      <point x="410" y="623"/>
      <point x="409" y="619" type="curve" smooth="yes"/>
      <point x="346" y="397" type="line"/>
      <point x="437" y="397" type="line"/>
      <point x="500" y="622" type="line" smooth="yes"/>
      <point x="505" y="639"/>
      <point x="514" y="647"/>
      <point x="526" y="647" type="curve" smooth="yes"/>
      <point x="536" y="647"/>
      <point x="543" y="640"/>
      <point x="543" y="632" type="curve" smooth="yes"/>
      <point x="543" y="629"/>
      <point x="543" y="629"/>
      <point x="540" y="619" type="curve" smooth="yes"/>
      <point x="477" y="397" type="line"/>
      <point x="566" y="397" type="line" smooth="yes"/>
      <point x="583" y="397"/>
      <point x="589" y="392"/>
      <point x="589" y="381" type="curve" smooth="yes"/>
      <point x="589" y="366"/>
      <point x="577" y="356"/>
      <point x="557" y="356" type="curve" smooth="yes"/>
    </contour>
    <contour>
      <point x="425" y="356" type="line"/>
      <point x="334" y="356" type="line"/>
      <point x="299" y="230" type="line"/>
      <point x="390" y="230" type="line"/>
    </contour>
  </outline>
</glyph>
<glyph name="quotesingle" format="1">
  <advance width="600"/>
  <unicode hex="0027"/>
  <outline>
    <contour>
      <point x="364" y="604" type="line"/>
      <point x="492" y="604" type="line"/>
      <point x="405" y="351" type="line" smooth="yes"/>
      <point x="396" y="326"/>
      <point x="384" y="315"/>
      <point x="367" y="315" type="curve" smooth="yes"/>
      <point x="353" y="315"/>
      <point x="344" y="325"/>
      <point x="344" y="341" type="curve" smooth="yes"/>
      <point x="344" y="351" type="line"/>
    </contour>
  </outline>
</glyph>
<glyph name="hyphen" format="1">
  <advance width="600"/>
  <unicode hex="002D"/>
  <outline>
    <contour>
      <point x="556" y="258" type="curve" smooth="yes"/>
      <point x="154" y="258" type="line" smooth="yes"/>
      <point x="138" y="258"/>
      <point x="131" y="263"/>
      <point x="131" y="274" type="curve" smooth="yes"/>
      <point x="131" y="290"/>
      <point x="143" y="299"/>
      <point x="163" y="299" type="curve" smooth="yes"/>
      <point x="565" y="299" type="line" smooth="yes"/>
      <point x="581" y="299"/>
      <point x="588" y="294"/>
      <point x="588" y="283" type="curve" smooth="yes"/>
      <point x="588" y="268"/>
      <point x="576" y="258"/>
    </contour>
  </outline>
</glyph>
<glyph name="one" format="1">
  <advance width="600"/>
  <unicode hex="0031"/>
  <outline>
    <contour>
      <point x="451" y="612" type="line"/>
      <point x="330" y="41" type="line"/>
      <point x="469" y="41" type="line" smooth="yes"/>
      <point x="486" y="41"/>
      <point x="492" y="37"/>
      <point x="492" y="25" type="curve" smooth="yes"/>
      <point x="492" y="10"/>
      <point x="480" y="0"/>
      <point x="461" y="0" type="curve" smooth="yes"/>
      <point x="141" y="0" type="line" smooth="yes"/>
      <point x="124" y="0"/>
      <point x="117" y="5"/>
      <point x="117" y="16" type="curve" smooth="yes"/>
      <point x="117" y="32"/>
      <point x="129" y="41"/>
      <point x="149" y="41" type="curve" smooth="yes"/>
      <point x="289" y="41" type="line"/>
      <point x="398" y="557" type="line"/>
      <point x="258" y="515" type="line" smooth="yes"/>
      <point x="247" y="512"/>
      <point x="246" y="512"/>
      <point x="243" y="512" type="curve" smooth="yes"/>
      <point x="235" y="512"/>
      <point x="228" y="520"/>
      <point x="228" y="528" type="curve" smooth="yes"/>
      <point x="228" y="541"/>
      <point x="236" y="548"/>
      <point x="254" y="554" type="curve" smooth="yes"/>
    </contour>
  </outline>
</glyph>
<glyph name="four" format="1">
  <advance width="600"/>
  <unicode hex="0034"/>
  <outline>
    <contour>
      <point x="412" y="169" type="line"/>
      <point x="141" y="169" type="line"/>
      <point x="151" y="216" type="line"/>
      <point x="461" y="604" type="line"/>
      <point x="545" y="604" type="line"/>
      <point x="461" y="210" type="line"/>
      <point x="495" y="210" type="line" smooth="yes"/>
      <point x="512" y="210"/>
      <point x="518" y="206"/>
      <point x="518" y="194" type="curve" smooth="yes"/>
      <point x="518" y="178"/>
      <point x="506" y="169"/>
      <point x="487" y="169" type="curve" smooth="yes"/>
      <point x="453" y="169" type="line"/>
      <point x="425" y="41" type="line"/>
      <point x="459" y="41" type="line" smooth="yes"/>
      <point x="476" y="41"/>
      <point x="483" y="36"/>
      <point x="483" y="25" type="curve" smooth="yes"/>
      <point x="483" y="10"/>
      <point x="470" y="0"/>
      <point x="451" y="0" type="curve" smooth="yes"/>
      <point x="300" y="0" type="line" smooth="yes"/>
      <point x="284" y="0"/>
      <point x="277" y="5"/>
      <point x="277" y="16" type="curve" smooth="yes"/>
      <point x="277" y="32"/>
      <point x="289" y="41"/>
      <point x="309" y="41" type="curve" smooth="yes"/>
      <point x="385" y="41" type="line"/>
    </contour>
    <contour>
      <point x="420" y="210" type="line"/>
      <point x="495" y="563" type="line"/>
      <point x="472" y="563" type="line"/>
      <point x="189" y="210" type="line"/>
    </contour>
  </outline>
</glyph>
<glyph name="five" format="1">
  <advance width="600"/>
  <unicode hex="0035"/>
  <outline>
    <contour>
      <point x="310" y="563" type="line"/>
      <point x="268" y="365" type="line"/>
      <point x="324" y="386"/>
      <point x="363" y="395"/>
      <point x="405" y="395" type="curve" smooth="yes"/>
      <point x="491" y="395"/>
      <point x="548" y="338"/>
      <point x="548" y="250" type="curve" smooth="yes"/>
      <point x="548" y="108"/>
      <point x="429" y="-15"/>
      <point x="292" y="-15" type="curve" smooth="yes"/>
      <point x="245" y="-15"/>
      <point x="202" y="-2"/>
      <point x="165" y="23" type="curve" smooth="yes"/>
      <point x="133" y="45"/>
      <point x="113" y="65"/>
      <point x="113" y="78" type="curve" smooth="yes"/>
      <point x="113" y="90"/>
      <point x="125" y="102"/>
      <point x="138" y="102" type="curve" smooth="yes"/>
      <point x="143" y="102"/>
      <point x="147" y="100"/>
      <point x="153" y="93" type="curve" smooth="yes"/>
      <point x="192" y="49"/>
      <point x="242" y="26"/>
      <point x="299" y="26" type="curve" smooth="yes"/>
      <point x="367" y="26"/>
      <point x="427" y="59"/>
      <point x="466" y="118" type="curve" smooth="yes"/>
      <point x="491" y="157"/>
      <point x="506" y="202"/>
      <point x="506" y="242" type="curve" smooth="yes"/>
      <point x="506" y="311"/>
      <point x="462" y="354"/>
      <point x="392" y="354" type="curve" smooth="yes"/>
      <point x="352" y="354"/>
      <point x="305" y="342"/>
      <point x="259" y="321" type="curve" smooth="yes"/>
      <point x="246" y="315"/>
      <point x="241" y="313"/>
      <point x="235" y="313" type="curve" smooth="yes"/>
      <point x="227" y="313"/>
      <point x="221" y="319"/>
      <point x="220" y="328" type="curve" smooth="yes"/>
      <point x="220" y="330"/>
      <point x="220" y="333"/>
      <point x="221" y="335" type="curve" smooth="yes"/>
      <point x="278" y="604" type="line"/>
      <point x="560" y="604" type="line" smooth="yes"/>
      <point x="577" y="604"/>
      <point x="584" y="599"/>
      <point x="584" y="588" type="curve" smooth="yes"/>
      <point x="584" y="572"/>
      <point x="572" y="563"/>
      <point x="552" y="563" type="curve" smooth="yes"/>
    </contour>
  </outline>
</glyph>
<glyph name="six" format="1">
  <advance width="600"/>
  <unicode hex="0036"/>
  <outline>
    <contour>
      <point x="228" y="242" type="curve"/>
      <point x="287" y="324"/>
      <point x="349" y="364"/>
      <point x="420" y="364" type="curve" smooth="yes"/>
      <point x="497" y="364"/>
      <point x="552" y="304"/>
      <point x="552" y="219" type="curve" smooth="yes"/>
      <point x="552" y="99"/>
      <point x="445" y="-15"/>
      <point x="333" y="-15" type="curve" smooth="yes"/>
      <point x="242" y="-15"/>
      <point x="184" y="60"/>
      <point x="184" y="179" type="curve" smooth="yes"/>
      <point x="184" y="308"/>
      <point x="235" y="434"/>
      <point x="319" y="513" type="curve" smooth="yes"/>
      <point x="390" y="580"/>
      <point x="478" y="618"/>
      <point x="560" y="618" type="curve" smooth="yes"/>
      <point x="598" y="618"/>
      <point x="631" y="604"/>
      <point x="631" y="587" type="curve" smooth="yes"/>
      <point x="631" y="575"/>
      <point x="620" y="563"/>
      <point x="608" y="563" type="curve" smooth="yes"/>
      <point x="603" y="563"/>
      <point x="599" y="564"/>
      <point x="591" y="569" type="curve" smooth="yes"/>
      <point x="582" y="574"/>
      <point x="565" y="577"/>
      <point x="546" y="577" type="curve" smooth="yes"/>
      <point x="458" y="577"/>
      <point x="349" y="510"/>
      <point x="290" y="420" type="curve" smooth="yes"/>
      <point x="257" y="369"/>
      <point x="239" y="318"/>
    </contour>
    <contour>
      <point x="222" y="188" type="curve"/>
      <point x="224" y="148"/>
      <point x="225" y="145"/>
      <point x="230" y="123" type="curve" smooth="yes"/>
      <point x="246" y="58"/>
      <point x="283" y="26"/>
      <point x="343" y="26" type="curve" smooth="yes"/>
      <point x="429" y="26"/>
      <point x="510" y="116"/>
      <point x="510" y="212" type="curve" smooth="yes"/>
      <point x="510" y="275"/>
      <point x="468" y="323"/>
      <point x="412" y="323" type="curve" smooth="yes"/>
      <point x="373" y="323"/>
      <point x="329" y="303"/>
      <point x="289" y="266" type="curve" smooth="yes"/>
      <point x="271" y="250"/>
      <point x="256" y="232"/>
    </contour>
  </outline>
</glyph>
<glyph name="seven" format="1">
  <advance width="600"/>
  <unicode hex="0037"/>
  <outline>
    <contour>
      <point x="553" y="545" type="line"/>
      <point x="557" y="563" type="line"/>
      <point x="265" y="563" type="line"/>
      <point x="258" y="528" type="line" smooth="yes"/>
      <point x="254" y="509"/>
      <point x="245" y="500"/>
      <point x="231" y="500" type="curve" smooth="yes"/>
      <point x="223" y="500"/>
      <point x="215" y="507"/>
      <point x="215" y="515" type="curve" smooth="yes"/>
      <point x="215" y="518"/>
      <point x="216" y="523"/>
      <point x="217" y="528" type="curve" smooth="yes"/>
      <point x="233" y="604" type="line"/>
      <point x="606" y="604" type="line"/>
      <point x="592" y="539" type="line"/>
      <point x="319" y="20" type="line" smooth="yes"/>
      <point x="311" y="4"/>
      <point x="305" y="-1"/>
      <point x="294" y="-1" type="curve" smooth="yes"/>
      <point x="285" y="-1"/>
      <point x="278" y="6"/>
      <point x="278" y="14" type="curve" smooth="yes"/>
      <point x="278" y="19"/>
      <point x="280" y="24"/>
      <point x="284" y="32" type="curve" smooth="yes"/>
    </contour>
  </outline>
</glyph>
<glyph name="nine" format="1">
  <advance width="600"/>
  <unicode hex="0039"/>
  <outline>
    <contour>
      <point x="545" y="361" type="curve"/>
      <point x="487" y="279"/>
      <point x="424" y="239"/>
      <point x="353" y="239" type="curve" smooth="yes"/>
      <point x="276" y="239"/>
      <point x="221" y="299"/>
      <point x="221" y="384" type="curve" smooth="yes"/>
      <point x="221" y="504"/>
      <point x="328" y="618"/>
      <point x="440" y="618" type="curve" smooth="yes"/>
      <point x="531" y="618"/>
      <point x="589" y="543"/>
      <point x="589" y="424" type="curve" smooth="yes"/>
      <point x="589" y="295"/>
      <point x="538" y="169"/>
      <point x="454" y="90" type="curve" smooth="yes"/>
      <point x="383" y="23"/>
      <point x="295" y="-15"/>
      <point x="213" y="-15" type="curve" smooth="yes"/>
      <point x="175" y="-15"/>
      <point x="142" y="-1"/>
      <point x="142" y="16" type="curve" smooth="yes"/>
      <point x="142" y="28"/>
      <point x="153" y="40"/>
      <point x="165" y="40" type="curve" smooth="yes"/>
      <point x="170" y="40"/>
      <point x="174" y="39"/>
      <point x="182" y="34" type="curve" smooth="yes"/>
      <point x="191" y="29"/>
      <point x="208" y="26"/>
      <point x="227" y="26" type="curve" smooth="yes"/>
      <point x="315" y="26"/>
      <point x="424" y="93"/>
      <point x="483" y="183" type="curve" smooth="yes"/>
      <point x="510" y="225"/>
      <point x="532" y="282"/>
      <point x="541" y="334" type="curve" smooth="yes"/>
      <point x="542" y="340"/>
      <point x="542" y="340"/>
    </contour>
    <contour>
      <point x="551" y="415" type="curve"/>
      <point x="549" y="454"/>
      <point x="548" y="459"/>
      <point x="543" y="480" type="curve" smooth="yes"/>
      <point x="527" y="545"/>
      <point x="490" y="577"/>
      <point x="430" y="577" type="curve" smooth="yes"/>
      <point x="344" y="577"/>
      <point x="263" y="487"/>
      <point x="263" y="391" type="curve" smooth="yes"/>
      <point x="263" y="328"/>
      <point x="305" y="280"/>
      <point x="361" y="280" type="curve" smooth="yes"/>
      <point x="400" y="280"/>
      <point x="444" y="300"/>
      <point x="484" y="337" type="curve" smooth="yes"/>
      <point x="502" y="353"/>
      <point x="517" y="371"/>
    </contour>
  </outline>
</glyph>
<glyph name="colon" format="1">
  <advance width="600"/>
  <unicode hex="003A"/>
  <outline>
    <contour>
      <point x="319" y="116" type="curve" smooth="yes"/>
      <point x="330" y="116" type="line" smooth="yes"/>
      <point x="363" y="116"/>
      <point x="386" y="95"/>
      <point x="386" y="65" type="curve" smooth="yes"/>
      <point x="386" y="22"/>
      <point x="346" y="-15"/>
      <point x="302" y="-15" type="curve" smooth="yes"/>
      <point x="291" y="-15" type="line" smooth="yes"/>
      <point x="258" y="-15"/>
      <point x="235" y="6"/>
      <point x="235" y="37" type="curve" smooth="yes"/>
      <point x="235" y="79"/>
      <point x="275" y="116"/>
    </contour>
    <contour>
      <point x="383" y="417" type="curve" smooth="yes"/>
      <point x="394" y="417" type="line" smooth="yes"/>
      <point x="427" y="417"/>
      <point x="450" y="396"/>
      <point x="450" y="365" type="curve" smooth="yes"/>
      <point x="450" y="323"/>
      <point x="410" y="285"/>
      <point x="366" y="285" type="curve" smooth="yes"/>
      <point x="355" y="285" type="line" smooth="yes"/>
      <point x="322" y="285"/>
      <point x="299" y="306"/>
      <point x="299" y="337" type="curve" smooth="yes"/>
      <point x="299" y="379"/>
      <point x="339" y="417"/>
    </contour>
  </outline>
</glyph>
<glyph name="semicolon" format="1">
  <advance width="600"/>
  <unicode hex="003B"/>
  <outline>
    <contour>
      <point x="242" y="145" type="line"/>
      <point x="375" y="145" type="line"/>
      <point x="174" y="-120" type="line" smooth="yes"/>
      <point x="159" y="-139"/>
      <point x="151" y="-145"/>
      <point x="138" y="-145" type="curve" smooth="yes"/>
      <point x="124" y="-145"/>
      <point x="114" y="-135"/>
      <point x="114" y="-122" type="curve" smooth="yes"/>
      <point x="114" y="-117"/>
      <point x="116" y="-111"/>
      <point x="119" y="-105" type="curve" smooth="yes"/>
    </contour>
    <contour>
      <point x="359" y="417" type="curve" smooth="yes"/>
      <point x="370" y="417" type="line" smooth="yes"/>
      <point x="403" y="417"/>
      <point x="426" y="396"/>
      <point x="426" y="365" type="curve" smooth="yes"/>
      <point x="426" y="323"/>
      <point x="386" y="285"/>
      <point x="342" y="285" type="curve" smooth="yes"/>
      <point x="331" y="285" type="line" smooth="yes"/>
      <point x="298" y="285"/>
      <point x="275" y="306"/>
      <point x="275" y="337" type="curve" smooth="yes"/>
      <point x="275" y="379"/>
      <point x="315" y="417"/>
    </contour>
  </outline>
</glyph>
<glyph name="equal" format="1">
  <advance width="600"/>
  <unicode hex="003D"/>
  <outline>
    <contour>
      <point x="593" y="334" type="curve" smooth="yes"/>
      <point x="149" y="334" type="line" smooth="yes"/>
      <point x="133" y="334"/>
      <point x="126" y="339"/>
      <point x="126" y="350" type="curve" smooth="yes"/>
      <point x="126" y="366"/>
      <point x="138" y="375"/>
      <point x="158" y="375" type="curve" smooth="yes"/>
      <point x="602" y="375" type="line" smooth="yes"/>
      <point x="618" y="375"/>
      <point x="625" y="370"/>
      <point x="625" y="359" type="curve" smooth="yes"/>
      <point x="625" y="344"/>
      <point x="613" y="334"/>
    </contour>
    <contour>
      <point x="562" y="190" type="curve" smooth="yes"/>
      <point x="118" y="190" type="line" smooth="yes"/>
      <point x="102" y="190"/>
      <point x="95" y="195"/>
      <point x="95" y="206" type="curve" smooth="yes"/>
      <point x="95" y="222"/>
      <point x="107" y="231"/>
      <point x="127" y="231" type="curve" smooth="yes"/>
      <point x="571" y="231" type="line" smooth="yes"/>
      <point x="587" y="231"/>
      <point x="594" y="226"/>
      <point x="594" y="215" type="curve" smooth="yes"/>
      <point x="594" y="200"/>
      <point x="582" y="190"/>
    </contour>
  </outline>
</glyph>
<glyph name="greater" format="1">
  <advance width="600"/>
  <unicode hex="003E"/>
  <outline>
    <contour>
      <point x="588" y="281" type="line"/>
      <point x="121" y="49" type="line" smooth="yes"/>
      <point x="115" y="46"/>
      <point x="110" y="44"/>
      <point x="108" y="44" type="curve" smooth="yes"/>
      <point x="101" y="44"/>
      <point x="96" y="48"/>
      <point x="94" y="54" type="curve" smooth="yes"/>
      <point x="93" y="57" type="line" smooth="yes"/>
      <point x="92" y="59"/>
      <point x="92" y="61"/>
      <point x="92" y="63" type="curve" smooth="yes"/>
      <point x="92" y="71"/>
      <point x="98" y="78"/>
      <point x="109" y="84" type="curve" smooth="yes"/>
      <point x="506" y="281" type="line"/>
      <point x="193" y="478" type="line" smooth="yes"/>
      <point x="186" y="483"/>
      <point x="184" y="486"/>
      <point x="184" y="492" type="curve" smooth="yes"/>
      <point x="184" y="496"/>
      <point x="186" y="502"/>
      <point x="189" y="505" type="curve" smooth="yes"/>
      <point x="191" y="508" type="line" smooth="yes"/>
      <point x="196" y="514"/>
      <point x="203" y="518"/>
      <point x="208" y="518" type="curve" smooth="yes"/>
      <point x="211" y="518"/>
      <point x="216" y="516"/>
      <point x="221" y="513" type="curve" smooth="yes"/>
    </contour>
  </outline>
</glyph>
<glyph name="at" format="1">
  <advance width="600"/>
  <unicode hex="0040"/>
  <outline>
    <contour>
      <point x="449" y="145" type="line"/>
      <point x="450" y="150" type="line"/>
      <point x="430" y="148"/>
      <point x="419" y="147"/>
      <point x="408" y="147" type="curve" smooth="yes"/>
      <point x="343" y="147"/>
      <point x="297" y="187"/>
      <point x="297" y="245" type="curve" smooth="yes"/>
      <point x="297" y="316"/>
      <point x="356" y="384"/>
      <point x="438" y="408" type="curve" smooth="yes"/>
      <point x="461" y="414"/>
      <point x="477" y="416"/>
      <point x="506" y="416" type="curve"/>
      <point x="516" y="463" type="line" smooth="yes"/>
      <point x="518" y="472"/>
      <point x="519" y="480"/>
      <point x="519" y="490" type="curve" smooth="yes"/>
      <point x="519" y="547"/>
      <point x="483" y="583"/>
      <point x="425" y="583" type="curve" smooth="yes"/>
      <point x="334" y="583"/>
      <point x="250" y="490"/>
      <point x="222" y="358" type="curve" smooth="yes"/>
      <point x="188" y="198" type="line" smooth="yes"/>
      <point x="184" y="176"/>
      <point x="181" y="152"/>
      <point x="181" y="131" type="curve" smooth="yes"/>
      <point x="181" y="82"/>
      <point x="195" y="35"/>
      <point x="218" y="9" type="curve" smooth="yes"/>
      <point x="236" y="-11"/>
      <point x="264" y="-21"/>
      <point x="301" y="-21" type="curve" smooth="yes"/>
      <point x="344" y="-21"/>
      <point x="388" y="-9"/>
      <point x="412" y="9" type="curve" smooth="yes"/>
      <point x="425" y="19"/>
      <point x="427" y="20"/>
      <point x="434" y="20" type="curve" smooth="yes"/>
      <point x="443" y="20"/>
      <point x="450" y="13"/>
      <point x="450" y="5" type="curve" smooth="yes"/>
      <point x="450" y="-27"/>
      <point x="364" y="-62"/>
      <point x="286" y="-62" type="curve" smooth="yes"/>
      <point x="238" y="-62"/>
      <point x="202" y="-46"/>
      <point x="178" y="-13" type="curve" smooth="yes"/>
      <point x="154" y="20"/>
      <point x="139" y="70"/>
      <point x="139" y="121" type="curve" smooth="yes"/>
      <point x="139" y="146"/>
      <point x="142" y="172"/>
      <point x="147" y="198" type="curve" smooth="yes"/>
      <point x="182" y="361" type="line" smooth="yes"/>
      <point x="214" y="513"/>
      <point x="320" y="624"/>
      <point x="433" y="624" type="curve" smooth="yes"/>
      <point x="510" y="624"/>
      <point x="561" y="574"/>
      <point x="561" y="499" type="curve" smooth="yes"/>
      <point x="561" y="487"/>
      <point x="560" y="475"/>
      <point x="557" y="463" type="curve" smooth="yes"/>
      <point x="498" y="186" type="line"/>
      <point x="509" y="184"/>
      <point x="514" y="180"/>
      <point x="514" y="170" type="curve" smooth="yes"/>
      <point x="514" y="154"/>
      <point x="502" y="145"/>
      <point x="482" y="145" type="curve" smooth="yes"/>
    </contour>
    <contour>
      <point x="459" y="192" type="curve"/>
      <point x="498" y="376" type="line"/>
      <point x="410" y="376"/>
      <point x="339" y="322"/>
      <point x="339" y="255" type="curve" smooth="yes"/>
      <point x="339" y="214"/>
      <point x="371" y="188"/>
      <point x="420" y="188" type="curve" smooth="yes"/>
      <point x="432" y="188"/>
      <point x="446" y="189"/>
    </contour>
  </outline>
</glyph>
<glyph name="K" format="1">
  <advance width="600"/>
  <unicode hex="004B"/>
  <outline>
    <contour>
      <point x="212" y="221" type="line"/>
      <point x="174" y="41" type="line"/>
      <point x="248" y="41" type="line" smooth="yes"/>
      <point x="265" y="41"/>
      <point x="272" y="36"/>
      <point x="272" y="25" type="curve" smooth="yes"/>
      <point x="272" y="10"/>
      <point x="259" y="0"/>
      <point x="240" y="0" type="curve" smooth="yes"/>
      <point x="70" y="0" type="line" smooth="yes"/>
      <point x="54" y="0"/>
      <point x="47" y="5"/>
      <point x="47" y="17" type="curve" smooth="yes"/>
      <point x="47" y="32"/>
      <point x="59" y="41"/>
      <point x="79" y="41" type="curve" smooth="yes"/>
      <point x="133" y="41" type="line"/>
      <point x="235" y="522" type="line"/>
      <point x="181" y="522" type="line" smooth="yes"/>
      <point x="165" y="522"/>
      <point x="158" y="527"/>
      <point x="158" y="539" type="curve" smooth="yes"/>
      <point x="158" y="554"/>
      <point x="170" y="563"/>
      <point x="190" y="563" type="curve" smooth="yes"/>
      <point x="359" y="563" type="line" smooth="yes"/>
      <point x="377" y="563"/>
      <point x="383" y="559"/>
      <point x="383" y="547" type="curve" smooth="yes"/>
      <point x="383" y="532"/>
      <point x="371" y="522"/>
      <point x="351" y="522" type="curve" smooth="yes"/>
      <point x="276" y="522" type="line"/>
      <point x="223" y="273" type="line"/>
      <point x="556" y="522" type="line"/>
      <point x="511" y="522" type="line" smooth="yes"/>
      <point x="494" y="522"/>
      <point x="487" y="527"/>
      <point x="487" y="538" type="curve" smooth="yes"/>
      <point x="487" y="554"/>
      <point x="499" y="563"/>
      <point x="519" y="563" type="curve" smooth="yes"/>
      <point x="638" y="563" type="line" smooth="yes"/>
      <point x="656" y="563"/>
      <point x="662" y="559"/>
      <point x="662" y="547" type="curve" smooth="yes"/>
      <point x="662" y="532"/>
      <point x="650" y="522"/>
      <point x="630" y="522" type="curve" smooth="yes"/>
      <point x="613" y="522" type="line"/>
      <point x="349" y="324" type="line"/>
      <point x="437" y="284"/>
      <point x="464" y="233"/>
      <point x="498" y="41" type="curve"/>
      <point x="554" y="41" type="line" smooth="yes"/>
      <point x="570" y="41"/>
      <point x="577" y="36"/>
      <point x="577" y="25" type="curve" smooth="yes"/>
      <point x="577" y="10"/>
      <point x="564" y="0"/>
      <point x="545" y="0" type="curve" smooth="yes"/>
      <point x="459" y="0" type="line"/>
      <point x="428" y="204"/>
      <point x="397" y="263"/>
      <point x="309" y="294" type="curve"/>
    </contour>
  </outline>
</glyph>
<glyph name="Y" format="1">
  <advance width="600"/>
  <unicode hex="0059"/>
  <outline>
    <contour>
      <point x="376" y="254" type="line"/>
      <point x="331" y="41" type="line"/>
      <point x="436" y="41" type="line" smooth="yes"/>
      <point x="453" y="41"/>
      <point x="459" y="36"/>
      <point x="459" y="25" type="curve" smooth="yes"/>
      <point x="459" y="10"/>
      <point x="447" y="0"/>
      <point x="427" y="0" type="curve" smooth="yes"/>
      <point x="176" y="0" type="line" smooth="yes"/>
      <point x="160" y="0"/>
      <point x="153" y="5"/>
      <point x="153" y="16" type="curve" smooth="yes"/>
      <point x="153" y="32"/>
      <point x="165" y="41"/>
      <point x="185" y="41" type="curve" smooth="yes"/>
      <point x="290" y="41" type="line"/>
      <point x="335" y="254" type="line"/>
      <point x="213" y="522" type="line"/>
      <point x="189" y="522" type="line" smooth="yes"/>
      <point x="173" y="522"/>
      <point x="166" y="527"/>
      <point x="166" y="538" type="curve" smooth="yes"/>
      <point x="166" y="554"/>
      <point x="178" y="563"/>
      <point x="198" y="563" type="curve" smooth="yes"/>
      <point x="309" y="563" type="line" smooth="yes"/>
      <point x="326" y="563"/>
      <point x="332" y="559"/>
      <point x="332" y="547" type="curve" smooth="yes"/>
      <point x="332" y="532"/>
      <point x="320" y="522"/>
      <point x="300" y="522" type="curve" smooth="yes"/>
      <point x="262" y="522" type="line"/>
      <point x="366" y="295" type="line"/>
      <point x="564" y="522" type="line"/>
      <point x="523" y="522" type="line" smooth="yes"/>
      <point x="506" y="522"/>
      <point x="499" y="527"/>
      <point x="499" y="538" type="curve" smooth="yes"/>
      <point x="499" y="554"/>
      <point x="511" y="563"/>
      <point x="532" y="563" type="curve" smooth="yes"/>
      <point x="642" y="563" type="line" smooth="yes"/>
      <point x="658" y="563"/>
      <point x="665" y="558"/>
      <point x="665" y="546" type="curve" smooth="yes"/>
      <point x="665" y="532"/>
      <point x="652" y="522"/>
      <point x="633" y="522" type="curve" smooth="yes"/>
      <point x="610" y="522" type="line"/>
    </contour>
  </outline>
</glyph>
<glyph name="bracketleft" format="1">
  <advance width="600"/>
  <unicode hex="005B"/>
  <outline>
    <contour>
      <point x="441" y="563" type="line"/>
      <point x="304" y="-83" type="line"/>
      <point x="401" y="-83" type="line" smooth="yes"/>
      <point x="418" y="-83"/>
      <point x="424" y="-87"/>
      <point x="424" y="-99" type="curve" smooth="yes"/>
      <point x="424" y="-114"/>
      <point x="412" y="-124"/>
      <point x="392" y="-124" type="curve" smooth="yes"/>
      <point x="254" y="-124" type="line"/>
      <point x="409" y="604" type="line"/>
      <point x="547" y="604" type="line" smooth="yes"/>
      <point x="564" y="604"/>
      <point x="570" y="600"/>
      <point x="570" y="588" type="curve" smooth="yes"/>
      <point x="570" y="572"/>
      <point x="558" y="563"/>
      <point x="538" y="563" type="curve" smooth="yes"/>
    </contour>
  </outline>
</glyph>
<glyph name="bracketright" format="1">
  <advance width="600"/>
  <unicode hex="005D"/>
  <outline>
    <contour>
      <point x="261" y="-83" type="line"/>
      <point x="398" y="563" type="line"/>
      <point x="301" y="563" type="line" smooth="yes"/>
      <point x="284" y="563"/>
      <point x="278" y="567"/>
      <point x="278" y="579" type="curve" smooth="yes"/>
      <point x="278" y="594"/>
      <point x="290" y="604"/>
      <point x="310" y="604" type="curve" smooth="yes"/>
      <point x="448" y="604" type="line"/>
      <point x="293" y="-124" type="line"/>
      <point x="155" y="-124" type="line" smooth="yes"/>
      <point x="138" y="-124"/>
      <point x="132" y="-120"/>
      <point x="132" y="-108" type="curve" smooth="yes"/>
      <point x="132" y="-92"/>
      <point x="144" y="-83"/>
      <point x="164" y="-83" type="curve" smooth="yes"/>
    </contour>
  </outline>
</glyph>
<glyph name="underscore" format="1">
  <advance width="600"/>
  <unicode hex="005F"/>
  <outline>
    <contour>
      <point x="564" y="-75" type="line"/>
      <point x="564" y="-125" type="line"/>
      <point x="-61" y="-125" type="line"/>
      <point x="-61" y="-75" type="line"/>
    </contour>
  </outline>
</glyph>
<glyph name="b" format="1">
  <advance width="600"/>
  <unicode hex="0062"/>
  <outline>
    <contour>
      <point x="272" y="604" type="line"/>
      <point x="214" y="328" type="line"/>
      <point x="279" y="399"/>
      <point x="342" y="431"/>
      <point x="416" y="431" type="curve" smooth="yes"/>
      <point x="519" y="431"/>
      <point x="591" y="360"/>
      <point x="591" y="258" type="curve" smooth="yes"/>
      <point x="591" y="117"/>
      <point x="459" y="-16"/>
      <point x="319" y="-16" type="curve" smooth="yes"/>
      <point x="247" y="-16"/>
      <point x="195" y="19"/>
      <point x="163" y="88" type="curve"/>
      <point x="144" y="0" type="line"/>
      <point x="49" y="0" type="line" smooth="yes"/>
      <point x="33" y="0"/>
      <point x="26" y="5"/>
      <point x="26" y="17" type="curve" smooth="yes"/>
      <point x="26" y="32"/>
      <point x="38" y="41"/>
      <point x="58" y="41" type="curve" smooth="yes"/>
      <point x="112" y="41" type="line"/>
      <point x="223" y="563" type="line"/>
      <point x="169" y="563" type="line" smooth="yes"/>
      <point x="152" y="563"/>
      <point x="146" y="567"/>
      <point x="146" y="580" type="curve" smooth="yes"/>
      <point x="146" y="595"/>
      <point x="158" y="604"/>
      <point x="177" y="604" type="curve" smooth="yes"/>
    </contour>
    <contour>
      <point x="404" y="390" type="curve" smooth="yes"/>
      <point x="290" y="390"/>
      <point x="184" y="282"/>
      <point x="184" y="167" type="curve" smooth="yes"/>
      <point x="184" y="86"/>
      <point x="245" y="25"/>
      <point x="326" y="25" type="curve" smooth="yes"/>
      <point x="441" y="25"/>
      <point x="549" y="132"/>
      <point x="549" y="247" type="curve" smooth="yes"/>
      <point x="549" y="330"/>
      <point x="488" y="390"/>
    </contour>
  </outline>
</glyph>
<glyph name="h" format="1">
  <advance width="600"/>
  <unicode hex="0068"/>
  <outline>
    <contour>
      <point x="293" y="604" type="line"/>
      <point x="239" y="347" type="line"/>
      <point x="303" y="408"/>
      <point x="350" y="431"/>
      <point x="411" y="431" type="curve" smooth="yes"/>
      <point x="491" y="431"/>
      <point x="543" y="387"/>
      <point x="543" y="319" type="curve" smooth="yes"/>
      <point x="543" y="310"/>
      <point x="542" y="301"/>
      <point x="540" y="291" type="curve" smooth="yes"/>
      <point x="487" y="41" type="line"/>
      <point x="532" y="41" type="line" smooth="yes"/>
      <point x="549" y="41"/>
      <point x="556" y="36"/>
      <point x="556" y="25" type="curve" smooth="yes"/>
      <point x="556" y="10"/>
      <point x="543" y="0"/>
      <point x="524" y="0" type="curve" smooth="yes"/>
      <point x="392" y="0" type="line" smooth="yes"/>
      <point x="376" y="0"/>
      <point x="369" y="5"/>
      <point x="369" y="17" type="curve" smooth="yes"/>
      <point x="369" y="32"/>
      <point x="381" y="41"/>
      <point x="400" y="41" type="curve" smooth="yes"/>
      <point x="446" y="41" type="line"/>
      <point x="498" y="288" type="line" smooth="yes"/>
      <point x="500" y="295"/>
      <point x="501" y="304"/>
      <point x="501" y="309" type="curve" smooth="yes"/>
      <point x="501" y="330"/>
      <point x="493" y="349"/>
      <point x="477" y="364" type="curve" smooth="yes"/>
      <point x="457" y="384"/>
      <point x="438" y="390"/>
      <point x="396" y="390" type="curve" smooth="yes"/>
      <point x="341" y="390"/>
      <point x="309" y="373"/>
      <point x="241" y="309" type="curve"/>
      <point x="228" y="296" type="line"/>
      <point x="174" y="41" type="line"/>
      <point x="219" y="41" type="line" smooth="yes"/>
      <point x="236" y="41"/>
      <point x="243" y="36"/>
      <point x="243" y="25" type="curve" smooth="yes"/>
      <point x="243" y="10"/>
      <point x="230" y="0"/>
      <point x="210" y="0" type="curve" smooth="yes"/>
      <point x="78" y="0" type="line" smooth="yes"/>
      <point x="62" y="0"/>
      <point x="55" y="5"/>
      <point x="55" y="17" type="curve" smooth="yes"/>
      <point x="55" y="32"/>
      <point x="67" y="41"/>
      <point x="87" y="41" type="curve" smooth="yes"/>
      <point x="133" y="41" type="line"/>
      <point x="244" y="563" type="line"/>
      <point x="189" y="563" type="line" smooth="yes"/>
      <point x="173" y="563"/>
      <point x="167" y="567"/>
      <point x="167" y="580" type="curve" smooth="yes"/>
      <point x="167" y="595"/>
      <point x="179" y="604"/>
      <point x="198" y="604" type="curve" smooth="yes"/>
    </contour>
  </outline>
</glyph>
<glyph name="j" format="1">
  <advance width="600"/>
  <unicode hex="006A"/>
  <outline>
    <contour>
      <point x="497" y="376" type="line"/>
      <point x="257" y="376" type="line" smooth="yes"/>
      <point x="240" y="376"/>
      <point x="233" y="381"/>
      <point x="233" y="392" type="curve" smooth="yes"/>
      <point x="233" y="408"/>
      <point x="245" y="417"/>
      <point x="266" y="417" type="curve" smooth="yes"/>
      <point x="547" y="417" type="line"/>
      <point x="452" y="-28" type="line" smooth="yes"/>
      <point x="433" y="-121"/>
      <point x="355" y="-186"/>
      <point x="264" y="-186" type="curve" smooth="yes"/>
      <point x="135" y="-186" type="line" smooth="yes"/>
      <point x="119" y="-186"/>
      <point x="112" y="-181"/>
      <point x="112" y="-170" type="curve" smooth="yes"/>
      <point x="112" y="-154"/>
      <point x="124" y="-145"/>
      <point x="144" y="-145" type="curve" smooth="yes"/>
      <point x="272" y="-145" type="line" smooth="yes"/>
      <point x="338" y="-145"/>
      <point x="397" y="-96"/>
      <point x="411" y="-28" type="curve" smooth="yes"/>
    </contour>
    <contour>
      <point x="547" y="624" type="line"/>
      <point x="525" y="520" type="line"/>
      <point x="466" y="520" type="line"/>
      <point x="488" y="624" type="line"/>
    </contour>
  </outline>
</glyph>
<glyph name="m" format="1">
  <advance width="600"/>
  <unicode hex="006D"/>
  <outline>
    <contour>
      <point x="201" y="417" type="line"/>
      <point x="190" y="365" type="line"/>
      <point x="233" y="412"/>
      <point x="267" y="431"/>
      <point x="309" y="431" type="curve" smooth="yes"/>
      <point x="352" y="431"/>
      <point x="379" y="408"/>
      <point x="391" y="360" type="curve"/>
      <point x="440" y="410"/>
      <point x="477" y="431"/>
      <point x="519" y="431" type="curve" smooth="yes"/>
      <point x="568" y="431"/>
      <point x="603" y="395"/>
      <point x="603" y="345" type="curve" smooth="yes"/>
      <point x="603" y="338"/>
      <point x="602" y="331"/>
      <point x="600" y="323" type="curve" smooth="yes"/>
      <point x="541" y="41" type="line"/>
      <point x="575" y="41" type="line" smooth="yes"/>
      <point x="592" y="41"/>
      <point x="598" y="37"/>
      <point x="598" y="25" type="curve" smooth="yes"/>
      <point x="598" y="10"/>
      <point x="585" y="0"/>
      <point x="566" y="0" type="curve" smooth="yes"/>
      <point x="492" y="0" type="line"/>
      <point x="560" y="319" type="line" smooth="yes"/>
      <point x="561" y="324"/>
      <point x="561" y="327"/>
      <point x="561" y="333" type="curve" smooth="yes"/>
      <point x="561" y="365"/>
      <point x="539" y="390"/>
      <point x="509" y="390" type="curve" smooth="yes"/>
      <point x="473" y="390"/>
      <point x="437" y="366"/>
      <point x="387" y="308" type="curve"/>
      <point x="331" y="41" type="line"/>
      <point x="365" y="41" type="line" smooth="yes"/>
      <point x="382" y="41"/>
      <point x="388" y="37"/>
      <point x="388" y="25" type="curve" smooth="yes"/>
      <point x="388" y="10"/>
      <point x="376" y="0"/>
      <point x="356" y="0" type="curve" smooth="yes"/>
      <point x="282" y="0" type="line"/>
      <point x="349" y="316" type="line" smooth="yes"/>
      <point x="350" y="322"/>
      <point x="351" y="327"/>
      <point x="351" y="332" type="curve" smooth="yes"/>
      <point x="351" y="364"/>
      <point x="328" y="390"/>
      <point x="300" y="390" type="curve" smooth="yes"/>
      <point x="265" y="390"/>
      <point x="228" y="366"/>
      <point x="178" y="308" type="curve"/>
      <point x="121" y="41" type="line"/>
      <point x="155" y="41" type="line" smooth="yes"/>
      <point x="171" y="41"/>
      <point x="178" y="36"/>
      <point x="178" y="25" type="curve" smooth="yes"/>
      <point x="178" y="10"/>
      <point x="165" y="0"/>
      <point x="146" y="0" type="curve" smooth="yes"/>
      <point x="37" y="0" type="line" smooth="yes"/>
      <point x="22" y="0"/>
      <point x="15" y="5"/>
      <point x="15" y="16" type="curve" smooth="yes"/>
      <point x="15" y="32"/>
      <point x="27" y="41"/>
      <point x="47" y="41" type="curve" smooth="yes"/>
      <point x="81" y="41" type="line"/>
      <point x="152" y="376" type="line"/>
      <point x="118" y="376" type="line" smooth="yes"/>
      <point x="102" y="376"/>
      <point x="95" y="381"/>
      <point x="95" y="392" type="curve" smooth="yes"/>
      <point x="95" y="408"/>
      <point x="107" y="417"/>
      <point x="127" y="417" type="curve" smooth="yes"/>
    </contour>
  </outline>
</glyph>
<glyph name="q" format="1">
  <advance width="600"/>
  <unicode hex="0071"/>
  <outline>
    <contour>
      <point x="532" y="335" type="curve"/>
      <point x="550" y="417" type="line"/>
      <point x="645" y="417" type="line" smooth="yes"/>
      <point x="662" y="417"/>
      <point x="668" y="413"/>
      <point x="668" y="401" type="curve" smooth="yes"/>
      <point x="668" y="386"/>
      <point x="656" y="376"/>
      <point x="636" y="376" type="curve" smooth="yes"/>
      <point x="582" y="376" type="line"/>
      <point x="471" y="-145" type="line"/>
      <point x="525" y="-145" type="line" smooth="yes"/>
      <point x="542" y="-145"/>
      <point x="549" y="-149"/>
      <point x="549" y="-161" type="curve" smooth="yes"/>
      <point x="549" y="-176"/>
      <point x="536" y="-186"/>
      <point x="517" y="-186" type="curve" smooth="yes"/>
      <point x="324" y="-186" type="line" smooth="yes"/>
      <point x="307" y="-186"/>
      <point x="300" y="-181"/>
      <point x="300" y="-170" type="curve" smooth="yes"/>
      <point x="300" y="-154"/>
      <point x="312" y="-145"/>
      <point x="332" y="-145" type="curve" smooth="yes"/>
      <point x="430" y="-145" type="line"/>
      <point x="484" y="106" type="line"/>
      <point x="423" y="40"/>
      <point x="361" y="10"/>
      <point x="284" y="10" type="curve" smooth="yes"/>
      <point x="177" y="10"/>
      <point x="105" y="78"/>
      <point x="105" y="178" type="curve" smooth="yes"/>
      <point x="105" y="311"/>
      <point x="233" y="431"/>
      <point x="374" y="431" type="curve" smooth="yes"/>
      <point x="450" y="431"/>
      <point x="500" y="401"/>
    </contour>
    <contour>
      <point x="365" y="390" type="curve" smooth="yes"/>
      <point x="251" y="390"/>
      <point x="147" y="293"/>
      <point x="147" y="186" type="curve" smooth="yes"/>
      <point x="147" y="107"/>
      <point x="207" y="51"/>
      <point x="293" y="51" type="curve" smooth="yes"/>
      <point x="407" y="51"/>
      <point x="512" y="148"/>
      <point x="512" y="254" type="curve" smooth="yes"/>
      <point x="512" y="335"/>
      <point x="452" y="390"/>
    </contour>
  </outline>
</glyph>
<glyph name="r" format="1">
  <advance width="600"/>
  <unicode hex="0072"/>
  <outline>
    <contour>
      <point x="337" y="417" type="line"/>
      <point x="315" y="315" type="line"/>
      <point x="427" y="400"/>
      <point x="480" y="427"/>
      <point x="532" y="427" type="curve" smooth="yes"/>
      <point x="558" y="427"/>
      <point x="575" y="420"/>
      <point x="595" y="403" type="curve" smooth="yes"/>
      <point x="610" y="389"/>
      <point x="619" y="377"/>
      <point x="619" y="369" type="curve" smooth="yes"/>
      <point x="619" y="357"/>
      <point x="606" y="344"/>
      <point x="592" y="344" type="curve" smooth="yes"/>
      <point x="586" y="344"/>
      <point x="584" y="345"/>
      <point x="578" y="352" type="curve" smooth="yes"/>
      <point x="559" y="376"/>
      <point x="542" y="386"/>
      <point x="520" y="386" type="curve" smooth="yes"/>
      <point x="475" y="386"/>
      <point x="435" y="363"/>
      <point x="304" y="262" type="curve"/>
      <point x="257" y="41" type="line"/>
      <point x="436" y="41" type="line" smooth="yes"/>
      <point x="451" y="41"/>
      <point x="459" y="36"/>
      <point x="459" y="24" type="curve" smooth="yes"/>
      <point x="459" y="10"/>
      <point x="446" y="0"/>
      <point x="427" y="0" type="curve" smooth="yes"/>
      <point x="111" y="0" type="line" smooth="yes"/>
      <point x="96" y="0"/>
      <point x="88" y="5"/>
      <point x="88" y="17" type="curve" smooth="yes"/>
      <point x="88" y="31"/>
      <point x="101" y="41"/>
      <point x="120" y="41" type="curve" smooth="yes"/>
      <point x="216" y="41" type="line"/>
      <point x="287" y="376" type="line"/>
      <point x="213" y="376" type="line" smooth="yes"/>
      <point x="197" y="376"/>
      <point x="190" y="381"/>
      <point x="190" y="393" type="curve" smooth="yes"/>
      <point x="190" y="407"/>
      <point x="203" y="417"/>
      <point x="221" y="417" type="curve" smooth="yes"/>
    </contour>
  </outline>
</glyph>
<glyph name="u" format="1">
  <advance width="600"/>
  <unicode hex="0075"/>
  <outline>
    <contour>
      <point x="439" y="0" type="line"/>
      <point x="453" y="66" type="line"/>
      <point x="387" y="11"/>
      <point x="320" y="-16"/>
      <point x="253" y="-16" type="curve" smooth="yes"/>
      <point x="187" y="-16"/>
      <point x="145" y="22"/>
      <point x="145" y="82" type="curve" smooth="yes"/>
      <point x="145" y="93"/>
      <point x="146" y="104"/>
      <point x="149" y="115" type="curve" smooth="yes"/>
      <point x="204" y="376" type="line"/>
      <point x="150" y="376" type="line" smooth="yes"/>
      <point x="134" y="376"/>
      <point x="127" y="381"/>
      <point x="127" y="392" type="curve" smooth="yes"/>
      <point x="127" y="408"/>
      <point x="139" y="417"/>
      <point x="159" y="417" type="curve" smooth="yes"/>
      <point x="254" y="417" type="line"/>
      <point x="190" y="115" type="line" smooth="yes"/>
      <point x="188" y="109"/>
      <point x="188" y="105"/>
      <point x="188" y="97" type="curve" smooth="yes"/>
      <point x="188" y="55"/>
      <point x="218" y="25"/>
      <point x="261" y="25" type="curve" smooth="yes"/>
      <point x="329" y="25"/>
      <point x="395" y="54"/>
      <point x="464" y="115" type="curve"/>
      <point x="519" y="376" type="line"/>
      <point x="445" y="376" type="line" smooth="yes"/>
      <point x="428" y="376"/>
      <point x="421" y="381"/>
      <point x="421" y="392" type="curve" smooth="yes"/>
      <point x="421" y="408"/>
      <point x="433" y="417"/>
      <point x="454" y="417" type="curve" smooth="yes"/>
      <point x="569" y="417" type="line"/>
      <point x="489" y="41" type="line"/>
      <point x="523" y="41" type="line" smooth="yes"/>
      <point x="540" y="41"/>
      <point x="546" y="37"/>
      <point x="546" y="25" type="curve" smooth="yes"/>
      <point x="546" y="10"/>
      <point x="534" y="0"/>
      <point x="514" y="0" type="curve" smooth="yes"/>
    </contour>
  </outline>
</glyph>
<glyph name="y" format="1">
  <advance width="600"/>
  <unicode hex="0079"/>
  <outline>
    <contour>
      <point x="282" y="0" type="line"/>
      <point x="175" y="376" type="line"/>
      <point x="159" y="376" type="line" smooth="yes"/>
      <point x="142" y="376"/>
      <point x="135" y="381"/>
      <point x="135" y="392" type="curve" smooth="yes"/>
      <point x="135" y="408"/>
      <point x="147" y="417"/>
      <point x="167" y="417" type="curve" smooth="yes"/>
      <point x="282" y="417" type="line" smooth="yes"/>
      <point x="298" y="417"/>
      <point x="305" y="412"/>
      <point x="305" y="401" type="curve" smooth="yes"/>
      <point x="305" y="386"/>
      <point x="293" y="376"/>
      <point x="273" y="376" type="curve" smooth="yes"/>
      <point x="221" y="376" type="line"/>
      <point x="315" y="45" type="line"/>
      <point x="546" y="376" type="line"/>
      <point x="492" y="376" type="line" smooth="yes"/>
      <point x="476" y="376"/>
      <point x="469" y="381"/>
      <point x="469" y="393" type="curve" smooth="yes"/>
      <point x="469" y="407"/>
      <point x="481" y="417"/>
      <point x="501" y="417" type="curve" smooth="yes"/>
      <point x="611" y="417" type="line" smooth="yes"/>
      <point x="627" y="417"/>
      <point x="634" y="412"/>
      <point x="634" y="401" type="curve" smooth="yes"/>
      <point x="634" y="386"/>
      <point x="622" y="376"/>
      <point x="602" y="376" type="curve" smooth="yes"/>
      <point x="589" y="376" type="line"/>
      <point x="222" y="-145" type="line"/>
      <point x="286" y="-145" type="line" smooth="yes"/>
      <point x="304" y="-145"/>
      <point x="310" y="-149"/>
      <point x="310" y="-161" type="curve" smooth="yes"/>
      <point x="310" y="-176"/>
      <point x="297" y="-186"/>
      <point x="278" y="-186" type="curve" smooth="yes"/>
      <point x="45" y="-186" type="line" smooth="yes"/>
      <point x="29" y="-186"/>
      <point x="22" y="-181"/>
      <point x="22" y="-170" type="curve" smooth="yes"/>
      <point x="22" y="-154"/>
      <point x="34" y="-145"/>
      <point x="54" y="-145" type="curve" smooth="yes"/>
      <point x="180" y="-145" type="line"/>
    </contour>
  </outline>
</glyph>
<glyph name="bar" format="1">
  <advance width="600"/>
  <unicode hex="007C"/>
  <outline>
    <contour>
      <point x="442" y="577" type="curve" smooth="yes"/>
      <point x="299" y="-97" type="line" smooth="yes"/>
      <point x="295" y="-115"/>
      <point x="286" y="-124"/>
      <point x="273" y="-124" type="curve" smooth="yes"/>
      <point x="264" y="-124"/>
      <point x="257" y="-117"/>
      <point x="257" y="-109" type="curve" smooth="yes"/>
      <point x="257" y="-107"/>
      <point x="258" y="-101"/>
      <point x="259" y="-97" type="curve" smooth="yes"/>
      <point x="402" y="577" type="line" smooth="yes"/>
      <point x="406" y="594"/>
      <point x="415" y="604"/>
      <point x="428" y="604" type="curve" smooth="yes"/>
      <point x="437" y="604"/>
      <point x="444" y="597"/>
      <point x="444" y="589" type="curve" smooth="yes"/>
      <point x="444" y="586"/>
      <point x="444" y="585"/>
    </contour>
  </outline>
</glyph>
<glyph name="braceright" format="1">
  <advance width="600"/>
  <unicode hex="007D"/>
  <outline>
    <contour>
      <point x="275" y="-19" type="curve" smooth="yes"/>
      <point x="311" y="154" type="line" smooth="yes"/>
      <point x="320" y="195"/>
      <point x="337" y="218"/>
      <point x="374" y="240" type="curve"/>
      <point x="352" y="258"/>
      <point x="344" y="274"/>
      <point x="344" y="296" type="curve" smooth="yes"/>
      <point x="344" y="304"/>
      <point x="345" y="315"/>
      <point x="348" y="326" type="curve" smooth="yes"/>
      <point x="384" y="499" type="line" smooth="yes"/>
      <point x="386" y="504"/>
      <point x="386" y="508"/>
      <point x="386" y="515" type="curve" smooth="yes"/>
      <point x="386" y="541"/>
      <point x="368" y="561"/>
      <point x="343" y="563" type="curve" smooth="yes"/>
      <point x="326" y="565"/>
      <point x="321" y="568"/>
      <point x="321" y="580" type="curve" smooth="yes"/>
      <point x="321" y="594"/>
      <point x="334" y="604"/>
      <point x="350" y="604" type="curve" smooth="yes"/>
      <point x="395" y="604"/>
      <point x="428" y="570"/>
      <point x="428" y="524" type="curve" smooth="yes"/>
      <point x="428" y="515"/>
      <point x="427" y="507"/>
      <point x="425" y="499" type="curve" smooth="yes"/>
      <point x="389" y="326" type="line" smooth="yes"/>
      <point x="388" y="321"/>
      <point x="387" y="315"/>
      <point x="387" y="311" type="curve" smooth="yes"/>
      <point x="387" y="282"/>
      <point x="405" y="263"/>
      <point x="435" y="261" type="curve" smooth="yes"/>
      <point x="450" y="261"/>
      <point x="455" y="256"/>
      <point x="455" y="245" type="curve" smooth="yes"/>
      <point x="455" y="230"/>
      <point x="445" y="220"/>
      <point x="426" y="219" type="curve" smooth="yes"/>
      <point x="390" y="217"/>
      <point x="360" y="191"/>
      <point x="352" y="154" type="curve" smooth="yes"/>
      <point x="315" y="-19" type="line" smooth="yes"/>
      <point x="303" y="-78"/>
      <point x="250" y="-124"/>
      <point x="194" y="-124" type="curve" smooth="yes"/>
      <point x="182" y="-124"/>
      <point x="175" y="-118"/>
      <point x="175" y="-108" type="curve" smooth="yes"/>
      <point x="175" y="-93"/>
      <point x="184" y="-85"/>
      <point x="206" y="-83" type="curve" smooth="yes"/>
      <point x="240" y="-79"/>
      <point x="267" y="-53"/>
    </contour>
  </outline>
</glyph>
<glyph name="exclamdown" format="1">
  <advance width="600"/>
  <unicode hex="00A1"/>
  <outline>
    <contour>
      <point x="227" y="-161" type="curve" smooth="yes"/>
      <point x="315" y="165" type="line" smooth="yes"/>
      <point x="320" y="185"/>
      <point x="328" y="193"/>
      <point x="342" y="193" type="curve" smooth="yes"/>
      <point x="350" y="193"/>
      <point x="357" y="186"/>
      <point x="357" y="178" type="curve" smooth="yes"/>
      <point x="357" y="174"/>
      <point x="357" y="171"/>
      <point x="356" y="165" type="curve" smooth="yes"/>
      <point x="305" y="-161" type="line" smooth="yes"/>
      <point x="299" y="-198"/>
      <point x="283" y="-216"/>
      <point x="254" y="-216" type="curve" smooth="yes"/>
      <point x="236" y="-216"/>
      <point x="222" y="-203"/>
      <point x="222" y="-187" type="curve" smooth="yes"/>
      <point x="222" y="-182"/>
      <point x="224" y="-173"/>
    </contour>
    <contour>
      <point x="374" y="317" type="curve" smooth="yes"/>
      <point x="362" y="317" type="line" smooth="yes"/>
      <point x="335" y="317"/>
      <point x="316" y="333"/>
      <point x="316" y="357" type="curve" smooth="yes"/>
      <point x="316" y="389"/>
      <point x="347" y="417"/>
      <point x="383" y="417" type="curve" smooth="yes"/>
      <point x="395" y="417" type="line" smooth="yes"/>
      <point x="421" y="417"/>
      <point x="439" y="401"/>
      <point x="439" y="378" type="curve" smooth="yes"/>
      <point x="439" y="345"/>
      <point x="408" y="317"/>
    </contour>
  </outline>
</glyph>
<glyph name="cent" format="1">
  <advance width="600"/>
  <unicode hex="00A2"/>
  <outline>
    <contour>
      <point x="385" y="496" type="curve"/>
      <point x="408" y="603" type="line" smooth="yes"/>
      <point x="412" y="621"/>
      <point x="421" y="630"/>
      <point x="434" y="630" type="curve" smooth="yes"/>
      <point x="444" y="630"/>
      <point x="451" y="623"/>
      <point x="451" y="614" type="curve" smooth="yes"/>
      <point x="451" y="611"/>
      <point x="451" y="611"/>
      <point x="449" y="603" type="curve" smooth="yes"/>
      <point x="427" y="497" type="line"/>
      <point x="465" y="497"/>
      <point x="503" y="483"/>
      <point x="523" y="461" type="curve"/>
      <point x="529" y="472"/>
      <point x="537" y="478"/>
      <point x="546" y="478" type="curve" smooth="yes"/>
      <point x="557" y="478"/>
      <point x="563" y="472"/>
      <point x="563" y="461" type="curve" smooth="yes"/>
      <point x="563" y="458"/>
      <point x="563" y="456"/>
      <point x="562" y="453" type="curve" smooth="yes"/>
      <point x="549" y="392" type="line" smooth="yes"/>
      <point x="545" y="373"/>
      <point x="536" y="363"/>
      <point x="523" y="363" type="curve" smooth="yes"/>
      <point x="518" y="363"/>
      <point x="507" y="371"/>
      <point x="507" y="375" type="curve" smooth="yes"/>
      <point x="509" y="404" type="line" smooth="yes"/>
      <point x="509" y="409"/>
      <point x="494" y="431"/>
      <point x="484" y="438" type="curve" smooth="yes"/>
      <point x="468" y="451"/>
      <point x="438" y="459"/>
      <point x="407" y="459" type="curve" smooth="yes"/>
      <point x="305" y="459"/>
      <point x="216" y="375"/>
      <point x="216" y="277" type="curve" smooth="yes"/>
      <point x="216" y="213"/>
      <point x="269" y="164"/>
      <point x="339" y="164" type="curve" smooth="yes"/>
      <point x="386" y="164"/>
      <point x="440" y="181"/>
      <point x="477" y="207" type="curve" smooth="yes"/>
      <point x="484" y="212"/>
      <point x="492" y="216"/>
      <point x="496" y="216" type="curve" smooth="yes"/>
      <point x="503" y="216"/>
      <point x="512" y="208"/>
      <point x="512" y="202" type="curve" smooth="yes"/>
      <point x="512" y="188"/>
      <point x="501" y="176"/>
      <point x="474" y="163" type="curve" smooth="yes"/>
      <point x="432" y="142"/>
      <point x="388" y="129"/>
      <point x="348" y="127" type="curve"/>
      <point x="324" y="14" type="line" smooth="yes"/>
      <point x="320" y="-4"/>
      <point x="311" y="-13"/>
      <point x="297" y="-13" type="curve" smooth="yes"/>
      <point x="289" y="-13"/>
      <point x="281" y="-6"/>
      <point x="281" y="2" type="curve" smooth="yes"/>
      <point x="281" y="4"/>
      <point x="281" y="7"/>
      <point x="282" y="10" type="curve" smooth="yes"/>
      <point x="283" y="14" type="line"/>
      <point x="307" y="127" type="line"/>
      <point x="227" y="137"/>
      <point x="175" y="194"/>
      <point x="175" y="273" type="curve" smooth="yes"/>
      <point x="175" y="332"/>
      <point x="206" y="395"/>
      <point x="256" y="437" type="curve" smooth="yes"/>
      <point x="292" y="468"/>
      <point x="326" y="483"/>
    </contour>
  </outline>
</glyph>
<glyph name="sterling" format="1">
  <advance width="600"/>
  <unicode hex="00A3"/>
  <outline>
    <contour>
      <point x="191" y="41" type="curve"/>
      <point x="443" y="41" type="line" smooth="yes"/>
      <point x="469" y="41"/>
      <point x="489" y="60"/>
      <point x="499" y="92" type="curve" smooth="yes"/>
      <point x="504" y="108"/>
      <point x="512" y="115"/>
      <point x="525" y="115" type="curve" smooth="yes"/>
      <point x="534" y="115"/>
      <point x="541" y="108"/>
      <point x="541" y="100" type="curve" smooth="yes"/>
      <point x="541" y="86"/>
      <point x="529" y="59"/>
      <point x="514" y="41" type="curve" smooth="yes"/>
      <point x="493" y="15"/>
      <point x="465" y="0"/>
      <point x="436" y="0" type="curve" smooth="yes"/>
      <point x="113" y="0" type="line" smooth="yes"/>
      <point x="97" y="0"/>
      <point x="90" y="5"/>
      <point x="90" y="17" type="curve" smooth="yes"/>
      <point x="90" y="30"/>
      <point x="101" y="40"/>
      <point x="117" y="40" type="curve" smooth="yes"/>
      <point x="175" y="41"/>
      <point x="248" y="166"/>
      <point x="252" y="273" type="curve"/>
      <point x="148" y="273" type="line" smooth="yes"/>
      <point x="132" y="273"/>
      <point x="125" y="278"/>
      <point x="125" y="290" type="curve" smooth="yes"/>
      <point x="125" y="305"/>
      <point x="137" y="314"/>
      <point x="157" y="314" type="curve" smooth="yes"/>
      <point x="251" y="314" type="line"/>
      <point x="246" y="353"/>
      <point x="245" y="373"/>
      <point x="245" y="393" type="curve" smooth="yes"/>
      <point x="245" y="493"/>
      <point x="326" y="578"/>
      <point x="421" y="578" type="curve" smooth="yes"/>
      <point x="457" y="578"/>
      <point x="487" y="565"/>
      <point x="511" y="539" type="curve" smooth="yes"/>
      <point x="524" y="525"/>
      <point x="533" y="508"/>
      <point x="533" y="499" type="curve" smooth="yes"/>
      <point x="533" y="488"/>
      <point x="520" y="476"/>
      <point x="508" y="476" type="curve" smooth="yes"/>
      <point x="502" y="476"/>
      <point x="498" y="479"/>
      <point x="493" y="488" type="curve" smooth="yes"/>
      <point x="473" y="522"/>
      <point x="448" y="537"/>
      <point x="413" y="537" type="curve" smooth="yes"/>
      <point x="381" y="537"/>
      <point x="348" y="521"/>
      <point x="323" y="495" type="curve"/>
      <point x="297" y="466"/>
      <point x="287" y="439"/>
      <point x="287" y="396" type="curve" smooth="yes"/>
      <point x="287" y="379"/>
      <point x="287" y="379"/>
      <point x="291" y="328" type="curve" smooth="yes"/>
      <point x="292" y="314" type="line"/>
      <point x="391" y="314" type="line" smooth="yes"/>
      <point x="408" y="314"/>
      <point x="414" y="310"/>
      <point x="414" y="298" type="curve" smooth="yes"/>
      <point x="414" y="283"/>
      <point x="402" y="273"/>
      <point x="382" y="273" type="curve" smooth="yes"/>
      <point x="292" y="273" type="line"/>
      <point x="289" y="189"/>
      <point x="248" y="94"/>
    </contour>
  </outline>
</glyph>
<glyph name="currency" format="1">
  <advance width="600"/>
  <unicode hex="00A4"/>
  <outline>
    <contour>
      <point x="233" y="162" type="curve"/>
      <point x="165" y="106" type="line" smooth="yes"/>
      <point x="155" y="98"/>
      <point x="150" y="95"/>
      <point x="144" y="95" type="curve" smooth="yes"/>
      <point x="134" y="95"/>
      <point x="127" y="102"/>
      <point x="127" y="111" type="curve" smooth="yes"/>
      <point x="127" y="119"/>
      <point x="131" y="125"/>
      <point x="142" y="135" type="curve" smooth="yes"/>
      <point x="210" y="191" type="line"/>
      <point x="199" y="214"/>
      <point x="193" y="236"/>
      <point x="193" y="259" type="curve" smooth="yes"/>
      <point x="193" y="305"/>
      <point x="217" y="358"/>
      <point x="253" y="394" type="curve"/>
      <point x="209" y="450" type="line" smooth="yes"/>
      <point x="204" y="456"/>
      <point x="202" y="461"/>
      <point x="202" y="465" type="curve" smooth="yes"/>
      <point x="202" y="477"/>
      <point x="215" y="489"/>
      <point x="227" y="489" type="curve" smooth="yes"/>
      <point x="234" y="489"/>
      <point x="238" y="487"/>
      <point x="244" y="478" type="curve" smooth="yes"/>
      <point x="288" y="423" type="line"/>
      <point x="323" y="446"/>
      <point x="360" y="458"/>
      <point x="399" y="458" type="curve" smooth="yes"/>
      <point x="435" y="458"/>
      <point x="468" y="446"/>
      <point x="492" y="423" type="curve"/>
      <point x="559" y="478" type="line" smooth="yes"/>
      <point x="569" y="487"/>
      <point x="574" y="489"/>
      <point x="580" y="489" type="curve" smooth="yes"/>
      <point x="590" y="489"/>
      <point x="597" y="482"/>
      <point x="597" y="473" type="curve" smooth="yes"/>
      <point x="597" y="464"/>
      <point x="594" y="459"/>
      <point x="582" y="450" type="curve" smooth="yes"/>
      <point x="515" y="394" type="line"/>
      <point x="527" y="373"/>
      <point x="532" y="351"/>
      <point x="532" y="327" type="curve" smooth="yes"/>
      <point x="532" y="280"/>
      <point x="510" y="230"/>
      <point x="471" y="191" type="curve"/>
      <point x="515" y="135" type="line" smooth="yes"/>
      <point x="516" y="134"/>
      <point x="516" y="134"/>
      <point x="521" y="119" type="curve"/>
      <point x="521" y="108"/>
      <point x="508" y="95"/>
      <point x="495" y="95" type="curve" smooth="yes"/>
      <point x="490" y="95"/>
      <point x="485" y="98"/>
      <point x="479" y="106" type="curve" smooth="yes"/>
      <point x="436" y="162" type="line"/>
      <point x="400" y="138"/>
      <point x="364" y="127"/>
      <point x="326" y="127" type="curve" smooth="yes"/>
      <point x="290" y="127"/>
      <point x="259" y="139"/>
    </contour>
    <contour>
      <point x="388" y="417" type="curve" smooth="yes"/>
      <point x="310" y="417"/>
      <point x="235" y="344"/>
      <point x="235" y="267" type="curve" smooth="yes"/>
      <point x="235" y="210"/>
      <point x="277" y="168"/>
      <point x="334" y="168" type="curve" smooth="yes"/>
      <point x="414" y="168"/>
      <point x="489" y="241"/>
      <point x="489" y="318" type="curve" smooth="yes"/>
      <point x="489" y="376"/>
      <point x="447" y="417"/>
    </contour>
  </outline>
</glyph>
<glyph name="yen" format="1">
  <advance width="600"/>
  <unicode hex="00A5"/>
  <outline>
    <contour>
      <point x="372" y="238" type="line"/>
      <point x="359" y="178" type="line"/>
      <point x="490" y="178" type="line" smooth="yes"/>
      <point x="502" y="178"/>
      <point x="508" y="174"/>
      <point x="508" y="167" type="curve" smooth="yes"/>
      <point x="508" y="150"/>
      <point x="499" y="141"/>
      <point x="482" y="141" type="curve" smooth="yes"/>
      <point x="351" y="141" type="line"/>
      <point x="330" y="41" type="line"/>
      <point x="416" y="41" type="line" smooth="yes"/>
      <point x="433" y="41"/>
      <point x="439" y="37"/>
      <point x="439" y="25" type="curve" smooth="yes"/>
      <point x="439" y="10"/>
      <point x="426" y="0"/>
      <point x="407" y="0" type="curve" smooth="yes"/>
      <point x="194" y="0" type="line" smooth="yes"/>
      <point x="178" y="0"/>
      <point x="171" y="5"/>
      <point x="171" y="16" type="curve" smooth="yes"/>
      <point x="171" y="32"/>
      <point x="183" y="41"/>
      <point x="203" y="41" type="curve" smooth="yes"/>
      <point x="289" y="41" type="line"/>
      <point x="310" y="141" type="line"/>
      <point x="180" y="141" type="line" smooth="yes"/>
      <point x="167" y="141"/>
      <point x="161" y="145"/>
      <point x="161" y="153" type="curve" smooth="yes"/>
      <point x="161" y="170"/>
      <point x="170" y="178"/>
      <point x="187" y="178" type="curve" smooth="yes"/>
      <point x="318" y="178" type="line"/>
      <point x="331" y="238" type="line"/>
      <point x="200" y="238" type="line" smooth="yes"/>
      <point x="187" y="238"/>
      <point x="182" y="241"/>
      <point x="182" y="250" type="curve" smooth="yes"/>
      <point x="182" y="267"/>
      <point x="190" y="275"/>
      <point x="208" y="275" type="curve" smooth="yes"/>
      <point x="324" y="275" type="line"/>
      <point x="213" y="522" type="line"/>
      <point x="189" y="522" type="line" smooth="yes"/>
      <point x="172" y="522"/>
      <point x="166" y="527"/>
      <point x="166" y="538" type="curve" smooth="yes"/>
      <point x="166" y="554"/>
      <point x="178" y="563"/>
      <point x="198" y="563" type="curve" smooth="yes"/>
      <point x="308" y="563" type="line" smooth="yes"/>
      <point x="325" y="563"/>
      <point x="331" y="559"/>
      <point x="331" y="547" type="curve" smooth="yes"/>
      <point x="331" y="532"/>
      <point x="319" y="522"/>
      <point x="299" y="522" type="curve" smooth="yes"/>
      <point x="260" y="522" type="line"/>
      <point x="363" y="295" type="line"/>
      <point x="562" y="522" type="line"/>
      <point x="523" y="522" type="line" smooth="yes"/>
      <point x="506" y="522"/>
      <point x="500" y="527"/>
      <point x="500" y="539" type="curve" smooth="yes"/>
      <point x="500" y="554"/>
      <point x="512" y="563"/>
      <point x="532" y="563" type="curve" smooth="yes"/>
      <point x="642" y="563" type="line" smooth="yes"/>
      <point x="659" y="563"/>
      <point x="665" y="559"/>
      <point x="665" y="546" type="curve" smooth="yes"/>
      <point x="665" y="532"/>
      <point x="653" y="522"/>
      <point x="633" y="522" type="curve" smooth="yes"/>
      <point x="609" y="522" type="line"/>
      <point x="392" y="275" type="line"/>
      <point x="510" y="275" type="line" smooth="yes"/>
      <point x="523" y="275"/>
      <point x="529" y="272"/>
      <point x="529" y="264" type="curve" smooth="yes"/>
      <point x="529" y="246"/>
      <point x="520" y="238"/>
      <point x="503" y="238" type="curve" smooth="yes"/>
    </contour>
  </outline>
</glyph>
<glyph name="brokenbar" format="1">
  <advance width="600"/>
  <unicode hex="00A6"/>
  <outline>
    <contour>
      <point x="442" y="577" type="curve" smooth="yes"/>
      <point x="385" y="310" type="line" smooth="yes"/>
      <point x="381" y="292"/>
      <point x="373" y="283"/>
      <point x="360" y="283" type="curve" smooth="yes"/>
      <point x="351" y="283"/>
      <point x="344" y="290"/>
      <point x="344" y="298" type="curve" smooth="yes"/>
      <point x="345" y="310" type="line"/>
      <point x="402" y="577" type="line" smooth="yes"/>
      <point x="406" y="594"/>
      <point x="415" y="604"/>
      <point x="428" y="604" type="curve" smooth="yes"/>
      <point x="437" y="604"/>
      <point x="444" y="597"/>
      <point x="444" y="589" type="curve" smooth="yes"/>
      <point x="444" y="586"/>
      <point x="444" y="585"/>
    </contour>
    <contour>
      <point x="356" y="170" type="line"/>
      <point x="299" y="-97" type="line" smooth="yes"/>
      <point x="295" y="-115"/>
      <point x="286" y="-124"/>
      <point x="273" y="-124" type="curve" smooth="yes"/>
      <point x="264" y="-124"/>
      <point x="257" y="-117"/>
      <point x="257" y="-109" type="curve" smooth="yes"/>
      <point x="257" y="-107"/>
      <point x="258" y="-101"/>
      <point x="259" y="-97" type="curve" smooth="yes"/>
      <point x="315" y="170" type="line" smooth="yes"/>
      <point x="319" y="188"/>
      <point x="328" y="197"/>
      <point x="341" y="197" type="curve" smooth="yes"/>
      <point x="350" y="197"/>
      <point x="357" y="190"/>
      <point x="357" y="182" type="curve" smooth="yes"/>
    </contour>
  </outline>
</glyph>
<glyph name="copyright" format="1">
  <advance width="600"/>
  <unicode hex="00A9"/>
  <outline>
    <contour>
      <point x="209" y="260" type="curve" smooth="yes"/>
      <point x="219" y="305" type="line"/>
      <point x="235" y="385"/>
      <point x="312" y="450"/>
      <point x="389" y="450" type="curve" smooth="yes"/>
      <point x="420" y="450"/>
      <point x="441" y="443"/>
      <point x="471" y="421" type="curve"/>
      <point x="475" y="435"/>
      <point x="483" y="443"/>
      <point x="494" y="443" type="curve" smooth="yes"/>
      <point x="502" y="443"/>
      <point x="508" y="437"/>
      <point x="508" y="429" type="curve" smooth="yes"/>
      <point x="508" y="426"/>
      <point x="508" y="425"/>
      <point x="507" y="423" type="curve" smooth="yes"/>
      <point x="494" y="358" type="line" smooth="yes"/>
      <point x="491" y="347"/>
      <point x="481" y="337"/>
      <point x="472" y="337" type="curve" smooth="yes"/>
      <point x="466" y="337"/>
      <point x="461" y="341"/>
      <point x="457" y="348" type="curve"/>
      <point x="459" y="369" type="line" smooth="yes"/>
      <point x="459" y="370"/>
      <point x="446" y="389"/>
      <point x="443" y="393" type="curve" smooth="yes"/>
      <point x="431" y="405"/>
      <point x="403" y="415"/>
      <point x="381" y="415" type="curve" smooth="yes"/>
      <point x="325" y="415"/>
      <point x="267" y="364"/>
      <point x="254" y="302" type="curve" smooth="yes"/>
      <point x="246" y="263" type="line" smooth="yes"/>
      <point x="244" y="255"/>
      <point x="243" y="247"/>
      <point x="243" y="239" type="curve" smooth="yes"/>
      <point x="243" y="186"/>
      <point x="282" y="147"/>
      <point x="334" y="147" type="curve" smooth="yes"/>
      <point x="370" y="147"/>
      <point x="400" y="161"/>
      <point x="434" y="194" type="curve" smooth="yes"/>
      <point x="440" y="200"/>
      <point x="445" y="202"/>
      <point x="451" y="202" type="curve" smooth="yes"/>
      <point x="459" y="202"/>
      <point x="465" y="197"/>
      <point x="465" y="189" type="curve" smooth="yes"/>
      <point x="465" y="180"/>
      <point x="460" y="173"/>
      <point x="443" y="159" type="curve" smooth="yes"/>
      <point x="408" y="128"/>
      <point x="366" y="111"/>
      <point x="326" y="111" type="curve" smooth="yes"/>
      <point x="258" y="111"/>
      <point x="206" y="164"/>
      <point x="206" y="232" type="curve" smooth="yes"/>
      <point x="206" y="241"/>
      <point x="207" y="251"/>
    </contour>
    <contour>
      <point x="426" y="578" type="curve" smooth="yes"/>
      <point x="563" y="578"/>
      <point x="663" y="479"/>
      <point x="663" y="343" type="curve" smooth="yes"/>
      <point x="663" y="158"/>
      <point x="485" y="-15"/>
      <point x="294" y="-15" type="curve" smooth="yes"/>
      <point x="157" y="-15"/>
      <point x="57" y="85"/>
      <point x="57" y="220" type="curve" smooth="yes"/>
      <point x="57" y="405"/>
      <point x="235" y="578"/>
    </contour>
    <contour>
      <point x="416" y="537" type="curve" smooth="yes"/>
      <point x="252" y="537"/>
      <point x="99" y="388"/>
      <point x="99" y="229" type="curve" smooth="yes"/>
      <point x="99" y="112"/>
      <point x="185" y="26"/>
      <point x="303" y="26" type="curve" smooth="yes"/>
      <point x="468" y="26"/>
      <point x="621" y="175"/>
      <point x="621" y="334" type="curve" smooth="yes"/>
      <point x="621" y="451"/>
      <point x="534" y="537"/>
    </contour>
  </outline>
</glyph>
<glyph name="logicalnot" format="1">
  <advance width="600"/>
  <unicode hex="00AC"/>
  <outline>
    <contour>
      <point x="571" y="397" type="line"/>
      <point x="183" y="397" type="line" smooth="yes"/>
      <point x="167" y="397"/>
      <point x="160" y="402"/>
      <point x="160" y="413" type="curve" smooth="yes"/>
      <point x="160" y="429"/>
      <point x="172" y="438"/>
      <point x="192" y="438" type="curve" smooth="yes"/>
      <point x="621" y="438" type="line"/>
      <point x="569" y="195" type="line" smooth="yes"/>
      <point x="566" y="178"/>
      <point x="556" y="168"/>
      <point x="542" y="168" type="curve" smooth="yes"/>
      <point x="534" y="168"/>
      <point x="526" y="175"/>
      <point x="526" y="183" type="curve" smooth="yes"/>
      <point x="526" y="185"/>
      <point x="526" y="188"/>
      <point x="527" y="191" type="curve" smooth="yes"/>
      <point x="528" y="193"/>
      <point x="528" y="195"/>
      <point x="528" y="195" type="curve"/>
    </contour>
  </outline>
</glyph>
<glyph name="macron" format="1">
  <advance width="600"/>
  <unicode hex="00AF"/>
  <outline>
    <contour>
      <point x="532" y="536" type="curve" smooth="yes"/>
      <point x="296" y="536" type="line" smooth="yes"/>
      <point x="280" y="536"/>
      <point x="273" y="541"/>
      <point x="273" y="552" type="curve" smooth="yes"/>
      <point x="273" y="567"/>
      <point x="285" y="576"/>
      <point x="305" y="576" type="curve" smooth="yes"/>
      <point x="541" y="576" type="line" smooth="yes"/>
      <point x="557" y="576"/>
      <point x="564" y="571"/>
      <point x="564" y="560" type="curve" smooth="yes"/>
      <point x="564" y="545"/>
      <point x="552" y="536"/>
    </contour>
  </outline>
</glyph>
<glyph name="degree" format="1">
  <advance width="600"/>
  <unicode hex="00B0"/>
  <outline>
    <contour>
      <point x="437" y="636" type="curve" smooth="yes"/>
      <point x="504" y="636"/>
      <point x="553" y="587"/>
      <point x="553" y="521" type="curve" smooth="yes"/>
      <point x="553" y="432"/>
      <point x="466" y="346"/>
      <point x="375" y="346" type="curve" smooth="yes"/>
      <point x="306" y="346"/>
      <point x="257" y="394"/>
      <point x="257" y="462" type="curve" smooth="yes"/>
      <point x="257" y="552"/>
      <point x="344" y="636"/>
    </contour>
    <contour>
      <point x="428" y="595" type="curve" smooth="yes"/>
      <point x="361" y="595"/>
      <point x="299" y="535"/>
      <point x="299" y="470" type="curve" smooth="yes"/>
      <point x="299" y="421"/>
      <point x="334" y="387"/>
      <point x="383" y="387" type="curve" smooth="yes"/>
      <point x="449" y="387"/>
      <point x="511" y="448"/>
      <point x="511" y="513" type="curve" smooth="yes"/>
      <point x="511" y="560"/>
      <point x="476" y="595"/>
    </contour>
  </outline>
</glyph>
<glyph name="threesuperior" format="1">
  <advance width="600"/>
  <unicode hex="00B3"/>
  <outline>
    <contour>
      <point x="458" y="450" type="curve"/>
      <point x="452" y="446" type="line"/>
      <point x="482" y="426"/>
      <point x="494" y="405"/>
      <point x="494" y="376" type="curve" smooth="yes"/>
      <point x="494" y="312"/>
      <point x="422" y="251"/>
      <point x="348" y="251" type="curve" smooth="yes"/>
      <point x="302" y="251"/>
      <point x="245" y="278"/>
      <point x="245" y="300" type="curve" smooth="yes"/>
      <point x="245" y="311"/>
      <point x="255" y="321"/>
      <point x="266" y="321" type="curve" smooth="yes"/>
      <point x="271" y="321"/>
      <point x="274" y="320"/>
      <point x="278" y="316" type="curve" smooth="yes"/>
      <point x="303" y="295"/>
      <point x="326" y="287"/>
      <point x="356" y="287" type="curve" smooth="yes"/>
      <point x="408" y="287"/>
      <point x="457" y="328"/>
      <point x="457" y="371" type="curve" smooth="yes"/>
      <point x="457" y="405"/>
      <point x="425" y="430"/>
      <point x="380" y="431" type="curve" smooth="yes"/>
      <point x="368" y="432"/>
      <point x="362" y="436"/>
      <point x="362" y="446" type="curve" smooth="yes"/>
      <point x="362" y="458"/>
      <point x="373" y="467"/>
      <point x="387" y="467" type="curve" smooth="yes"/>
      <point x="402" y="467" type="line" smooth="yes"/>
      <point x="444" y="467"/>
      <point x="479" y="496"/>
      <point x="479" y="531" type="curve" smooth="yes"/>
      <point x="479" y="558"/>
      <point x="456" y="576"/>
      <point x="422" y="576" type="curve" smooth="yes"/>
      <point x="393" y="576"/>
      <point x="367" y="566"/>
      <point x="348" y="549" type="curve" smooth="yes"/>
      <point x="339" y="541"/>
      <point x="336" y="539"/>
      <point x="329" y="539" type="curve" smooth="yes"/>
      <point x="321" y="539"/>
      <point x="315" y="545"/>
      <point x="315" y="553" type="curve" smooth="yes"/>
      <point x="315" y="578"/>
      <point x="381" y="612"/>
      <point x="430" y="612" type="curve" smooth="yes"/>
      <point x="481" y="612"/>
      <point x="516" y="582"/>
      <point x="516" y="538" type="curve" smooth="yes"/>
      <point x="516" y="503"/>
      <point x="496" y="472"/>
    </contour>
  </outline>
</glyph>
<glyph name="cedilla" format="1">
  <advance width="600"/>
  <unicode hex="00B8"/>
  <outline>
    <contour>
      <point x="274" y="0" type="line"/>
      <point x="312" y="0" type="line"/>
      <point x="302" y="-47" type="line"/>
      <point x="338" y="-48"/>
      <point x="356" y="-63"/>
      <point x="356" y="-93" type="curve" smooth="yes"/>
      <point x="356" y="-138"/>
      <point x="315" y="-173"/>
      <point x="262" y="-173" type="curve" smooth="yes"/>
      <point x="225" y="-173"/>
      <point x="181" y="-154"/>
      <point x="181" y="-138" type="curve" smooth="yes"/>
      <point x="181" y="-125"/>
      <point x="192" y="-114"/>
      <point x="205" y="-114" type="curve" smooth="yes"/>
      <point x="210" y="-114"/>
      <point x="213" y="-115"/>
      <point x="220" y="-119" type="curve" smooth="yes"/>
      <point x="240" y="-131"/>
      <point x="253" y="-135"/>
      <point x="268" y="-135" type="curve" smooth="yes"/>
      <point x="297" y="-135"/>
      <point x="319" y="-121"/>
      <point x="319" y="-101" type="curve" smooth="yes"/>
      <point x="319" y="-88"/>
      <point x="305" y="-81"/>
      <point x="278" y="-81" type="curve" smooth="yes"/>
      <point x="257" y="-81" type="line"/>
    </contour>
  </outline>
</glyph>
<glyph name="onesuperior" format="1">
  <advance width="600"/>
  <unicode hex="00B9"/>
  <outline>
    <contour>
      <point x="449" y="612" type="curve"/>
      <point x="381" y="295" type="line"/>
      <point x="452" y="295" type="line" smooth="yes"/>
      <point x="463" y="295"/>
      <point x="469" y="290"/>
      <point x="469" y="281" type="curve" smooth="yes"/>
      <point x="469" y="269"/>
      <point x="458" y="259"/>
      <point x="445" y="259" type="curve" smooth="yes"/>
      <point x="266" y="259" type="line" smooth="yes"/>
      <point x="255" y="259"/>
      <point x="249" y="264"/>
      <point x="249" y="273" type="curve" smooth="yes"/>
      <point x="249" y="289"/>
      <point x="260" y="295"/>
      <point x="285" y="295" type="curve" smooth="yes"/>
      <point x="345" y="295" type="line"/>
      <point x="402" y="563" type="line"/>
      <point x="333" y="542" type="line" smooth="yes"/>
      <point x="330" y="541"/>
      <point x="326" y="541"/>
      <point x="323" y="541" type="curve" smooth="yes"/>
      <point x="316" y="541"/>
      <point x="310" y="548"/>
      <point x="310" y="555" type="curve" smooth="yes"/>
      <point x="310" y="560"/>
      <point x="313" y="566"/>
      <point x="317" y="570" type="curve" smooth="yes"/>
      <point x="322" y="575"/>
      <point x="339" y="580"/>
    </contour>
  </outline>
</glyph>
<glyph name="onehalf" format="1">
  <advance width="600"/>
  <unicode hex="00BD"/>
  <outline>
    <contour>
      <point x="587" y="477" type="curve" smooth="yes"/>
      <point x="148" y="63" type="line" smooth="yes"/>
      <point x="138" y="53"/>
      <point x="134" y="51"/>
      <point x="127" y="51" type="curve" smooth="yes"/>
      <point x="118" y="51"/>
      <point x="111" y="58"/>
      <point x="111" y="67" type="curve" smooth="yes"/>
      <point x="111" y="73"/>
      <point x="114" y="79"/>
      <point x="124" y="88" type="curve" smooth="yes"/>
      <point x="562" y="502" type="line" smooth="yes"/>
      <point x="574" y="512"/>
      <point x="577" y="514"/>
      <point x="583" y="514" type="curve" smooth="yes"/>
      <point x="592" y="514"/>
      <point x="599" y="507"/>
      <point x="599" y="498" type="curve" smooth="yes"/>
      <point x="599" y="492"/>
      <point x="595" y="485"/>
    </contour>
    <contour>
      <point x="281" y="612" type="curve"/>
      <point x="214" y="295" type="line"/>
      <point x="285" y="295" type="line" smooth="yes"/>
      <point x="296" y="295"/>
      <point x="302" y="290"/>
      <point x="302" y="281" type="curve" smooth="yes"/>
      <point x="302" y="269"/>
      <point x="291" y="259"/>
      <point x="278" y="259" type="curve" smooth="yes"/>
      <point x="99" y="259" type="line" smooth="yes"/>
      <point x="88" y="259"/>
      <point x="82" y="264"/>
      <point x="82" y="273" type="curve" smooth="yes"/>
      <point x="82" y="288"/>
      <point x="95" y="296"/>
      <point x="117" y="296" type="curve" smooth="yes"/>
      <point x="134" y="296"/>
      <point x="155" y="296"/>
      <point x="178" y="295" type="curve"/>
      <point x="235" y="563" type="line"/>
      <point x="166" y="542" type="line" smooth="yes"/>
      <point x="162" y="541"/>
      <point x="159" y="541"/>
      <point x="156" y="541" type="curve" smooth="yes"/>
      <point x="149" y="541"/>
      <point x="143" y="548"/>
      <point x="143" y="555" type="curve" smooth="yes"/>
      <point x="143" y="572"/>
      <point x="143" y="572"/>
    </contour>
    <contour>
      <point x="395" y="36" type="curve"/>
      <point x="545" y="36" type="line"/>
      <point x="546" y="39" type="line"/>
      <point x="548" y="51"/>
      <point x="558" y="59"/>
      <point x="568" y="59" type="curve" smooth="yes"/>
      <point x="576" y="59"/>
      <point x="584" y="53"/>
      <point x="583" y="46" type="curve" smooth="yes"/>
      <point x="583" y="46"/>
      <point x="582" y="43"/>
      <point x="582" y="39" type="curve" smooth="yes"/>
      <point x="573" y="0" type="line"/>
      <point x="343" y="0" type="line"/>
      <point x="353" y="43" type="line"/>
      <point x="510" y="166" type="line"/>
      <point x="579" y="222"/>
      <point x="590" y="236"/>
      <point x="590" y="264" type="curve" smooth="yes"/>
      <point x="590" y="293"/>
      <point x="563" y="317"/>
      <point x="531" y="317" type="curve" smooth="yes"/>
      <point x="496" y="317"/>
      <point x="462" y="296"/>
      <point x="445" y="265" type="curve" smooth="yes"/>
      <point x="440" y="254"/>
      <point x="433" y="249"/>
      <point x="424" y="249" type="curve" smooth="yes"/>
      <point x="417" y="249"/>
      <point x="410" y="255"/>
      <point x="410" y="262" type="curve" smooth="yes"/>
      <point x="410" y="273"/>
      <point x="422" y="292"/>
      <point x="438" y="309" type="curve"/>
      <point x="467" y="337"/>
      <point x="503" y="353"/>
      <point x="540" y="353" type="curve" smooth="yes"/>
      <point x="588" y="353"/>
      <point x="627" y="316"/>
      <point x="627" y="271" type="curve" smooth="yes"/>
      <point x="627" y="218"/>
      <point x="611" y="202"/>
    </contour>
  </outline>
</glyph>
<glyph name="Aacute" format="1">
  <advance width="600"/>
  <unicode hex="00C1"/>
  <outline>
    <contour>
      <point x="468" y="188" type="line"/>
      <point x="203" y="188" type="line"/>
      <point x="117" y="41" type="line"/>
      <point x="196" y="41" type="line" smooth="yes"/>
      <point x="213" y="41"/>
      <point x="219" y="37"/>
      <point x="219" y="25" type="curve" smooth="yes"/>
      <point x="219" y="10"/>
      <point x="206" y="0"/>
      <point x="187" y="0" type="curve" smooth="yes"/>
      <point x="36" y="0" type="line" smooth="yes"/>
      <point x="20" y="0"/>
      <point x="13" y="5"/>
      <point x="13" y="17" type="curve" smooth="yes"/>
      <point x="13" y="32"/>
      <point x="25" y="41"/>
      <point x="45" y="41" type="curve" smooth="yes"/>
      <point x="76" y="41" type="line"/>
      <point x="357" y="522" type="line"/>
      <point x="237" y="522" type="line" smooth="yes"/>
      <point x="221" y="522"/>
      <point x="214" y="527"/>
      <point x="214" y="538" type="curve" smooth="yes"/>
      <point x="214" y="554"/>
      <point x="226" y="563"/>
      <point x="246" y="563" type="curve" smooth="yes"/>
      <point x="449" y="563" type="line"/>
      <point x="536" y="41" type="line"/>
      <point x="573" y="41" type="line" smooth="yes"/>
      <point x="590" y="41"/>
      <point x="596" y="37"/>
      <point x="596" y="25" type="curve" smooth="yes"/>
      <point x="596" y="10"/>
      <point x="584" y="0"/>
      <point x="564" y="0" type="curve" smooth="yes"/>
      <point x="408" y="0" type="line" smooth="yes"/>
      <point x="392" y="0"/>
      <point x="385" y="5"/>
      <point x="385" y="16" type="curve" smooth="yes"/>
      <point x="385" y="32"/>
      <point x="397" y="41"/>
      <point x="417" y="41" type="curve" smooth="yes"/>
      <point x="493" y="41" type="line"/>
    </contour>
    <contour>
      <point x="462" y="229" type="line"/>
      <point x="412" y="522" type="line"/>
      <point x="397" y="522" type="line"/>
      <point x="227" y="229" type="line"/>
    </contour>
    <contour>
      <point x="530" y="749" type="curve" smooth="yes"/>
      <point x="396" y="649" type="line" smooth="yes"/>
      <point x="390" y="644"/>
      <point x="380" y="640"/>
      <point x="376" y="640" type="curve" smooth="yes"/>
      <point x="365" y="640"/>
      <point x="358" y="647"/>
      <point x="358" y="657" type="curve" smooth="yes"/>
      <point x="358" y="664"/>
      <point x="363" y="671"/>
      <point x="375" y="680" type="curve" smooth="yes"/>
      <point x="510" y="780" type="line" smooth="yes"/>
      <point x="519" y="787"/>
      <point x="524" y="789"/>
      <point x="531" y="789" type="curve" smooth="yes"/>
      <point x="540" y="789"/>
      <point x="547" y="781"/>
      <point x="547" y="772" type="curve" smooth="yes"/>
      <point x="547" y="765"/>
      <point x="542" y="758"/>
    </contour>
  </outline>
</glyph>
<glyph name="Eacute" format="1">
  <advance width="600"/>
  <unicode hex="00C9"/>
  <outline>
    <contour>
      <point x="223" y="272" type="line"/>
      <point x="174" y="41" type="line"/>
      <point x="488" y="41" type="line"/>
      <point x="513" y="160" type="line" smooth="yes"/>
      <point x="517" y="178"/>
      <point x="526" y="187"/>
      <point x="540" y="187" type="curve" smooth="yes"/>
      <point x="549" y="187"/>
      <point x="556" y="180"/>
      <point x="556" y="172" type="curve" smooth="yes"/>
      <point x="556" y="169"/>
      <point x="555" y="165"/>
      <point x="554" y="160" type="curve" smooth="yes"/>
      <point x="520" y="0" type="line"/>
      <point x="70" y="0" type="line" smooth="yes"/>
      <point x="54" y="0"/>
      <point x="47" y="5"/>
      <point x="47" y="17" type="curve" smooth="yes"/>
      <point x="47" y="32"/>
      <point x="59" y="41"/>
      <point x="79" y="41" type="curve" smooth="yes"/>
      <point x="133" y="41" type="line"/>
      <point x="235" y="522" type="line"/>
      <point x="181" y="522" type="line" smooth="yes"/>
      <point x="165" y="522"/>
      <point x="158" y="527"/>
      <point x="158" y="539" type="curve" smooth="yes"/>
      <point x="158" y="554"/>
      <point x="170" y="563"/>
      <point x="190" y="563" type="curve" smooth="yes"/>
      <point x="619" y="563" type="line"/>
      <point x="589" y="424" type="line" smooth="yes"/>
      <point x="586" y="406"/>
      <point x="577" y="397"/>
      <point x="563" y="397" type="curve" smooth="yes"/>
      <point x="554" y="397"/>
      <point x="547" y="404"/>
      <point x="547" y="412" type="curve" smooth="yes"/>
      <point x="548" y="424" type="line"/>
      <point x="569" y="522" type="line"/>
      <point x="276" y="522" type="line"/>
      <point x="232" y="313" type="line"/>
      <point x="377" y="313" type="line"/>
      <point x="386" y="358" type="line" smooth="yes"/>
      <point x="390" y="376"/>
      <point x="399" y="385"/>
      <point x="412" y="385" type="curve" smooth="yes"/>
      <point x="422" y="385"/>
      <point x="429" y="378"/>
      <point x="429" y="370" type="curve" smooth="yes"/>
      <point x="429" y="368"/>
      <point x="428" y="362"/>
      <point x="427" y="358" type="curve" smooth="yes"/>
      <point x="399" y="227" type="line" smooth="yes"/>
      <point x="396" y="209"/>
      <point x="387" y="200"/>
      <point x="373" y="200" type="curve" smooth="yes"/>
      <point x="364" y="200"/>
      <point x="357" y="207"/>
      <point x="357" y="215" type="curve" smooth="yes"/>
      <point x="358" y="227" type="line"/>
      <point x="368" y="272" type="line"/>
    </contour>
    <contour>
      <point x="548" y="749" type="curve" smooth="yes"/>
      <point x="414" y="649" type="line" smooth="yes"/>
      <point x="408" y="644"/>
      <point x="398" y="640"/>
      <point x="394" y="640" type="curve" smooth="yes"/>
      <point x="383" y="640"/>
      <point x="376" y="647"/>
      <point x="376" y="657" type="curve" smooth="yes"/>
      <point x="376" y="664"/>
      <point x="381" y="671"/>
      <point x="393" y="680" type="curve" smooth="yes"/>
      <point x="528" y="780" type="line" smooth="yes"/>
      <point x="537" y="787"/>
      <point x="542" y="789"/>
      <point x="549" y="789" type="curve" smooth="yes"/>
      <point x="558" y="789"/>
      <point x="565" y="781"/>
      <point x="565" y="772" type="curve" smooth="yes"/>
      <point x="565" y="765"/>
      <point x="560" y="758"/>
    </contour>
  </outline>
</glyph>
<glyph name="Edieresis" format="1">
  <advance width="600"/>
  <unicode hex="00CB"/>
  <outline>
    <contour>
      <point x="223" y="272" type="line"/>
      <point x="174" y="41" type="line"/>
      <point x="488" y="41" type="line"/>
      <point x="513" y="160" type="line" smooth="yes"/>
      <point x="517" y="178"/>
      <point x="526" y="187"/>
      <point x="540" y="187" type="curve" smooth="yes"/>
      <point x="549" y="187"/>
      <point x="556" y="180"/>
      <point x="556" y="172" type="curve" smooth="yes"/>
      <point x="556" y="169"/>
      <point x="555" y="165"/>
      <point x="554" y="160" type="curve" smooth="yes"/>
      <point x="520" y="0" type="line"/>
      <point x="70" y="0" type="line" smooth="yes"/>
      <point x="54" y="0"/>
      <point x="47" y="5"/>
      <point x="47" y="17" type="curve" smooth="yes"/>
      <point x="47" y="32"/>
      <point x="59" y="41"/>
      <point x="79" y="41" type="curve" smooth="yes"/>
      <point x="133" y="41" type="line"/>
      <point x="235" y="522" type="line"/>
      <point x="181" y="522" type="line" smooth="yes"/>
      <point x="165" y="522"/>
      <point x="158" y="527"/>
      <point x="158" y="539" type="curve" smooth="yes"/>
      <point x="158" y="554"/>
      <point x="170" y="563"/>
      <point x="190" y="563" type="curve" smooth="yes"/>
      <point x="619" y="563" type="line"/>
      <point x="589" y="424" type="line" smooth="yes"/>
      <point x="586" y="406"/>
      <point x="577" y="397"/>
      <point x="563" y="397" type="curve" smooth="yes"/>
      <point x="554" y="397"/>
      <point x="547" y="404"/>
      <point x="547" y="412" type="curve" smooth="yes"/>
      <point x="548" y="424" type="line"/>
      <point x="569" y="522" type="line"/>
      <point x="276" y="522" type="line"/>
      <point x="232" y="313" type="line"/>
      <point x="377" y="313" type="line"/>
      <point x="386" y="358" type="line" smooth="yes"/>
      <point x="390" y="376"/>
      <point x="399" y="385"/>
      <point x="412" y="385" type="curve" smooth="yes"/>
      <point x="422" y="385"/>
      <point x="429" y="378"/>
      <point x="429" y="370" type="curve" smooth="yes"/>
      <point x="429" y="368"/>
      <point x="428" y="362"/>
      <point x="427" y="358" type="curve" smooth="yes"/>
      <point x="399" y="227" type="line" smooth="yes"/>
      <point x="396" y="209"/>
      <point x="387" y="200"/>
      <point x="373" y="200" type="curve" smooth="yes"/>
      <point x="364" y="200"/>
      <point x="357" y="207"/>
      <point x="357" y="215" type="curve" smooth="yes"/>
      <point x="358" y="227" type="line"/>
      <point x="368" y="272" type="line"/>
    </contour>
    <contour>
      <point x="342" y="762" type="curve" smooth="yes"/>
      <point x="365" y="762"/>
      <point x="382" y="745"/>
      <point x="382" y="721" type="curve" smooth="yes"/>
      <point x="382" y="691"/>
      <point x="351" y="661"/>
      <point x="320" y="661" type="curve" smooth="yes"/>
      <point x="299" y="661"/>
      <point x="281" y="680"/>
      <point x="281" y="702" type="curve" smooth="yes"/>
      <point x="281" y="731"/>
      <point x="312" y="762"/>
    </contour>
    <contour>
      <point x="563" y="762" type="curve" smooth="yes"/>
      <point x="586" y="762"/>
      <point x="603" y="745"/>
      <point x="603" y="721" type="curve" smooth="yes"/>
      <point x="603" y="690"/>
      <point x="573" y="661"/>
      <point x="541" y="661" type="curve" smooth="yes"/>
      <point x="520" y="661"/>
      <point x="502" y="680"/>
      <point x="502" y="702" type="curve" smooth="yes"/>
      <point x="502" y="731"/>
      <point x="533" y="762"/>
    </contour>
  </outline>
</glyph>
<glyph name="Igrave" format="1">
  <advance width="600"/>
  <unicode hex="00CC"/>
  <outline>
    <contour>
      <point x="431" y="522" type="line"/>
      <point x="329" y="41" type="line"/>
      <point x="468" y="41" type="line" smooth="yes"/>
      <point x="486" y="41"/>
      <point x="492" y="37"/>
      <point x="492" y="25" type="curve" smooth="yes"/>
      <point x="492" y="10"/>
      <point x="479" y="0"/>
      <point x="460" y="0" type="curve" smooth="yes"/>
      <point x="140" y="0" type="line" smooth="yes"/>
      <point x="124" y="0"/>
      <point x="117" y="5"/>
      <point x="117" y="16" type="curve" smooth="yes"/>
      <point x="117" y="32"/>
      <point x="129" y="41"/>
      <point x="148" y="41" type="curve" smooth="yes"/>
      <point x="288" y="41" type="line"/>
      <point x="390" y="522" type="line"/>
      <point x="251" y="522" type="line" smooth="yes"/>
      <point x="235" y="522"/>
      <point x="228" y="527"/>
      <point x="228" y="538" type="curve" smooth="yes"/>
      <point x="228" y="554"/>
      <point x="240" y="563"/>
      <point x="259" y="563" type="curve" smooth="yes"/>
      <point x="579" y="563" type="line" smooth="yes"/>
      <point x="597" y="563"/>
      <point x="603" y="559"/>
      <point x="603" y="547" type="curve" smooth="yes"/>
      <point x="603" y="532"/>
      <point x="590" y="522"/>
      <point x="571" y="522" type="curve" smooth="yes"/>
    </contour>
    <contour>
      <point x="398" y="780" type="curve" smooth="yes"/>
      <point x="490" y="680" type="line" smooth="yes"/>
      <point x="495" y="674"/>
      <point x="500" y="668"/>
      <point x="499" y="666" type="curve" smooth="yes"/>
      <point x="496" y="656"/>
      <point x="494" y="650"/>
      <point x="493" y="650" type="curve" smooth="yes"/>
      <point x="489" y="644"/>
      <point x="480" y="640"/>
      <point x="474" y="640" type="curve" smooth="yes"/>
      <point x="467" y="640"/>
      <point x="462" y="643"/>
      <point x="458" y="649" type="curve"/>
      <point x="365" y="749" type="line" smooth="yes"/>
      <point x="360" y="754"/>
      <point x="355" y="761"/>
      <point x="356" y="763" type="curve" smooth="yes"/>
      <point x="361" y="782"/>
      <point x="368" y="789"/>
      <point x="381" y="789" type="curve" smooth="yes"/>
      <point x="387" y="789"/>
      <point x="392" y="786"/>
    </contour>
  </outline>
</glyph>
<glyph name="Icircumflex" format="1">
  <advance width="600"/>
  <unicode hex="00CE"/>
  <outline>
    <contour>
      <point x="431" y="522" type="line"/>
      <point x="329" y="41" type="line"/>
      <point x="468" y="41" type="line" smooth="yes"/>
      <point x="486" y="41"/>
      <point x="492" y="37"/>
      <point x="492" y="25" type="curve" smooth="yes"/>
      <point x="492" y="10"/>
      <point x="479" y="0"/>
      <point x="460" y="0" type="curve" smooth="yes"/>
      <point x="140" y="0" type="line" smooth="yes"/>
      <point x="124" y="0"/>
      <point x="117" y="5"/>
      <point x="117" y="16" type="curve" smooth="yes"/>
      <point x="117" y="32"/>
      <point x="129" y="41"/>
      <point x="148" y="41" type="curve" smooth="yes"/>
      <point x="288" y="41" type="line"/>
      <point x="390" y="522" type="line"/>
      <point x="251" y="522" type="line" smooth="yes"/>
      <point x="235" y="522"/>
      <point x="228" y="527"/>
      <point x="228" y="538" type="curve" smooth="yes"/>
      <point x="228" y="554"/>
      <point x="240" y="563"/>
      <point x="259" y="563" type="curve" smooth="yes"/>
      <point x="579" y="563" type="line" smooth="yes"/>
      <point x="597" y="563"/>
      <point x="603" y="559"/>
      <point x="603" y="547" type="curve" smooth="yes"/>
      <point x="603" y="532"/>
      <point x="590" y="522"/>
      <point x="571" y="522" type="curve" smooth="yes"/>
    </contour>
    <contour>
      <point x="466" y="789" type="line"/>
      <point x="576" y="680" type="line" smooth="yes"/>
      <point x="585" y="672"/>
      <point x="586" y="670"/>
      <point x="586" y="664" type="curve" smooth="yes"/>
      <point x="586" y="652"/>
      <point x="573" y="640"/>
      <point x="559" y="640" type="curve" smooth="yes"/>
      <point x="555" y="640"/>
      <point x="551" y="642"/>
      <point x="545" y="648" type="curve" smooth="yes"/>
      <point x="456" y="739" type="line"/>
      <point x="331" y="648" type="line" smooth="yes"/>
      <point x="327" y="645"/>
      <point x="315" y="640"/>
      <point x="312" y="640" type="curve" smooth="yes"/>
      <point x="303" y="640"/>
      <point x="295" y="647"/>
      <point x="295" y="656" type="curve" smooth="yes"/>
      <point x="295" y="664"/>
      <point x="301" y="674"/>
      <point x="310" y="678" type="curve" smooth="yes"/>
      <point x="314" y="680" type="line"/>
    </contour>
  </outline>
</glyph>
<glyph name="Idieresis" format="1">
  <advance width="600"/>
  <unicode hex="00CF"/>
  <outline>
    <contour>
      <point x="431" y="522" type="line"/>
      <point x="329" y="41" type="line"/>
      <point x="468" y="41" type="line" smooth="yes"/>
      <point x="486" y="41"/>
      <point x="492" y="37"/>
      <point x="492" y="25" type="curve" smooth="yes"/>
      <point x="492" y="10"/>
      <point x="479" y="0"/>
      <point x="460" y="0" type="curve" smooth="yes"/>
      <point x="140" y="0" type="line" smooth="yes"/>
      <point x="124" y="0"/>
      <point x="117" y="5"/>
      <point x="117" y="16" type="curve" smooth="yes"/>
      <point x="117" y="32"/>
      <point x="129" y="41"/>
      <point x="148" y="41" type="curve" smooth="yes"/>
      <point x="288" y="41" type="line"/>
      <point x="390" y="522" type="line"/>
      <point x="251" y="522" type="line" smooth="yes"/>
      <point x="235" y="522"/>
      <point x="228" y="527"/>
      <point x="228" y="538" type="curve" smooth="yes"/>
      <point x="228" y="554"/>
      <point x="240" y="563"/>
      <point x="259" y="563" type="curve" smooth="yes"/>
      <point x="579" y="563" type="line" smooth="yes"/>
      <point x="597" y="563"/>
      <point x="603" y="559"/>
      <point x="603" y="547" type="curve" smooth="yes"/>
      <point x="603" y="532"/>
      <point x="590" y="522"/>
      <point x="571" y="522" type="curve" smooth="yes"/>
    </contour>
    <contour>
      <point x="350" y="762" type="curve" smooth="yes"/>
      <point x="373" y="762"/>
      <point x="390" y="745"/>
      <point x="390" y="721" type="curve" smooth="yes"/>
      <point x="390" y="691"/>
      <point x="359" y="661"/>
      <point x="328" y="661" type="curve" smooth="yes"/>
      <point x="307" y="661"/>
      <point x="289" y="680"/>
      <point x="289" y="702" type="curve" smooth="yes"/>
      <point x="289" y="731"/>
      <point x="320" y="762"/>
    </contour>
    <contour>
      <point x="571" y="762" type="curve" smooth="yes"/>
      <point x="594" y="762"/>
      <point x="611" y="745"/>
      <point x="611" y="721" type="curve" smooth="yes"/>
      <point x="611" y="690"/>
      <point x="581" y="661"/>
      <point x="549" y="661" type="curve" smooth="yes"/>
      <point x="528" y="661"/>
      <point x="510" y="680"/>
      <point x="510" y="702" type="curve" smooth="yes"/>
      <point x="510" y="731"/>
      <point x="541" y="762"/>
    </contour>
  </outline>
</glyph>
<glyph name="Eth" format="1">
  <advance width="600"/>
  <unicode hex="00D0"/>
  <outline>
    <contour>
      <point x="162" y="272" type="line"/>
      <point x="85" y="272" type="line" smooth="yes"/>
      <point x="69" y="272"/>
      <point x="62" y="277"/>
      <point x="62" y="288" type="curve" smooth="yes"/>
      <point x="62" y="304"/>
      <point x="74" y="313"/>
      <point x="94" y="313" type="curve" smooth="yes"/>
      <point x="171" y="313" type="line"/>
      <point x="215" y="522" type="line"/>
      <point x="181" y="522" type="line" smooth="yes"/>
      <point x="165" y="522"/>
      <point x="158" y="527"/>
      <point x="158" y="538" type="curve" smooth="yes"/>
      <point x="158" y="554"/>
      <point x="170" y="563"/>
      <point x="190" y="563" type="curve" smooth="yes"/>
      <point x="410" y="563" type="line" smooth="yes"/>
      <point x="516" y="563"/>
      <point x="592" y="481"/>
      <point x="592" y="366" type="curve" smooth="yes"/>
      <point x="592" y="347"/>
      <point x="590" y="329"/>
      <point x="586" y="310" type="curve" smooth="yes"/>
      <point x="574" y="254" type="line" smooth="yes"/>
      <point x="544" y="115"/>
      <point x="416" y="0"/>
      <point x="290" y="0" type="curve" smooth="yes"/>
      <point x="70" y="0" type="line" smooth="yes"/>
      <point x="54" y="0"/>
      <point x="47" y="5"/>
      <point x="47" y="16" type="curve" smooth="yes"/>
      <point x="47" y="32"/>
      <point x="59" y="41"/>
      <point x="79" y="41" type="curve" smooth="yes"/>
      <point x="113" y="41" type="line"/>
    </contour>
    <contour>
      <point x="256" y="522" type="line"/>
      <point x="212" y="313" type="line"/>
      <point x="374" y="313" type="line" smooth="yes"/>
      <point x="391" y="313"/>
      <point x="397" y="309"/>
      <point x="397" y="297" type="curve" smooth="yes"/>
      <point x="397" y="282"/>
      <point x="385" y="272"/>
      <point x="365" y="272" type="curve" smooth="yes"/>
      <point x="203" y="272" type="line"/>
      <point x="154" y="41" type="line"/>
      <point x="303" y="41" type="line" smooth="yes"/>
      <point x="398" y="41"/>
      <point x="509" y="140"/>
      <point x="531" y="245" type="curve" smooth="yes"/>
      <point x="547" y="319" type="line" smooth="yes"/>
      <point x="550" y="331"/>
      <point x="551" y="345"/>
      <point x="551" y="357" type="curve" smooth="yes"/>
      <point x="551" y="399"/>
      <point x="538" y="440"/>
      <point x="514" y="472" type="curve" smooth="yes"/>
      <point x="488" y="507"/>
      <point x="453" y="522"/>
      <point x="399" y="522" type="curve" smooth="yes"/>
    </contour>
  </outline>
</glyph>
<glyph name="Oslash" format="1">
  <advance width="600"/>
  <unicode hex="00D8"/>
  <outline>
    <contour>
      <point x="152" y="51" type="curve"/>
      <point x="69" y="-31" type="line" smooth="yes"/>
      <point x="60" y="-40"/>
      <point x="55" y="-43"/>
      <point x="48" y="-43" type="curve" smooth="yes"/>
      <point x="40" y="-43"/>
      <point x="34" y="-37"/>
      <point x="34" y="-29" type="curve" smooth="yes"/>
      <point x="34" y="-23"/>
      <point x="37" y="-18"/>
      <point x="46" y="-9" type="curve" smooth="yes"/>
      <point x="134" y="78" type="line"/>
      <point x="112" y="118"/>
      <point x="102" y="159"/>
      <point x="102" y="207" type="curve" smooth="yes"/>
      <point x="102" y="396"/>
      <point x="259" y="576"/>
      <point x="423" y="576" type="curve" smooth="yes"/>
      <point x="483" y="576"/>
      <point x="526" y="556"/>
      <point x="566" y="510" type="curve"/>
      <point x="650" y="593" type="line" smooth="yes"/>
      <point x="659" y="602"/>
      <point x="664" y="605"/>
      <point x="670" y="605" type="curve" smooth="yes"/>
      <point x="679" y="605"/>
      <point x="685" y="599"/>
      <point x="685" y="591" type="curve" smooth="yes"/>
      <point x="685" y="585"/>
      <point x="682" y="580"/>
      <point x="673" y="571" type="curve" smooth="yes"/>
      <point x="585" y="483" type="line"/>
      <point x="605" y="447"/>
      <point x="616" y="404"/>
      <point x="616" y="354" type="curve" smooth="yes"/>
      <point x="616" y="164"/>
      <point x="460" y="-16"/>
      <point x="296" y="-16" type="curve" smooth="yes"/>
      <point x="236" y="-16"/>
      <point x="187" y="7"/>
    </contour>
    <contour>
      <point x="167" y="112" type="curve"/>
      <point x="533" y="476" type="line"/>
      <point x="502" y="515"/>
      <point x="462" y="535"/>
      <point x="416" y="535" type="curve" smooth="yes"/>
      <point x="278" y="535"/>
      <point x="144" y="378"/>
      <point x="144" y="217" type="curve" smooth="yes"/>
      <point x="144" y="178"/>
      <point x="151" y="145"/>
    </contour>
    <contour>
      <point x="551" y="449" type="curve"/>
      <point x="185" y="84" type="line"/>
      <point x="215" y="46"/>
      <point x="256" y="25"/>
      <point x="302" y="25" type="curve" smooth="yes"/>
      <point x="441" y="25"/>
      <point x="574" y="181"/>
      <point x="574" y="344" type="curve" smooth="yes"/>
      <point x="574" y="383"/>
      <point x="566" y="418"/>
    </contour>
  </outline>
</glyph>
<glyph name="Ucircumflex" format="1">
  <advance width="600"/>
  <unicode hex="00DB"/>
  <outline>
    <contour>
      <point x="610" y="522" type="line"/>
      <point x="539" y="185" type="line" smooth="yes"/>
      <point x="515" y="72"/>
      <point x="409" y="-16"/>
      <point x="297" y="-16" type="curve" smooth="yes"/>
      <point x="201" y="-16"/>
      <point x="136" y="47"/>
      <point x="136" y="140" type="curve" smooth="yes"/>
      <point x="136" y="154"/>
      <point x="138" y="170"/>
      <point x="141" y="185" type="curve" smooth="yes"/>
      <point x="212" y="522" type="line"/>
      <point x="179" y="522" type="line" smooth="yes"/>
      <point x="162" y="522"/>
      <point x="155" y="527"/>
      <point x="155" y="538" type="curve" smooth="yes"/>
      <point x="155" y="554"/>
      <point x="167" y="563"/>
      <point x="187" y="563" type="curve" smooth="yes"/>
      <point x="337" y="563" type="line" smooth="yes"/>
      <point x="353" y="563"/>
      <point x="359" y="559"/>
      <point x="359" y="547" type="curve" smooth="yes"/>
      <point x="359" y="532"/>
      <point x="347" y="522"/>
      <point x="328" y="522" type="curve" smooth="yes"/>
      <point x="253" y="522" type="line"/>
      <point x="182" y="185" type="line" smooth="yes"/>
      <point x="179" y="173"/>
      <point x="178" y="161"/>
      <point x="178" y="151" type="curve" smooth="yes"/>
      <point x="178" y="76"/>
      <point x="230" y="25"/>
      <point x="305" y="25" type="curve" smooth="yes"/>
      <point x="394" y="25"/>
      <point x="479" y="95"/>
      <point x="498" y="185" type="curve" smooth="yes"/>
      <point x="569" y="522" type="line"/>
      <point x="495" y="522" type="line" smooth="yes"/>
      <point x="478" y="522"/>
      <point x="472" y="527"/>
      <point x="472" y="539" type="curve" smooth="yes"/>
      <point x="472" y="554"/>
      <point x="484" y="563"/>
      <point x="504" y="563" type="curve" smooth="yes"/>
      <point x="653" y="563" type="line" smooth="yes"/>
      <point x="670" y="563"/>
      <point x="676" y="559"/>
      <point x="676" y="547" type="curve" smooth="yes"/>
      <point x="676" y="532"/>
      <point x="664" y="522"/>
      <point x="644" y="522" type="curve" smooth="yes"/>
    </contour>
    <contour>
      <point x="466" y="789" type="line"/>
      <point x="576" y="680" type="line" smooth="yes"/>
      <point x="585" y="672"/>
      <point x="586" y="670"/>
      <point x="586" y="664" type="curve" smooth="yes"/>
      <point x="586" y="652"/>
      <point x="573" y="640"/>
      <point x="559" y="640" type="curve" smooth="yes"/>
      <point x="555" y="640"/>
      <point x="551" y="642"/>
      <point x="545" y="648" type="curve" smooth="yes"/>
      <point x="456" y="739" type="line"/>
      <point x="331" y="648" type="line" smooth="yes"/>
      <point x="327" y="645"/>
      <point x="315" y="640"/>
      <point x="312" y="640" type="curve" smooth="yes"/>
      <point x="303" y="640"/>
      <point x="295" y="647"/>
      <point x="295" y="656" type="curve" smooth="yes"/>
      <point x="295" y="664"/>
      <point x="301" y="674"/>
      <point x="310" y="678" type="curve" smooth="yes"/>
      <point x="314" y="680" type="line"/>
    </contour>
  </outline>
</glyph>
<glyph name="Udieresis" format="1">
  <advance width="600"/>
  <unicode hex="00DC"/>
  <outline>
    <contour>
      <point x="610" y="522" type="line"/>
      <point x="539" y="185" type="line" smooth="yes"/>
      <point x="515" y="72"/>
      <point x="409" y="-16"/>
      <point x="297" y="-16" type="curve" smooth="yes"/>
      <point x="201" y="-16"/>
      <point x="136" y="47"/>
      <point x="136" y="140" type="curve" smooth="yes"/>
      <point x="136" y="154"/>
      <point x="138" y="170"/>
      <point x="141" y="185" type="curve" smooth="yes"/>
      <point x="212" y="522" type="line"/>
      <point x="179" y="522" type="line" smooth="yes"/>
      <point x="162" y="522"/>
      <point x="155" y="527"/>
      <point x="155" y="538" type="curve" smooth="yes"/>
      <point x="155" y="554"/>
      <point x="167" y="563"/>
      <point x="187" y="563" type="curve" smooth="yes"/>
      <point x="337" y="563" type="line" smooth="yes"/>
      <point x="353" y="563"/>
      <point x="359" y="559"/>
      <point x="359" y="547" type="curve" smooth="yes"/>
      <point x="359" y="532"/>
      <point x="347" y="522"/>
      <point x="328" y="522" type="curve" smooth="yes"/>
      <point x="253" y="522" type="line"/>
      <point x="182" y="185" type="line" smooth="yes"/>
      <point x="179" y="173"/>
      <point x="178" y="161"/>
      <point x="178" y="151" type="curve" smooth="yes"/>
      <point x="178" y="76"/>
      <point x="230" y="25"/>
      <point x="305" y="25" type="curve" smooth="yes"/>
      <point x="394" y="25"/>
      <point x="479" y="95"/>
      <point x="498" y="185" type="curve" smooth="yes"/>
      <point x="569" y="522" type="line"/>
      <point x="495" y="522" type="line" smooth="yes"/>
      <point x="478" y="522"/>
      <point x="472" y="527"/>
      <point x="472" y="539" type="curve" smooth="yes"/>
      <point x="472" y="554"/>
      <point x="484" y="563"/>
      <point x="504" y="563" type="curve" smooth="yes"/>
      <point x="653" y="563" type="line" smooth="yes"/>
      <point x="670" y="563"/>
      <point x="676" y="559"/>
      <point x="676" y="547" type="curve" smooth="yes"/>
      <point x="676" y="532"/>
      <point x="664" y="522"/>
      <point x="644" y="522" type="curve" smooth="yes"/>
    </contour>
    <contour>
      <point x="350" y="762" type="curve" smooth="yes"/>
      <point x="373" y="762"/>
      <point x="390" y="745"/>
      <point x="390" y="721" type="curve" smooth="yes"/>
      <point x="390" y="691"/>
      <point x="359" y="661"/>
      <point x="328" y="661" type="curve" smooth="yes"/>
      <point x="307" y="661"/>
      <point x="289" y="680"/>
      <point x="289" y="702" type="curve" smooth="yes"/>
      <point x="289" y="731"/>
      <point x="320" y="762"/>
    </contour>
    <contour>
      <point x="571" y="762" type="curve" smooth="yes"/>
      <point x="594" y="762"/>
      <point x="611" y="745"/>
      <point x="611" y="721" type="curve" smooth="yes"/>
      <point x="611" y="690"/>
      <point x="581" y="661"/>
      <point x="549" y="661" type="curve" smooth="yes"/>
      <point x="528" y="661"/>
      <point x="510" y="680"/>
      <point x="510" y="702" type="curve" smooth="yes"/>
      <point x="510" y="731"/>
      <point x="541" y="762"/>
    </contour>
  </outline>
</glyph>
<glyph name="agrave" format="1">
  <advance width="600"/>
  <unicode hex="00E0"/>
  <outline>
    <contour>
      <point x="419" y="0" type="line"/>
      <point x="433" y="67" type="line"/>
      <point x="360" y="10"/>
      <point x="295" y="-16"/>
      <point x="225" y="-16" type="curve" smooth="yes"/>
      <point x="143" y="-16"/>
      <point x="93" y="23"/>
      <point x="93" y="87" type="curve" smooth="yes"/>
      <point x="93" y="184"/>
      <point x="200" y="258"/>
      <point x="338" y="258" type="curve" smooth="yes"/>
      <point x="384" y="258"/>
      <point x="414" y="253"/>
      <point x="470" y="237" type="curve"/>
      <point x="485" y="308" type="line" smooth="yes"/>
      <point x="486" y="313"/>
      <point x="486" y="316"/>
      <point x="486" y="322" type="curve" smooth="yes"/>
      <point x="486" y="363"/>
      <point x="444" y="390"/>
      <point x="379" y="390" type="curve" smooth="yes"/>
      <point x="345" y="390"/>
      <point x="304" y="382"/>
      <point x="231" y="360" type="curve" smooth="yes"/>
      <point x="226" y="359"/>
      <point x="223" y="358"/>
      <point x="220" y="358" type="curve" smooth="yes"/>
      <point x="212" y="358"/>
      <point x="205" y="365"/>
      <point x="205" y="374" type="curve" smooth="yes"/>
      <point x="205" y="384"/>
      <point x="211" y="392"/>
      <point x="223" y="397" type="curve" smooth="yes"/>
      <point x="259" y="412"/>
      <point x="353" y="431"/>
      <point x="391" y="431" type="curve" smooth="yes"/>
      <point x="472" y="431"/>
      <point x="528" y="390"/>
      <point x="528" y="331" type="curve" smooth="yes"/>
      <point x="528" y="322"/>
      <point x="527" y="316"/>
      <point x="526" y="308" type="curve" smooth="yes"/>
      <point x="469" y="41" type="line"/>
      <point x="523" y="41" type="line" smooth="yes"/>
      <point x="540" y="41"/>
      <point x="546" y="37"/>
      <point x="546" y="25" type="curve" smooth="yes"/>
      <point x="546" y="10"/>
      <point x="534" y="0"/>
      <point x="514" y="0" type="curve" smooth="yes"/>
    </contour>
    <contour>
      <point x="443" y="112" type="curve"/>
      <point x="462" y="202" type="line"/>
      <point x="427" y="211"/>
      <point x="382" y="217"/>
      <point x="337" y="217" type="curve" smooth="yes"/>
      <point x="222" y="217"/>
      <point x="135" y="165"/>
      <point x="135" y="96" type="curve" smooth="yes"/>
      <point x="135" y="51"/>
      <point x="170" y="25"/>
      <point x="231" y="25" type="curve" smooth="yes"/>
      <point x="304" y="25"/>
      <point x="361" y="49"/>
    </contour>
    <contour>
      <point x="347" y="630" type="curve" smooth="yes"/>
      <point x="439" y="530" type="line" smooth="yes"/>
      <point x="442" y="528"/>
      <point x="448" y="516"/>
      <point x="448" y="514" type="curve" smooth="yes"/>
      <point x="448" y="502"/>
      <point x="434" y="490"/>
      <point x="422" y="490" type="curve" smooth="yes"/>
      <point x="417" y="490"/>
      <point x="412" y="493"/>
      <point x="406" y="499" type="curve" smooth="yes"/>
      <point x="313" y="599" type="line" smooth="yes"/>
      <point x="308" y="605"/>
      <point x="305" y="610"/>
      <point x="305" y="614" type="curve" smooth="yes"/>
      <point x="305" y="627"/>
      <point x="317" y="639"/>
      <point x="331" y="639" type="curve" smooth="yes"/>
      <point x="336" y="639"/>
      <point x="340" y="637"/>
    </contour>
  </outline>
</glyph>
<glyph name="atilde" format="1">
  <advance width="600"/>
  <unicode hex="00E3"/>
  <outline>
    <contour>
      <point x="419" y="0" type="line"/>
      <point x="433" y="67" type="line"/>
      <point x="360" y="10"/>
      <point x="295" y="-16"/>
      <point x="225" y="-16" type="curve" smooth="yes"/>
      <point x="143" y="-16"/>
      <point x="93" y="23"/>
      <point x="93" y="87" type="curve" smooth="yes"/>
      <point x="93" y="184"/>
      <point x="200" y="258"/>
      <point x="338" y="258" type="curve" smooth="yes"/>
      <point x="384" y="258"/>
      <point x="414" y="253"/>
      <point x="470" y="237" type="curve"/>
      <point x="485" y="308" type="line" smooth="yes"/>
      <point x="486" y="313"/>
      <point x="486" y="316"/>
      <point x="486" y="322" type="curve" smooth="yes"/>
      <point x="486" y="363"/>
      <point x="444" y="390"/>
      <point x="379" y="390" type="curve" smooth="yes"/>
      <point x="345" y="390"/>
      <point x="304" y="382"/>
      <point x="231" y="360" type="curve" smooth="yes"/>
      <point x="226" y="359"/>
      <point x="223" y="358"/>
      <point x="220" y="358" type="curve" smooth="yes"/>
      <point x="212" y="358"/>
      <point x="205" y="365"/>
      <point x="205" y="374" type="curve" smooth="yes"/>
      <point x="205" y="384"/>
      <point x="211" y="392"/>
      <point x="223" y="397" type="curve" smooth="yes"/>
      <point x="259" y="412"/>
      <point x="353" y="431"/>
      <point x="391" y="431" type="curve" smooth="yes"/>
      <point x="472" y="431"/>
      <point x="528" y="390"/>
      <point x="528" y="331" type="curve" smooth="yes"/>
      <point x="528" y="322"/>
      <point x="527" y="316"/>
      <point x="526" y="308" type="curve" smooth="yes"/>
      <point x="469" y="41" type="line"/>
      <point x="523" y="41" type="line" smooth="yes"/>
      <point x="540" y="41"/>
      <point x="546" y="37"/>
      <point x="546" y="25" type="curve" smooth="yes"/>
      <point x="546" y="10"/>
      <point x="534" y="0"/>
      <point x="514" y="0" type="curve" smooth="yes"/>
    </contour>
    <contour>
      <point x="443" y="112" type="curve"/>
      <point x="462" y="202" type="line"/>
      <point x="427" y="211"/>
      <point x="382" y="217"/>
      <point x="337" y="217" type="curve" smooth="yes"/>
      <point x="222" y="217"/>
      <point x="135" y="165"/>
      <point x="135" y="96" type="curve" smooth="yes"/>
      <point x="135" y="51"/>
      <point x="170" y="25"/>
      <point x="231" y="25" type="curve" smooth="yes"/>
      <point x="304" y="25"/>
      <point x="361" y="49"/>
    </contour>
    <contour>
      <point x="553" y="603" type="curve" smooth="yes"/>
      <point x="562" y="603"/>
      <point x="570" y="596"/>
      <point x="570" y="587" type="curve" smooth="yes"/>
      <point x="570" y="578"/>
      <point x="566" y="573"/>
      <point x="548" y="558" type="curve" smooth="yes"/>
      <point x="513" y="528"/>
      <point x="489" y="516"/>
      <point x="464" y="516" type="curve" smooth="yes"/>
      <point x="442" y="516"/>
      <point x="425" y="523"/>
      <point x="390" y="547" type="curve" smooth="yes"/>
      <point x="373" y="559"/>
      <point x="362" y="564"/>
      <point x="350" y="564" type="curve" smooth="yes"/>
      <point x="330" y="564"/>
      <point x="319" y="558"/>
      <point x="284" y="527" type="curve" smooth="yes"/>
      <point x="279" y="522"/>
      <point x="271" y="519"/>
      <point x="265" y="519" type="curve" smooth="yes"/>
      <point x="256" y="519"/>
      <point x="249" y="525"/>
      <point x="249" y="534" type="curve" smooth="yes"/>
      <point x="249" y="543"/>
      <point x="257" y="553"/>
      <point x="275" y="568" type="curve" smooth="yes"/>
      <point x="309" y="594"/>
      <point x="333" y="605"/>
      <point x="357" y="605" type="curve" smooth="yes"/>
      <point x="377" y="605"/>
      <point x="389" y="600"/>
      <point x="417" y="582" type="curve" smooth="yes"/>
      <point x="449" y="561"/>
      <point x="458" y="557"/>
      <point x="471" y="557" type="curve" smooth="yes"/>
      <point x="487" y="557"/>
      <point x="499" y="564"/>
      <point x="536" y="595" type="curve" smooth="yes"/>
      <point x="543" y="601"/>
      <point x="548" y="603"/>
    </contour>
  </outline>
</glyph>
<glyph name="ccedilla" format="1">
  <advance width="600"/>
  <unicode hex="00E7"/>
  <outline>
    <contour>
      <point x="311" y="-16" type="curve"/>
      <point x="305" y="-47" type="line"/>
      <point x="340" y="-48"/>
      <point x="359" y="-63"/>
      <point x="359" y="-93" type="curve" smooth="yes"/>
      <point x="359" y="-138"/>
      <point x="318" y="-173"/>
      <point x="265" y="-173" type="curve" smooth="yes"/>
      <point x="228" y="-173"/>
      <point x="184" y="-154"/>
      <point x="184" y="-138" type="curve" smooth="yes"/>
      <point x="184" y="-125"/>
      <point x="196" y="-114"/>
      <point x="208" y="-114" type="curve" smooth="yes"/>
      <point x="213" y="-114"/>
      <point x="216" y="-115"/>
      <point x="223" y="-119" type="curve" smooth="yes"/>
      <point x="243" y="-131"/>
      <point x="256" y="-135"/>
      <point x="271" y="-135" type="curve" smooth="yes"/>
      <point x="300" y="-135"/>
      <point x="322" y="-121"/>
      <point x="322" y="-101" type="curve" smooth="yes"/>
      <point x="322" y="-88"/>
      <point x="308" y="-81"/>
      <point x="280" y="-81" type="curve" smooth="yes"/>
      <point x="260" y="-81" type="line"/>
      <point x="274" y="-14" type="line"/>
      <point x="242" y="-9"/>
      <point x="228" y="-5"/>
      <point x="209" y="4" type="curve" smooth="yes"/>
      <point x="155" y="29"/>
      <point x="122" y="87"/>
      <point x="122" y="154" type="curve" smooth="yes"/>
      <point x="122" y="303"/>
      <point x="253" y="431"/>
      <point x="406" y="431" type="curve" smooth="yes"/>
      <point x="468" y="431"/>
      <point x="516" y="412"/>
      <point x="551" y="376" type="curve"/>
      <point x="554" y="389" type="line"/>
      <point x="557" y="408"/>
      <point x="566" y="417"/>
      <point x="580" y="417" type="curve" smooth="yes"/>
      <point x="589" y="417"/>
      <point x="596" y="410"/>
      <point x="596" y="402" type="curve" smooth="yes"/>
      <point x="596" y="399"/>
      <point x="595" y="395"/>
      <point x="594" y="389" type="curve" smooth="yes"/>
      <point x="575" y="298" type="line" smooth="yes"/>
      <point x="571" y="280"/>
      <point x="562" y="270"/>
      <point x="549" y="270" type="curve" smooth="yes"/>
      <point x="542" y="270"/>
      <point x="537" y="273"/>
      <point x="532" y="282" type="curve"/>
      <point x="535" y="318" type="line" smooth="yes"/>
      <point x="535" y="323"/>
      <point x="510" y="353"/>
      <point x="498" y="362" type="curve" smooth="yes"/>
      <point x="477" y="379"/>
      <point x="434" y="391"/>
      <point x="393" y="391" type="curve" smooth="yes"/>
      <point x="323" y="391"/>
      <point x="259" y="360"/>
      <point x="217" y="306" type="curve" smooth="yes"/>
      <point x="184" y="264"/>
      <point x="164" y="209"/>
      <point x="164" y="162" type="curve" smooth="yes"/>
      <point x="164" y="81"/>
      <point x="226" y="24"/>
      <point x="313" y="24" type="curve" smooth="yes"/>
      <point x="388" y="24"/>
      <point x="460" y="50"/>
      <point x="519" y="97" type="curve" smooth="yes"/>
      <point x="527" y="104"/>
      <point x="534" y="108"/>
      <point x="539" y="108" type="curve" smooth="yes"/>
      <point x="546" y="108"/>
      <point x="555" y="99"/>
      <point x="555" y="91" type="curve" smooth="yes"/>
      <point x="555" y="75"/>
      <point x="515" y="43"/>
      <point x="463" y="19" type="curve" smooth="yes"/>
      <point x="417" y="-3"/>
      <point x="370" y="-13"/>
    </contour>
  </outline>
</glyph>
<glyph name="igrave" format="1">
  <advance width="600"/>
  <unicode hex="00EC"/>
  <outline>
    <contour>
      <point x="409" y="417" type="line"/>
      <point x="329" y="41" type="line"/>
      <point x="489" y="41" type="line" smooth="yes"/>
      <point x="506" y="41"/>
      <point x="513" y="36"/>
      <point x="513" y="25" type="curve" smooth="yes"/>
      <point x="513" y="10"/>
      <point x="500" y="0"/>
      <point x="481" y="0" type="curve" smooth="yes"/>
      <point x="119" y="0" type="line" smooth="yes"/>
      <point x="103" y="0"/>
      <point x="96" y="5"/>
      <point x="96" y="16" type="curve" smooth="yes"/>
      <point x="96" y="32"/>
      <point x="108" y="41"/>
      <point x="127" y="41" type="curve" smooth="yes"/>
      <point x="288" y="41" type="line"/>
      <point x="359" y="376" type="line"/>
      <point x="241" y="376" type="line" smooth="yes"/>
      <point x="225" y="376"/>
      <point x="218" y="381"/>
      <point x="218" y="393" type="curve" smooth="yes"/>
      <point x="218" y="408"/>
      <point x="230" y="417"/>
      <point x="250" y="417" type="curve" smooth="yes"/>
    </contour>
    <contour>
      <point x="351" y="630" type="curve" smooth="yes"/>
      <point x="443" y="530" type="line" smooth="yes"/>
      <point x="446" y="528"/>
      <point x="452" y="516"/>
      <point x="452" y="514" type="curve" smooth="yes"/>
      <point x="452" y="502"/>
      <point x="438" y="490"/>
      <point x="426" y="490" type="curve" smooth="yes"/>
      <point x="421" y="490"/>
      <point x="416" y="493"/>
      <point x="410" y="499" type="curve" smooth="yes"/>
      <point x="317" y="599" type="line" smooth="yes"/>
      <point x="312" y="605"/>
      <point x="309" y="610"/>
      <point x="309" y="614" type="curve" smooth="yes"/>
      <point x="309" y="627"/>
      <point x="321" y="639"/>
      <point x="335" y="639" type="curve" smooth="yes"/>
      <point x="340" y="639"/>
      <point x="344" y="637"/>
    </contour>
  </outline>
</glyph>
<glyph name="iacute" format="1">
  <advance width="600"/>
  <unicode hex="00ED"/>
  <outline>
    <contour>
      <point x="409" y="417" type="line"/>
      <point x="329" y="41" type="line"/>
      <point x="489" y="41" type="line" smooth="yes"/>
      <point x="506" y="41"/>
      <point x="513" y="36"/>
      <point x="513" y="25" type="curve" smooth="yes"/>
      <point x="513" y="10"/>
      <point x="500" y="0"/>
      <point x="481" y="0" type="curve" smooth="yes"/>
      <point x="119" y="0" type="line" smooth="yes"/>
      <point x="103" y="0"/>
      <point x="96" y="5"/>
      <point x="96" y="16" type="curve" smooth="yes"/>
      <point x="96" y="32"/>
      <point x="108" y="41"/>
      <point x="127" y="41" type="curve" smooth="yes"/>
      <point x="288" y="41" type="line"/>
      <point x="359" y="376" type="line"/>
      <point x="241" y="376" type="line" smooth="yes"/>
      <point x="225" y="376"/>
      <point x="218" y="381"/>
      <point x="218" y="393" type="curve" smooth="yes"/>
      <point x="218" y="408"/>
      <point x="230" y="417"/>
      <point x="250" y="417" type="curve" smooth="yes"/>
    </contour>
    <contour>
      <point x="518" y="599" type="curve" smooth="yes"/>
      <point x="383" y="499" type="line" smooth="yes"/>
      <point x="374" y="493"/>
      <point x="368" y="490"/>
      <point x="363" y="490" type="curve" smooth="yes"/>
      <point x="353" y="490"/>
      <point x="346" y="497"/>
      <point x="346" y="506" type="curve" smooth="yes"/>
      <point x="346" y="515"/>
      <point x="350" y="520"/>
      <point x="363" y="530" type="curve" smooth="yes"/>
      <point x="498" y="630" type="line" smooth="yes"/>
      <point x="508" y="637"/>
      <point x="513" y="639"/>
      <point x="519" y="639" type="curve" smooth="yes"/>
      <point x="528" y="639"/>
      <point x="535" y="632"/>
      <point x="535" y="623" type="curve" smooth="yes"/>
      <point x="535" y="614"/>
      <point x="531" y="608"/>
    </contour>
  </outline>
</glyph>
<glyph name="ntilde" format="1">
  <advance width="600"/>
  <unicode hex="00F1"/>
  <outline>
    <contour>
      <point x="256" y="417" type="line"/>
      <point x="241" y="348" type="line"/>
      <point x="313" y="412"/>
      <point x="353" y="431"/>
      <point x="414" y="431" type="curve" smooth="yes"/>
      <point x="493" y="431"/>
      <point x="545" y="387"/>
      <point x="545" y="319" type="curve" smooth="yes"/>
      <point x="545" y="309"/>
      <point x="544" y="303"/>
      <point x="543" y="295" type="curve" smooth="yes"/>
      <point x="489" y="41" type="line"/>
      <point x="523" y="41" type="line" smooth="yes"/>
      <point x="540" y="41"/>
      <point x="546" y="37"/>
      <point x="546" y="25" type="curve" smooth="yes"/>
      <point x="546" y="10"/>
      <point x="533" y="0"/>
      <point x="514" y="0" type="curve" smooth="yes"/>
      <point x="405" y="0" type="line" smooth="yes"/>
      <point x="389" y="0"/>
      <point x="382" y="5"/>
      <point x="382" y="16" type="curve" smooth="yes"/>
      <point x="382" y="32"/>
      <point x="394" y="41"/>
      <point x="414" y="41" type="curve" smooth="yes"/>
      <point x="448" y="41" type="line"/>
      <point x="500" y="288" type="line" smooth="yes"/>
      <point x="502" y="295"/>
      <point x="502" y="298"/>
      <point x="502" y="308" type="curve" smooth="yes"/>
      <point x="502" y="329"/>
      <point x="493" y="349"/>
      <point x="478" y="364" type="curve" smooth="yes"/>
      <point x="458" y="384"/>
      <point x="440" y="390"/>
      <point x="403" y="390" type="curve" smooth="yes"/>
      <point x="339" y="390"/>
      <point x="309" y="373"/>
      <point x="230" y="294" type="curve"/>
      <point x="176" y="41" type="line"/>
      <point x="221" y="41" type="line" smooth="yes"/>
      <point x="238" y="41"/>
      <point x="244" y="37"/>
      <point x="244" y="25" type="curve" smooth="yes"/>
      <point x="244" y="10"/>
      <point x="232" y="0"/>
      <point x="212" y="0" type="curve" smooth="yes"/>
      <point x="81" y="0" type="line" smooth="yes"/>
      <point x="64" y="0"/>
      <point x="57" y="5"/>
      <point x="57" y="16" type="curve" smooth="yes"/>
      <point x="57" y="32"/>
      <point x="69" y="41"/>
      <point x="89" y="41" type="curve" smooth="yes"/>
      <point x="135" y="41" type="line"/>
      <point x="206" y="376" type="line"/>
      <point x="172" y="376" type="line" smooth="yes"/>
      <point x="156" y="376"/>
      <point x="149" y="381"/>
      <point x="149" y="392" type="curve" smooth="yes"/>
      <point x="149" y="408"/>
      <point x="161" y="417"/>
      <point x="181" y="417" type="curve" smooth="yes"/>
    </contour>
    <contour>
      <point x="553" y="603" type="curve" smooth="yes"/>
      <point x="562" y="603"/>
      <point x="570" y="596"/>
      <point x="570" y="587" type="curve" smooth="yes"/>
      <point x="570" y="578"/>
      <point x="566" y="573"/>
      <point x="548" y="558" type="curve" smooth="yes"/>
      <point x="513" y="528"/>
      <point x="489" y="516"/>
      <point x="464" y="516" type="curve" smooth="yes"/>
      <point x="442" y="516"/>
      <point x="425" y="523"/>
      <point x="390" y="547" type="curve" smooth="yes"/>
      <point x="373" y="559"/>
      <point x="362" y="564"/>
      <point x="350" y="564" type="curve" smooth="yes"/>
      <point x="330" y="564"/>
      <point x="319" y="558"/>
      <point x="284" y="527" type="curve" smooth="yes"/>
      <point x="279" y="522"/>
      <point x="271" y="519"/>
      <point x="265" y="519" type="curve" smooth="yes"/>
      <point x="256" y="519"/>
      <point x="249" y="525"/>
      <point x="249" y="534" type="curve" smooth="yes"/>
      <point x="249" y="543"/>
      <point x="257" y="553"/>
      <point x="275" y="568" type="curve" smooth="yes"/>
      <point x="309" y="594"/>
      <point x="333" y="605"/>
      <point x="357" y="605" type="curve" smooth="yes"/>
      <point x="377" y="605"/>
      <point x="389" y="600"/>
      <point x="417" y="582" type="curve" smooth="yes"/>
      <point x="449" y="561"/>
      <point x="458" y="557"/>
      <point x="471" y="557" type="curve" smooth="yes"/>
      <point x="487" y="557"/>
      <point x="499" y="564"/>
      <point x="536" y="595" type="curve" smooth="yes"/>
      <point x="543" y="601"/>
      <point x="548" y="603"/>
    </contour>
  </outline>
</glyph>
<glyph name="ograve" format="1">
  <advance width="600"/>
  <unicode hex="00F2"/>
  <outline>
    <contour>
      <point x="391" y="431" type="curve" smooth="yes"/>
      <point x="501" y="431"/>
      <point x="577" y="358"/>
      <point x="577" y="252" type="curve" smooth="yes"/>
      <point x="577" y="113"/>
      <point x="441" y="-16"/>
      <point x="296" y="-16" type="curve" smooth="yes"/>
      <point x="187" y="-16"/>
      <point x="111" y="58"/>
      <point x="111" y="162" type="curve" smooth="yes"/>
      <point x="111" y="301"/>
      <point x="247" y="431"/>
    </contour>
    <contour>
      <point x="382" y="390" type="curve" smooth="yes"/>
      <point x="264" y="390"/>
      <point x="153" y="284"/>
      <point x="153" y="171" type="curve" smooth="yes"/>
      <point x="153" y="85"/>
      <point x="216" y="25"/>
      <point x="305" y="25" type="curve" smooth="yes"/>
      <point x="424" y="25"/>
      <point x="535" y="130"/>
      <point x="535" y="244" type="curve" smooth="yes"/>
      <point x="535" y="331"/>
      <point x="473" y="390"/>
    </contour>
    <contour>
      <point x="364" y="630" type="curve" smooth="yes"/>
      <point x="456" y="530" type="line" smooth="yes"/>
      <point x="459" y="528"/>
      <point x="465" y="516"/>
      <point x="465" y="514" type="curve" smooth="yes"/>
      <point x="465" y="502"/>
      <point x="451" y="490"/>
      <point x="439" y="490" type="curve" smooth="yes"/>
      <point x="434" y="490"/>
      <point x="429" y="493"/>
      <point x="423" y="499" type="curve" smooth="yes"/>
      <point x="330" y="599" type="line" smooth="yes"/>
      <point x="325" y="605"/>
      <point x="322" y="610"/>
      <point x="322" y="614" type="curve" smooth="yes"/>
      <point x="322" y="627"/>
      <point x="334" y="639"/>
      <point x="348" y="639" type="curve" smooth="yes"/>
      <point x="353" y="639"/>
      <point x="357" y="637"/>
    </contour>
  </outline>
</glyph>
<glyph name="ocircumflex" format="1">
  <advance width="600"/>
  <unicode hex="00F4"/>
  <outline>
    <contour>
      <point x="391" y="431" type="curve" smooth="yes"/>
      <point x="501" y="431"/>
      <point x="577" y="358"/>
      <point x="577" y="252" type="curve" smooth="yes"/>
      <point x="577" y="113"/>
      <point x="441" y="-16"/>
      <point x="296" y="-16" type="curve" smooth="yes"/>
      <point x="187" y="-16"/>
      <point x="111" y="58"/>
      <point x="111" y="162" type="curve" smooth="yes"/>
      <point x="111" y="301"/>
      <point x="247" y="431"/>
    </contour>
    <contour>
      <point x="382" y="390" type="curve" smooth="yes"/>
      <point x="264" y="390"/>
      <point x="153" y="284"/>
      <point x="153" y="171" type="curve" smooth="yes"/>
      <point x="153" y="85"/>
      <point x="216" y="25"/>
      <point x="305" y="25" type="curve" smooth="yes"/>
      <point x="424" y="25"/>
      <point x="535" y="130"/>
      <point x="535" y="244" type="curve" smooth="yes"/>
      <point x="535" y="331"/>
      <point x="473" y="390"/>
    </contour>
    <contour>
      <point x="436" y="639" type="line"/>
      <point x="545" y="531" type="line" smooth="yes"/>
      <point x="552" y="523"/>
      <point x="554" y="520"/>
      <point x="554" y="515" type="curve" smooth="yes"/>
      <point x="554" y="502"/>
      <point x="542" y="490"/>
      <point x="529" y="490" type="curve" smooth="yes"/>
      <point x="524" y="490"/>
      <point x="519" y="493"/>
      <point x="513" y="498" type="curve" smooth="yes"/>
      <point x="425" y="586" type="line"/>
      <point x="298" y="498" type="line" smooth="yes"/>
      <point x="291" y="493"/>
      <point x="284" y="490"/>
      <point x="279" y="490" type="curve" smooth="yes"/>
      <point x="270" y="490"/>
      <point x="263" y="497"/>
      <point x="263" y="506" type="curve" smooth="yes"/>
      <point x="263" y="514"/>
      <point x="268" y="522"/>
      <point x="277" y="528" type="curve"/>
      <point x="281" y="530" type="line"/>
    </contour>
  </outline>
</glyph>
<glyph name="thorn" format="1">
  <advance width="600"/>
  <unicode hex="00FE"/>
  <outline>
    <contour>
      <point x="270" y="590" type="line"/>
      <point x="216" y="335" type="line"/>
      <point x="283" y="404"/>
      <point x="339" y="431"/>
      <point x="415" y="431" type="curve" smooth="yes"/>
      <point x="523" y="431"/>
      <point x="593" y="365"/>
      <point x="593" y="264" type="curve" smooth="yes"/>
      <point x="593" y="131"/>
      <point x="466" y="10"/>
      <point x="326" y="10" type="curve" smooth="yes"/>
      <point x="249" y="10"/>
      <point x="199" y="40"/>
      <point x="167" y="106" type="curve"/>
      <point x="114" y="-145" type="line"/>
      <point x="211" y="-145" type="line" smooth="yes"/>
      <point x="229" y="-145"/>
      <point x="235" y="-149"/>
      <point x="235" y="-161" type="curve" smooth="yes"/>
      <point x="235" y="-177"/>
      <point x="223" y="-186"/>
      <point x="203" y="-186" type="curve" smooth="yes"/>
      <point x="10" y="-186" type="line" smooth="yes"/>
      <point x="-6" y="-186"/>
      <point x="-13" y="-181"/>
      <point x="-13" y="-170" type="curve" smooth="yes"/>
      <point x="-13" y="-154"/>
      <point x="-1" y="-145"/>
      <point x="19" y="-145" type="curve" smooth="yes"/>
      <point x="73" y="-145" type="line"/>
      <point x="220" y="549" type="line"/>
      <point x="166" y="549" type="line" smooth="yes"/>
      <point x="150" y="549"/>
      <point x="143" y="554"/>
      <point x="143" y="565" type="curve" smooth="yes"/>
      <point x="143" y="581"/>
      <point x="155" y="590"/>
      <point x="175" y="590" type="curve" smooth="yes"/>
    </contour>
    <contour>
      <point x="405" y="390" type="curve" smooth="yes"/>
      <point x="292" y="390"/>
      <point x="188" y="292"/>
      <point x="188" y="187" type="curve" smooth="yes"/>
      <point x="188" y="107"/>
      <point x="248" y="51"/>
      <point x="333" y="51" type="curve" smooth="yes"/>
      <point x="447" y="51"/>
      <point x="551" y="149"/>
      <point x="551" y="255" type="curve" smooth="yes"/>
      <point x="551" y="335"/>
      <point x="491" y="390"/>
    </contour>
  </outline>
</glyph>
<glyph name="Ccircumflex" format="1">
  <advance width="600"/>
  <unicode hex="0108"/>
  <outline>
    <contour>
      <point x="459" y="753" type="line"/>
      <point x="568" y="645" type="line"/>
      <point x="575" y="636"/>
      <point x="576" y="632"/>
      <point x="576" y="628" type="curve" smooth="yes"/>
      <point x="576" y="615"/>
      <point x="565" y="603"/>
      <point x="552" y="603" type="curve" smooth="yes"/>
      <point x="547" y="603"/>
      <point x="542" y="606"/>
      <point x="536" y="611" type="curve" smooth="yes"/>
      <point x="448" y="699" type="line"/>
      <point x="322" y="611" type="line" smooth="yes"/>
      <point x="314" y="606"/>
      <point x="307" y="603"/>
      <point x="302" y="603" type="curve" smooth="yes"/>
      <point x="292" y="603"/>
      <point x="286" y="611"/>
      <point x="286" y="619" type="curve" smooth="yes"/>
      <point x="286" y="628"/>
      <point x="291" y="635"/>
      <point x="300" y="641" type="curve"/>
      <point x="305" y="643" type="line"/>
    </contour>
    <contour>
      <point x="586" y="507" type="curve"/>
      <point x="592" y="536" type="line" smooth="yes"/>
      <point x="596" y="553"/>
      <point x="606" y="563"/>
      <point x="618" y="563" type="curve" smooth="yes"/>
      <point x="627" y="563"/>
      <point x="635" y="557"/>
      <point x="635" y="549" type="curve" smooth="yes"/>
      <point x="635" y="546"/>
      <point x="633" y="541"/>
      <point x="633" y="536" type="curve"/>
      <point x="609" y="424" type="line" smooth="yes"/>
      <point x="606" y="407"/>
      <point x="596" y="396"/>
      <point x="583" y="396" type="curve" smooth="yes"/>
      <point x="576" y="396"/>
      <point x="572" y="399"/>
      <point x="566" y="408" type="curve"/>
      <point x="570" y="447" type="line" smooth="yes"/>
      <point x="570" y="449"/>
      <point x="546" y="485"/>
      <point x="538" y="494" type="curve" smooth="yes"/>
      <point x="515" y="518"/>
      <point x="464" y="536"/>
      <point x="419" y="536" type="curve" smooth="yes"/>
      <point x="309" y="536"/>
      <point x="197" y="438"/>
      <point x="172" y="319" type="curve" smooth="yes"/>
      <point x="157" y="248" type="line" smooth="yes"/>
      <point x="154" y="233"/>
      <point x="152" y="217"/>
      <point x="152" y="203" type="curve" smooth="yes"/>
      <point x="152" y="101"/>
      <point x="227" y="25"/>
      <point x="328" y="25" type="curve" smooth="yes"/>
      <point x="397" y="25"/>
      <point x="454" y="51"/>
      <point x="522" y="115" type="curve" smooth="yes"/>
      <point x="530" y="123"/>
      <point x="534" y="125"/>
      <point x="542" y="125" type="curve" smooth="yes"/>
      <point x="552" y="125"/>
      <point x="558" y="119"/>
      <point x="558" y="110" type="curve" smooth="yes"/>
      <point x="558" y="100"/>
      <point x="551" y="91"/>
      <point x="524" y="67" type="curve"/>
      <point x="461" y="15"/>
      <point x="390" y="-16"/>
      <point x="319" y="-16" type="curve" smooth="yes"/>
      <point x="201" y="-16"/>
      <point x="110" y="76"/>
      <point x="110" y="197" type="curve" smooth="yes"/>
      <point x="110" y="212"/>
      <point x="112" y="227"/>
      <point x="115" y="242" type="curve" smooth="yes"/>
      <point x="132" y="325" type="line" smooth="yes"/>
      <point x="144" y="386"/>
      <point x="188" y="455"/>
      <point x="242" y="502" type="curve" smooth="yes"/>
      <point x="296" y="550"/>
      <point x="360" y="576"/>
      <point x="428" y="576" type="curve" smooth="yes"/>
      <point x="494" y="576"/>
      <point x="549" y="552"/>
    </contour>
  </outline>
</glyph>
<glyph name="dcaron" format="1">
  <advance width="600"/>
  <unicode hex="010F"/>
  <outline>
    <contour>
      <point x="630" y="604" type="line"/>
      <point x="510" y="41" type="line"/>
      <point x="565" y="41" type="line" smooth="yes"/>
      <point x="581" y="41"/>
      <point x="587" y="37"/>
      <point x="587" y="25" type="curve" smooth="yes"/>
      <point x="587" y="10"/>
      <point x="575" y="0"/>
      <point x="556" y="0" type="curve" smooth="yes"/>
      <point x="461" y="0" type="line"/>
      <point x="480" y="89" type="line"/>
      <point x="417" y="18"/>
      <point x="350" y="-16"/>
      <point x="274" y="-16" type="curve" smooth="yes"/>
      <point x="176" y="-16"/>
      <point x="102" y="58"/>
      <point x="102" y="157" type="curve" smooth="yes"/>
      <point x="102" y="299"/>
      <point x="232" y="431"/>
      <point x="371" y="431" type="curve" smooth="yes"/>
      <point x="446" y="431"/>
      <point x="496" y="398"/>
      <point x="530" y="327" type="curve"/>
      <point x="580" y="563" type="line"/>
      <point x="526" y="563" type="line" smooth="yes"/>
      <point x="509" y="563"/>
      <point x="503" y="567"/>
      <point x="503" y="580" type="curve" smooth="yes"/>
      <point x="503" y="595"/>
      <point x="515" y="604"/>
      <point x="535" y="604" type="curve" smooth="yes"/>
    </contour>
    <contour>
      <point x="365" y="390" type="curve" smooth="yes"/>
      <point x="251" y="390"/>
      <point x="144" y="284"/>
      <point x="144" y="169" type="curve" smooth="yes"/>
      <point x="144" y="84"/>
      <point x="203" y="25"/>
      <point x="287" y="25" type="curve" smooth="yes"/>
      <point x="403" y="25"/>
      <point x="509" y="132"/>
      <point x="509" y="248" type="curve" smooth="yes"/>
      <point x="509" y="331"/>
      <point x="450" y="390"/>
    </contour>
    <contour>
      <point x="762" y="580" type="curve" smooth="yes"/>
      <point x="652" y="455" type="line" smooth="yes"/>
      <point x="644" y="445"/>
      <point x="635" y="440"/>
      <point x="627" y="440" type="curve" smooth="yes"/>
      <point x="619" y="440"/>
      <point x="611" y="448"/>
      <point x="611" y="455" type="curve" smooth="yes"/>
      <point x="611" y="461"/>
      <point x="615" y="469"/>
      <point x="622" y="477" type="curve" smooth="yes"/>
      <point x="733" y="603" type="line" smooth="yes"/>
      <point x="742" y="614"/>
      <point x="749" y="618"/>
      <point x="758" y="618" type="curve" smooth="yes"/>
      <point x="766" y="618"/>
      <point x="774" y="611"/>
      <point x="774" y="603" type="curve" smooth="yes"/>
      <point x="774" y="596"/>
      <point x="771" y="590"/>
    </contour>
  </outline>
</glyph>
<glyph name="dcroat" format="1">
  <advance width="600"/>
  <unicode hex="0111"/>
  <outline>
    <contour>
      <point x="612" y="520" type="line"/>
      <point x="666" y="520" type="line" smooth="yes"/>
      <point x="684" y="520"/>
      <point x="690" y="516"/>
      <point x="690" y="504" type="curve" smooth="yes"/>
      <point x="690" y="487"/>
      <point x="680" y="479"/>
      <point x="657" y="479" type="curve" smooth="yes"/>
      <point x="603" y="479" type="line"/>
      <point x="510" y="41" type="line"/>
      <point x="565" y="41" type="line" smooth="yes"/>
      <point x="581" y="41"/>
      <point x="587" y="37"/>
      <point x="587" y="25" type="curve" smooth="yes"/>
      <point x="587" y="10"/>
      <point x="575" y="0"/>
      <point x="556" y="0" type="curve" smooth="yes"/>
      <point x="461" y="0" type="line"/>
      <point x="480" y="89" type="line"/>
      <point x="417" y="18"/>
      <point x="350" y="-16"/>
      <point x="274" y="-16" type="curve" smooth="yes"/>
      <point x="176" y="-16"/>
      <point x="102" y="58"/>
      <point x="102" y="157" type="curve" smooth="yes"/>
      <point x="102" y="299"/>
      <point x="232" y="431"/>
      <point x="371" y="431" type="curve" smooth="yes"/>
      <point x="446" y="431"/>
      <point x="496" y="398"/>
      <point x="530" y="327" type="curve"/>
      <point x="562" y="479" type="line"/>
      <point x="425" y="479" type="line" smooth="yes"/>
      <point x="407" y="479"/>
      <point x="401" y="483"/>
      <point x="401" y="494" type="curve" smooth="yes"/>
      <point x="401" y="511"/>
      <point x="413" y="520"/>
      <point x="434" y="520" type="curve" smooth="yes"/>
      <point x="571" y="520" type="line"/>
      <point x="580" y="563" type="line"/>
      <point x="526" y="563" type="line" smooth="yes"/>
      <point x="509" y="563"/>
      <point x="503" y="567"/>
      <point x="503" y="580" type="curve" smooth="yes"/>
      <point x="503" y="595"/>
      <point x="515" y="604"/>
      <point x="535" y="604" type="curve" smooth="yes"/>
      <point x="630" y="604" type="line"/>
    </contour>
    <contour>
      <point x="365" y="390" type="curve" smooth="yes"/>
      <point x="251" y="390"/>
      <point x="144" y="284"/>
      <point x="144" y="169" type="curve" smooth="yes"/>
      <point x="144" y="84"/>
      <point x="203" y="25"/>
      <point x="287" y="25" type="curve" smooth="yes"/>
      <point x="403" y="25"/>
      <point x="509" y="132"/>
      <point x="509" y="248" type="curve" smooth="yes"/>
      <point x="509" y="331"/>
      <point x="450" y="390"/>
    </contour>
  </outline>
</glyph>
<glyph name="Ebreve" format="1">
  <advance width="600"/>
  <unicode hex="0114"/>
  <outline>
    <contour>
      <point x="330" y="724" type="curve"/>
      <point x="328" y="695" type="line" smooth="yes"/>
      <point x="328" y="690"/>
      <point x="345" y="671"/>
      <point x="351" y="665" type="curve" smooth="yes"/>
      <point x="366" y="653"/>
      <point x="394" y="644"/>
      <point x="420" y="644" type="curve" smooth="yes"/>
      <point x="473" y="644"/>
      <point x="525" y="673"/>
      <point x="538" y="712" type="curve" smooth="yes"/>
      <point x="542" y="727"/>
      <point x="551" y="735"/>
      <point x="563" y="735" type="curve" smooth="yes"/>
      <point x="572" y="735"/>
      <point x="580" y="726"/>
      <point x="580" y="720" type="curve" smooth="yes"/>
      <point x="580" y="703"/>
      <point x="558" y="666"/>
      <point x="538" y="648" type="curve" smooth="yes"/>
      <point x="506" y="620"/>
      <point x="457" y="603"/>
      <point x="410" y="603" type="curve" smooth="yes"/>
      <point x="339" y="603"/>
      <point x="286" y="642"/>
      <point x="286" y="698" type="curve" smooth="yes"/>
      <point x="286" y="718"/>
      <point x="298" y="735"/>
      <point x="313" y="735" type="curve" smooth="yes"/>
      <point x="319" y="735"/>
      <point x="323" y="733"/>
    </contour>
    <contour>
      <point x="223" y="272" type="line"/>
      <point x="174" y="41" type="line"/>
      <point x="488" y="41" type="line"/>
      <point x="513" y="160" type="line" smooth="yes"/>
      <point x="517" y="178"/>
      <point x="525" y="187"/>
      <point x="540" y="187" type="curve" smooth="yes"/>
      <point x="549" y="187"/>
      <point x="556" y="180"/>
      <point x="556" y="172" type="curve" smooth="yes"/>
      <point x="556" y="169"/>
      <point x="555" y="165"/>
      <point x="553" y="160" type="curve" smooth="yes"/>
      <point x="519" y="0" type="line"/>
      <point x="70" y="0" type="line" smooth="yes"/>
      <point x="53" y="0"/>
      <point x="47" y="5"/>
      <point x="47" y="17" type="curve" smooth="yes"/>
      <point x="47" y="32"/>
      <point x="59" y="41"/>
      <point x="79" y="41" type="curve" smooth="yes"/>
      <point x="133" y="41" type="line"/>
      <point x="235" y="522" type="line"/>
      <point x="181" y="522" type="line" smooth="yes"/>
      <point x="165" y="522"/>
      <point x="158" y="527"/>
      <point x="158" y="539" type="curve" smooth="yes"/>
      <point x="158" y="553"/>
      <point x="170" y="563"/>
      <point x="191" y="563" type="curve" smooth="yes"/>
      <point x="619" y="563" type="line"/>
      <point x="589" y="424" type="line" smooth="yes"/>
      <point x="586" y="407"/>
      <point x="576" y="397"/>
      <point x="563" y="397" type="curve" smooth="yes"/>
      <point x="553" y="397"/>
      <point x="547" y="404"/>
      <point x="547" y="411" type="curve"/>
      <point x="549" y="424" type="line"/>
      <point x="569" y="522" type="line"/>
      <point x="275" y="522" type="line"/>
      <point x="232" y="313" type="line"/>
      <point x="377" y="313" type="line"/>
      <point x="386" y="358" type="line" smooth="yes"/>
      <point x="390" y="376"/>
      <point x="399" y="385"/>
      <point x="411" y="385" type="curve" smooth="yes"/>
      <point x="422" y="385"/>
      <point x="428" y="377"/>
      <point x="428" y="370" type="curve" smooth="yes"/>
      <point x="428" y="368"/>
      <point x="428" y="362"/>
      <point x="427" y="358" type="curve" smooth="yes"/>
      <point x="399" y="227" type="line" smooth="yes"/>
      <point x="396" y="209"/>
      <point x="387" y="200"/>
      <point x="373" y="200" type="curve" smooth="yes"/>
      <point x="364" y="200"/>
      <point x="357" y="208"/>
      <point x="357" y="215" type="curve" smooth="yes"/>
      <point x="358" y="227" type="line"/>
      <point x="368" y="272" type="line"/>
    </contour>
  </outline>
</glyph>
<glyph name="ebreve" format="1">
  <advance width="600"/>
  <unicode hex="0115"/>
  <outline>
    <contour>
      <point x="311" y="578" type="curve"/>
      <point x="309" y="549" type="line" smooth="yes"/>
      <point x="309" y="544"/>
      <point x="326" y="525"/>
      <point x="332" y="519" type="curve" smooth="yes"/>
      <point x="347" y="507"/>
      <point x="375" y="498"/>
      <point x="401" y="498" type="curve" smooth="yes"/>
      <point x="454" y="498"/>
      <point x="506" y="527"/>
      <point x="519" y="566" type="curve" smooth="yes"/>
      <point x="523" y="581"/>
      <point x="532" y="589"/>
      <point x="544" y="589" type="curve" smooth="yes"/>
      <point x="553" y="589"/>
      <point x="561" y="580"/>
      <point x="561" y="574" type="curve" smooth="yes"/>
      <point x="561" y="557"/>
      <point x="539" y="520"/>
      <point x="519" y="502" type="curve" smooth="yes"/>
      <point x="487" y="474"/>
      <point x="438" y="457"/>
      <point x="391" y="457" type="curve" smooth="yes"/>
      <point x="320" y="457"/>
      <point x="267" y="496"/>
      <point x="267" y="552" type="curve" smooth="yes"/>
      <point x="267" y="572"/>
      <point x="279" y="589"/>
      <point x="294" y="589" type="curve" smooth="yes"/>
      <point x="300" y="589"/>
      <point x="304" y="587"/>
    </contour>
    <contour>
      <point x="562" y="199" type="curve"/>
      <point x="146" y="199" type="line"/>
      <point x="144" y="189"/>
      <point x="144" y="181"/>
      <point x="144" y="177" type="curve" smooth="yes"/>
      <point x="144" y="87"/>
      <point x="214" y="25"/>
      <point x="309" y="25" type="curve" smooth="yes"/>
      <point x="373" y="25"/>
      <point x="450" y="47"/>
      <point x="498" y="79" type="curve" smooth="yes"/>
      <point x="507" y="84"/>
      <point x="511" y="86"/>
      <point x="516" y="86" type="curve" smooth="yes"/>
      <point x="525" y="86"/>
      <point x="532" y="79"/>
      <point x="532" y="70" type="curve" smooth="yes"/>
      <point x="532" y="58"/>
      <point x="521" y="49"/>
      <point x="492" y="32" type="curve"/>
      <point x="437" y="2"/>
      <point x="364" y="-16"/>
      <point x="300" y="-16" type="curve" smooth="yes"/>
      <point x="184" y="-16"/>
      <point x="104" y="59"/>
      <point x="104" y="171" type="curve" smooth="yes"/>
      <point x="104" y="309"/>
      <point x="235" y="431"/>
      <point x="383" y="431" type="curve" smooth="yes"/>
      <point x="492" y="431"/>
      <point x="570" y="360"/>
      <point x="570" y="262" type="curve" smooth="yes"/>
      <point x="570" y="248"/>
      <point x="567" y="225"/>
    </contour>
    <contour>
      <point x="155" y="240" type="curve"/>
      <point x="529" y="240" type="line"/>
      <point x="530" y="245"/>
      <point x="530" y="250"/>
      <point x="530" y="252" type="curve" smooth="yes"/>
      <point x="530" y="333"/>
      <point x="466" y="390"/>
      <point x="375" y="390" type="curve" smooth="yes"/>
      <point x="277" y="390"/>
      <point x="192" y="333"/>
    </contour>
  </outline>
</glyph>
<glyph name="Edotaccent" format="1">
  <advance width="600"/>
  <unicode hex="0116"/>
  <outline>
    <contour>
      <point x="223" y="272" type="line"/>
      <point x="174" y="41" type="line"/>
      <point x="488" y="41" type="line"/>
      <point x="513" y="160" type="line" smooth="yes"/>
      <point x="517" y="178"/>
      <point x="526" y="187"/>
      <point x="540" y="187" type="curve" smooth="yes"/>
      <point x="549" y="187"/>
      <point x="556" y="180"/>
      <point x="556" y="172" type="curve" smooth="yes"/>
      <point x="556" y="169"/>
      <point x="555" y="165"/>
      <point x="554" y="160" type="curve" smooth="yes"/>
      <point x="520" y="0" type="line"/>
      <point x="70" y="0" type="line" smooth="yes"/>
      <point x="54" y="0"/>
      <point x="47" y="5"/>
      <point x="47" y="17" type="curve" smooth="yes"/>
      <point x="47" y="32"/>
      <point x="59" y="41"/>
      <point x="79" y="41" type="curve" smooth="yes"/>
      <point x="133" y="41" type="line"/>
      <point x="235" y="522" type="line"/>
      <point x="181" y="522" type="line" smooth="yes"/>
      <point x="165" y="522"/>
      <point x="158" y="527"/>
      <point x="158" y="539" type="curve" smooth="yes"/>
      <point x="158" y="554"/>
      <point x="170" y="563"/>
      <point x="190" y="563" type="curve" smooth="yes"/>
      <point x="619" y="563" type="line"/>
      <point x="589" y="424" type="line" smooth="yes"/>
      <point x="586" y="406"/>
      <point x="577" y="397"/>
      <point x="563" y="397" type="curve" smooth="yes"/>
      <point x="554" y="397"/>
      <point x="547" y="404"/>
      <point x="547" y="412" type="curve" smooth="yes"/>
      <point x="548" y="424" type="line"/>
      <point x="569" y="522" type="line"/>
      <point x="276" y="522" type="line"/>
      <point x="232" y="313" type="line"/>
      <point x="377" y="313" type="line"/>
      <point x="386" y="358" type="line" smooth="yes"/>
      <point x="390" y="376"/>
      <point x="399" y="385"/>
      <point x="412" y="385" type="curve" smooth="yes"/>
      <point x="422" y="385"/>
      <point x="429" y="378"/>
      <point x="429" y="370" type="curve" smooth="yes"/>
      <point x="429" y="368"/>
      <point x="428" y="362"/>
      <point x="427" y="358" type="curve" smooth="yes"/>
      <point x="399" y="227" type="line" smooth="yes"/>
      <point x="396" y="209"/>
      <point x="387" y="200"/>
      <point x="373" y="200" type="curve" smooth="yes"/>
      <point x="364" y="200"/>
      <point x="357" y="207"/>
      <point x="357" y="215" type="curve" smooth="yes"/>
      <point x="358" y="227" type="line"/>
      <point x="368" y="272" type="line"/>
    </contour>
    <contour>
      <point x="444" y="762" type="curve" smooth="yes"/>
      <point x="467" y="762"/>
      <point x="484" y="745"/>
      <point x="484" y="721" type="curve" smooth="yes"/>
      <point x="484" y="691"/>
      <point x="453" y="661"/>
      <point x="422" y="661" type="curve" smooth="yes"/>
      <point x="401" y="661"/>
      <point x="383" y="680"/>
      <point x="383" y="702" type="curve" smooth="yes"/>
      <point x="383" y="731"/>
      <point x="414" y="762"/>
    </contour>
  </outline>
</glyph>
<glyph name="edotaccent" format="1">
  <advance width="600"/>
  <unicode hex="0117"/>
  <outline>
    <contour>
      <point x="562" y="199" type="curve"/>
      <point x="146" y="199" type="line"/>
      <point x="145" y="189"/>
      <point x="145" y="181"/>
      <point x="145" y="177" type="curve" smooth="yes"/>
      <point x="145" y="87"/>
      <point x="213" y="25"/>
      <point x="310" y="25" type="curve" smooth="yes"/>
      <point x="373" y="25"/>
      <point x="450" y="47"/>
      <point x="498" y="79" type="curve" smooth="yes"/>
      <point x="507" y="84"/>
      <point x="511" y="86"/>
      <point x="516" y="86" type="curve" smooth="yes"/>
      <point x="525" y="86"/>
      <point x="531" y="79"/>
      <point x="531" y="70" type="curve" smooth="yes"/>
      <point x="531" y="58"/>
      <point x="521" y="48"/>
      <point x="491" y="32" type="curve" smooth="yes"/>
      <point x="437" y="2"/>
      <point x="364" y="-16"/>
      <point x="300" y="-16" type="curve" smooth="yes"/>
      <point x="184" y="-16"/>
      <point x="104" y="60"/>
      <point x="104" y="171" type="curve" smooth="yes"/>
      <point x="104" y="309"/>
      <point x="235" y="431"/>
      <point x="383" y="431" type="curve" smooth="yes"/>
      <point x="492" y="431"/>
      <point x="570" y="361"/>
      <point x="570" y="262" type="curve" smooth="yes"/>
      <point x="570" y="248"/>
      <point x="567" y="224"/>
    </contour>
    <contour>
      <point x="155" y="240" type="curve"/>
      <point x="529" y="240" type="line"/>
      <point x="530" y="245"/>
      <point x="530" y="250"/>
      <point x="530" y="252" type="curve" smooth="yes"/>
      <point x="530" y="333"/>
      <point x="466" y="390"/>
      <point x="375" y="390" type="curve" smooth="yes"/>
      <point x="277" y="390"/>
      <point x="192" y="332"/>
    </contour>
    <contour>
      <point x="429" y="611" type="curve" smooth="yes"/>
      <point x="453" y="611"/>
      <point x="470" y="594"/>
      <point x="470" y="571" type="curve" smooth="yes"/>
      <point x="470" y="540"/>
      <point x="440" y="511"/>
      <point x="408" y="511" type="curve" smooth="yes"/>
      <point x="385" y="511"/>
      <point x="368" y="528"/>
      <point x="368" y="551" type="curve" smooth="yes"/>
      <point x="368" y="581"/>
      <point x="398" y="611"/>
    </contour>
  </outline>
</glyph>
<glyph name="Eogonek" format="1">
  <advance width="600"/>
  <unicode hex="0118"/>
  <outline>
    <contour>
      <point x="174" y="41" type="line"/>
      <point x="488" y="41" type="line"/>
      <point x="513" y="160" type="line" smooth="yes"/>
      <point x="517" y="178"/>
      <point x="526" y="187"/>
      <point x="540" y="187" type="curve" smooth="yes"/>
      <point x="549" y="187"/>
      <point x="556" y="180"/>
      <point x="556" y="172" type="curve" smooth="yes"/>
      <point x="556" y="169"/>
      <point x="555" y="165"/>
      <point x="554" y="160" type="curve" smooth="yes"/>
      <point x="520" y="0" type="line"/>
      <point x="440" y="-23"/>
      <point x="393" y="-60"/>
      <point x="393" y="-100" type="curve" smooth="yes"/>
      <point x="393" y="-116"/>
      <point x="404" y="-125"/>
      <point x="425" y="-125" type="curve" smooth="yes"/>
      <point x="451" y="-125"/>
      <point x="457" y="-123"/>
      <point x="480" y="-107" type="curve" smooth="yes"/>
      <point x="483" y="-105"/>
      <point x="487" y="-104"/>
      <point x="490" y="-104" type="curve" smooth="yes"/>
      <point x="495" y="-104"/>
      <point x="501" y="-110"/>
      <point x="501" y="-116" type="curve" smooth="yes"/>
      <point x="501" y="-135"/>
      <point x="458" y="-155"/>
      <point x="418" y="-155" type="curve" smooth="yes"/>
      <point x="375" y="-155"/>
      <point x="351" y="-138"/>
      <point x="351" y="-108" type="curve" smooth="yes"/>
      <point x="351" y="-83"/>
      <point x="365" y="-58"/>
      <point x="389" y="-39" type="curve" smooth="yes"/>
      <point x="403" y="-27"/>
      <point x="413" y="-22"/>
      <point x="458" y="0" type="curve"/>
      <point x="70" y="0" type="line" smooth="yes"/>
      <point x="54" y="0"/>
      <point x="47" y="5"/>
      <point x="47" y="17" type="curve" smooth="yes"/>
      <point x="47" y="32"/>
      <point x="59" y="41"/>
      <point x="79" y="41" type="curve" smooth="yes"/>
      <point x="133" y="41" type="line"/>
      <point x="235" y="522" type="line"/>
      <point x="181" y="522" type="line" smooth="yes"/>
      <point x="165" y="522"/>
      <point x="158" y="527"/>
      <point x="158" y="539" type="curve" smooth="yes"/>
      <point x="158" y="554"/>
      <point x="170" y="563"/>
      <point x="190" y="563" type="curve" smooth="yes"/>
      <point x="619" y="563" type="line"/>
      <point x="589" y="424" type="line" smooth="yes"/>
      <point x="586" y="406"/>
      <point x="577" y="397"/>
      <point x="563" y="397" type="curve" smooth="yes"/>
      <point x="554" y="397"/>
      <point x="547" y="404"/>
      <point x="547" y="412" type="curve" smooth="yes"/>
      <point x="548" y="424" type="line"/>
      <point x="569" y="522" type="line"/>
      <point x="276" y="522" type="line"/>
      <point x="232" y="313" type="line"/>
      <point x="377" y="313" type="line"/>
      <point x="386" y="358" type="line" smooth="yes"/>
      <point x="390" y="376"/>
      <point x="399" y="385"/>
      <point x="412" y="385" type="curve" smooth="yes"/>
      <point x="422" y="385"/>
      <point x="429" y="378"/>
      <point x="429" y="370" type="curve" smooth="yes"/>
      <point x="429" y="368"/>
      <point x="428" y="362"/>
      <point x="427" y="358" type="curve" smooth="yes"/>
      <point x="399" y="227" type="line" smooth="yes"/>
      <point x="396" y="209"/>
      <point x="387" y="200"/>
      <point x="373" y="200" type="curve" smooth="yes"/>
      <point x="364" y="200"/>
      <point x="357" y="207"/>
      <point x="357" y="215" type="curve" smooth="yes"/>
      <point x="358" y="227" type="line"/>
      <point x="368" y="272" type="line"/>
      <point x="223" y="272" type="line"/>
    </contour>
  </outline>
</glyph>
<glyph name="Ecaron" format="1">
  <advance width="600"/>
  <unicode hex="011A"/>
  <outline>
    <contour>
      <point x="223" y="272" type="line"/>
      <point x="174" y="41" type="line"/>
      <point x="488" y="41" type="line"/>
      <point x="513" y="160" type="line" smooth="yes"/>
      <point x="517" y="178"/>
      <point x="526" y="187"/>
      <point x="540" y="187" type="curve" smooth="yes"/>
      <point x="549" y="187"/>
      <point x="556" y="180"/>
      <point x="556" y="172" type="curve" smooth="yes"/>
      <point x="556" y="169"/>
      <point x="555" y="165"/>
      <point x="554" y="160" type="curve" smooth="yes"/>
      <point x="520" y="0" type="line"/>
      <point x="70" y="0" type="line" smooth="yes"/>
      <point x="54" y="0"/>
      <point x="47" y="5"/>
      <point x="47" y="17" type="curve" smooth="yes"/>
      <point x="47" y="32"/>
      <point x="59" y="41"/>
      <point x="79" y="41" type="curve" smooth="yes"/>
      <point x="133" y="41" type="line"/>
      <point x="235" y="522" type="line"/>
      <point x="181" y="522" type="line" smooth="yes"/>
      <point x="165" y="522"/>
      <point x="158" y="527"/>
      <point x="158" y="539" type="curve" smooth="yes"/>
      <point x="158" y="554"/>
      <point x="170" y="563"/>
      <point x="190" y="563" type="curve" smooth="yes"/>
      <point x="619" y="563" type="line"/>
      <point x="589" y="424" type="line" smooth="yes"/>
      <point x="586" y="406"/>
      <point x="577" y="397"/>
      <point x="563" y="397" type="curve" smooth="yes"/>
      <point x="554" y="397"/>
      <point x="547" y="404"/>
      <point x="547" y="412" type="curve" smooth="yes"/>
      <point x="548" y="424" type="line"/>
      <point x="569" y="522" type="line"/>
      <point x="276" y="522" type="line"/>
      <point x="232" y="313" type="line"/>
      <point x="377" y="313" type="line"/>
      <point x="386" y="358" type="line" smooth="yes"/>
      <point x="390" y="376"/>
      <point x="399" y="385"/>
      <point x="412" y="385" type="curve" smooth="yes"/>
      <point x="422" y="385"/>
      <point x="429" y="378"/>
      <point x="429" y="370" type="curve" smooth="yes"/>
      <point x="429" y="368"/>
      <point x="428" y="362"/>
      <point x="427" y="358" type="curve" smooth="yes"/>
      <point x="399" y="227" type="line" smooth="yes"/>
      <point x="396" y="209"/>
      <point x="387" y="200"/>
      <point x="373" y="200" type="curve" smooth="yes"/>
      <point x="364" y="200"/>
      <point x="357" y="207"/>
      <point x="357" y="215" type="curve" smooth="yes"/>
      <point x="358" y="227" type="line"/>
      <point x="368" y="272" type="line"/>
    </contour>
    <contour>
      <point x="408" y="640" type="line"/>
      <point x="298" y="749" type="line"/>
      <point x="290" y="753"/>
      <point x="288" y="757"/>
      <point x="288" y="766" type="curve" smooth="yes"/>
      <point x="288" y="775"/>
      <point x="301" y="789"/>
      <point x="310" y="789" type="curve" smooth="yes"/>
      <point x="313" y="789" type="line"/>
      <point x="318" y="789" type="line" smooth="yes"/>
      <point x="321" y="789"/>
      <point x="322" y="788"/>
      <point x="329" y="781" type="curve" smooth="yes"/>
      <point x="418" y="690" type="line"/>
      <point x="543" y="781" type="line" smooth="yes"/>
      <point x="546" y="783"/>
      <point x="560" y="789"/>
      <point x="562" y="789" type="curve" smooth="yes"/>
      <point x="571" y="789"/>
      <point x="578" y="783"/>
      <point x="578" y="774" type="curve" smooth="yes"/>
      <point x="578" y="763"/>
      <point x="573" y="755"/>
      <point x="564" y="751" type="curve" smooth="yes"/>
      <point x="560" y="749" type="line"/>
    </contour>
  </outline>
</glyph>
<glyph name="gcircumflex" format="1">
  <advance width="600"/>
  <unicode hex="011D"/>
  <outline>
    <contour>
      <point x="443" y="607" type="line"/>
      <point x="552" y="499" type="line"/>
      <point x="559" y="490"/>
      <point x="560" y="486"/>
      <point x="560" y="482" type="curve" smooth="yes"/>
      <point x="560" y="469"/>
      <point x="549" y="457"/>
      <point x="536" y="457" type="curve" smooth="yes"/>
      <point x="531" y="457"/>
      <point x="526" y="460"/>
      <point x="520" y="465" type="curve" smooth="yes"/>
      <point x="432" y="553" type="line"/>
      <point x="306" y="465" type="line" smooth="yes"/>
      <point x="298" y="460"/>
      <point x="291" y="457"/>
      <point x="286" y="457" type="curve" smooth="yes"/>
      <point x="276" y="457"/>
      <point x="270" y="465"/>
      <point x="270" y="473" type="curve" smooth="yes"/>
      <point x="270" y="482"/>
      <point x="275" y="489"/>
      <point x="284" y="495" type="curve"/>
      <point x="289" y="497" type="line"/>
    </contour>
    <contour>
      <point x="511" y="334" type="curve"/>
      <point x="529" y="417" type="line"/>
      <point x="624" y="417" type="line" smooth="yes"/>
      <point x="641" y="417"/>
      <point x="647" y="413"/>
      <point x="647" y="400" type="curve" smooth="yes"/>
      <point x="647" y="386"/>
      <point x="635" y="376"/>
      <point x="615" y="376" type="curve" smooth="yes"/>
      <point x="561" y="376" type="line"/>
      <point x="475" y="-28" type="line" smooth="yes"/>
      <point x="466" y="-69"/>
      <point x="447" y="-100"/>
      <point x="410" y="-132" type="curve" smooth="yes"/>
      <point x="367" y="-170"/>
      <point x="326" y="-186"/>
      <point x="277" y="-186" type="curve" smooth="yes"/>
      <point x="161" y="-186" type="line" smooth="yes"/>
      <point x="146" y="-186"/>
      <point x="140" y="-181"/>
      <point x="140" y="-170" type="curve" smooth="yes"/>
      <point x="140" y="-154"/>
      <point x="150" y="-144"/>
      <point x="171" y="-144" type="curve" smooth="yes"/>
      <point x="286" y="-144" type="line" smooth="yes"/>
      <point x="356" y="-144"/>
      <point x="421" y="-90"/>
      <point x="434" y="-22" type="curve"/>
      <point x="464" y="107" type="line"/>
      <point x="403" y="40"/>
      <point x="343" y="10"/>
      <point x="271" y="10" type="curve" smooth="yes"/>
      <point x="174" y="10"/>
      <point x="106" y="79"/>
      <point x="106" y="177" type="curve" smooth="yes"/>
      <point x="106" y="307"/>
      <point x="231" y="431"/>
      <point x="360" y="431" type="curve" smooth="yes"/>
      <point x="433" y="431"/>
      <point x="481" y="400"/>
    </contour>
    <contour>
      <point x="354" y="390" type="curve" smooth="yes"/>
      <point x="248" y="390"/>
      <point x="147" y="291"/>
      <point x="147" y="186" type="curve" smooth="yes"/>
      <point x="147" y="106"/>
      <point x="201" y="51"/>
      <point x="282" y="51" type="curve" smooth="yes"/>
      <point x="392" y="51"/>
      <point x="492" y="150"/>
      <point x="492" y="258" type="curve" smooth="yes"/>
      <point x="492" y="336"/>
      <point x="434" y="390"/>
    </contour>
  </outline>
</glyph>
<glyph name="Gdotaccent" format="1">
  <advance width="600"/>
  <unicode hex="0120"/>
  <outline>
    <contour>
      <point x="461" y="702" type="curve" smooth="yes"/>
      <point x="486" y="702"/>
      <point x="503" y="685"/>
      <point x="503" y="664" type="curve" smooth="yes"/>
      <point x="503" y="632"/>
      <point x="474" y="603"/>
      <point x="441" y="603" type="curve" smooth="yes"/>
      <point x="418" y="603"/>
      <point x="401" y="620"/>
      <point x="401" y="643" type="curve" smooth="yes"/>
      <point x="401" y="673"/>
      <point x="431" y="702"/>
    </contour>
    <contour>
      <point x="566" y="209" type="line"/>
      <point x="528" y="36" type="line"/>
      <point x="462" y="2"/>
      <point x="392" y="-16"/>
      <point x="330" y="-16" type="curve" smooth="yes"/>
      <point x="193" y="-16"/>
      <point x="108" y="59"/>
      <point x="108" y="178" type="curve" smooth="yes"/>
      <point x="108" y="200"/>
      <point x="110" y="222"/>
      <point x="115" y="244" type="curve" smooth="yes"/>
      <point x="131" y="318" type="line"/>
      <point x="161" y="464"/>
      <point x="295" y="576"/>
      <point x="436" y="576" type="curve" smooth="yes"/>
      <point x="502" y="576"/>
      <point x="553" y="558"/>
      <point x="590" y="522" type="curve"/>
      <point x="593" y="536" type="line" smooth="yes"/>
      <point x="597" y="553"/>
      <point x="606" y="563"/>
      <point x="619" y="563" type="curve" smooth="yes"/>
      <point x="629" y="563"/>
      <point x="636" y="556"/>
      <point x="636" y="549" type="curve" smooth="yes"/>
      <point x="636" y="545"/>
      <point x="636" y="544"/>
      <point x="633" y="536" type="curve"/>
      <point x="615" y="445" type="line"/>
      <point x="610" y="427"/>
      <point x="601" y="417"/>
      <point x="589" y="417" type="curve" smooth="yes"/>
      <point x="583" y="417"/>
      <point x="578" y="421"/>
      <point x="572" y="428" type="curve"/>
      <point x="575" y="465" type="line" smooth="yes"/>
      <point x="576" y="471"/>
      <point x="552" y="499"/>
      <point x="536" y="508" type="curve"/>
      <point x="513" y="525"/>
      <point x="468" y="536"/>
      <point x="428" y="536" type="curve" smooth="yes"/>
      <point x="313" y="536"/>
      <point x="197" y="438"/>
      <point x="172" y="317" type="curve" smooth="yes"/>
      <point x="157" y="244" type="line"/>
      <point x="152" y="225"/>
      <point x="150" y="206"/>
      <point x="150" y="187" type="curve" smooth="yes"/>
      <point x="150" y="86"/>
      <point x="222" y="25"/>
      <point x="341" y="25" type="curve" smooth="yes"/>
      <point x="393" y="25"/>
      <point x="430" y="33"/>
      <point x="492" y="59" type="curve"/>
      <point x="524" y="209" type="line"/>
      <point x="385" y="209" type="line" smooth="yes"/>
      <point x="369" y="209"/>
      <point x="362" y="214"/>
      <point x="362" y="225" type="curve" smooth="yes"/>
      <point x="362" y="242"/>
      <point x="374" y="250"/>
      <point x="394" y="250" type="curve" smooth="yes"/>
      <point x="589" y="250" type="line" smooth="yes"/>
      <point x="606" y="250"/>
      <point x="612" y="245"/>
      <point x="612" y="234" type="curve" smooth="yes"/>
      <point x="612" y="218"/>
      <point x="600" y="209"/>
      <point x="579" y="209" type="curve" smooth="yes"/>
    </contour>
  </outline>
</glyph>
<glyph name="gdotaccent" format="1">
  <advance width="600"/>
  <unicode hex="0121"/>
  <outline>
    <contour>
      <point x="432" y="557" type="curve" smooth="yes"/>
      <point x="457" y="557"/>
      <point x="474" y="540"/>
      <point x="474" y="519" type="curve" smooth="yes"/>
      <point x="474" y="487"/>
      <point x="445" y="458"/>
      <point x="412" y="458" type="curve" smooth="yes"/>
      <point x="389" y="458"/>
      <point x="372" y="475"/>
      <point x="372" y="498" type="curve" smooth="yes"/>
      <point x="372" y="528"/>
      <point x="402" y="557"/>
    </contour>
    <contour>
      <point x="511" y="334" type="curve"/>
      <point x="529" y="417" type="line"/>
      <point x="624" y="417" type="line" smooth="yes"/>
      <point x="641" y="417"/>
      <point x="647" y="413"/>
      <point x="647" y="400" type="curve" smooth="yes"/>
      <point x="647" y="386"/>
      <point x="635" y="376"/>
      <point x="615" y="376" type="curve" smooth="yes"/>
      <point x="561" y="376" type="line"/>
      <point x="475" y="-28" type="line" smooth="yes"/>
      <point x="466" y="-69"/>
      <point x="447" y="-100"/>
      <point x="410" y="-132" type="curve" smooth="yes"/>
      <point x="367" y="-170"/>
      <point x="326" y="-186"/>
      <point x="277" y="-186" type="curve" smooth="yes"/>
      <point x="161" y="-186" type="line" smooth="yes"/>
      <point x="146" y="-186"/>
      <point x="140" y="-181"/>
      <point x="140" y="-170" type="curve" smooth="yes"/>
      <point x="140" y="-154"/>
      <point x="150" y="-144"/>
      <point x="171" y="-144" type="curve" smooth="yes"/>
      <point x="286" y="-144" type="line" smooth="yes"/>
      <point x="356" y="-144"/>
      <point x="421" y="-90"/>
      <point x="434" y="-22" type="curve"/>
      <point x="464" y="107" type="line"/>
      <point x="403" y="40"/>
      <point x="343" y="10"/>
      <point x="271" y="10" type="curve" smooth="yes"/>
      <point x="174" y="10"/>
      <point x="106" y="79"/>
      <point x="106" y="177" type="curve" smooth="yes"/>
      <point x="106" y="307"/>
      <point x="231" y="431"/>
      <point x="360" y="431" type="curve" smooth="yes"/>
      <point x="433" y="431"/>
      <point x="481" y="400"/>
    </contour>
    <contour>
      <point x="354" y="390" type="curve" smooth="yes"/>
      <point x="248" y="390"/>
      <point x="147" y="291"/>
      <point x="147" y="186" type="curve" smooth="yes"/>
      <point x="147" y="106"/>
      <point x="201" y="51"/>
      <point x="282" y="51" type="curve" smooth="yes"/>
      <point x="392" y="51"/>
      <point x="492" y="150"/>
      <point x="492" y="258" type="curve" smooth="yes"/>
      <point x="492" y="336"/>
      <point x="434" y="390"/>
    </contour>
  </outline>
</glyph>
<glyph name="Hcircumflex" format="1">
  <advance width="600"/>
  <unicode hex="0124"/>
  <outline>
    <contour>
      <point x="463" y="753" type="line"/>
      <point x="572" y="645" type="line"/>
      <point x="579" y="636"/>
      <point x="580" y="632"/>
      <point x="580" y="628" type="curve" smooth="yes"/>
      <point x="580" y="615"/>
      <point x="569" y="603"/>
      <point x="556" y="603" type="curve" smooth="yes"/>
      <point x="551" y="603"/>
      <point x="546" y="606"/>
      <point x="540" y="611" type="curve" smooth="yes"/>
      <point x="452" y="699" type="line"/>
      <point x="326" y="611" type="line" smooth="yes"/>
      <point x="318" y="606"/>
      <point x="311" y="603"/>
      <point x="306" y="603" type="curve" smooth="yes"/>
      <point x="296" y="603"/>
      <point x="290" y="611"/>
      <point x="290" y="619" type="curve" smooth="yes"/>
      <point x="290" y="628"/>
      <point x="295" y="635"/>
      <point x="304" y="641" type="curve"/>
      <point x="309" y="643" type="line"/>
    </contour>
    <contour>
      <point x="495" y="272" type="line"/>
      <point x="225" y="272" type="line"/>
      <point x="176" y="41" type="line"/>
      <point x="231" y="41" type="line" smooth="yes"/>
      <point x="248" y="41"/>
      <point x="252" y="36"/>
      <point x="252" y="25" type="curve" smooth="yes"/>
      <point x="252" y="10"/>
      <point x="240" y="0"/>
      <point x="221" y="0" type="curve" smooth="yes"/>
      <point x="81" y="0" type="line" smooth="yes"/>
      <point x="64" y="0"/>
      <point x="57" y="5"/>
      <point x="57" y="16" type="curve" smooth="yes"/>
      <point x="57" y="32"/>
      <point x="69" y="41"/>
      <point x="89" y="41" type="curve" smooth="yes"/>
      <point x="135" y="41" type="line"/>
      <point x="237" y="522" type="line"/>
      <point x="212" y="522" type="line" smooth="yes"/>
      <point x="197" y="522"/>
      <point x="189" y="527"/>
      <point x="189" y="538" type="curve" smooth="yes"/>
      <point x="189" y="553"/>
      <point x="201" y="563"/>
      <point x="221" y="563" type="curve" smooth="yes"/>
      <point x="341" y="563" type="line" smooth="yes"/>
      <point x="358" y="563"/>
      <point x="364" y="559"/>
      <point x="364" y="547" type="curve" smooth="yes"/>
      <point x="364" y="532"/>
      <point x="352" y="522"/>
      <point x="333" y="522" type="curve" smooth="yes"/>
      <point x="278" y="522" type="line"/>
      <point x="234" y="313" type="line"/>
      <point x="504" y="313" type="line"/>
      <point x="549" y="522" type="line"/>
      <point x="494" y="522" type="line" smooth="yes"/>
      <point x="478" y="522"/>
      <point x="471" y="527"/>
      <point x="471" y="538" type="curve" smooth="yes"/>
      <point x="471" y="553"/>
      <point x="483" y="563"/>
      <point x="502" y="563" type="curve" smooth="yes"/>
      <point x="623" y="563" type="line" smooth="yes"/>
      <point x="640" y="563"/>
      <point x="646" y="559"/>
      <point x="646" y="547" type="curve" smooth="yes"/>
      <point x="646" y="532"/>
      <point x="633" y="522"/>
      <point x="614" y="522" type="curve" smooth="yes"/>
      <point x="589" y="522" type="line"/>
      <point x="487" y="41" type="line"/>
      <point x="532" y="41" type="line" smooth="yes"/>
      <point x="550" y="41"/>
      <point x="556" y="36"/>
      <point x="556" y="25" type="curve" smooth="yes"/>
      <point x="556" y="10"/>
      <point x="542" y="0"/>
      <point x="524" y="0" type="curve" smooth="yes"/>
      <point x="383" y="0" type="line" smooth="yes"/>
      <point x="367" y="0"/>
      <point x="360" y="5"/>
      <point x="360" y="16" type="curve" smooth="yes"/>
      <point x="360" y="32"/>
      <point x="373" y="41"/>
      <point x="392" y="41" type="curve" smooth="yes"/>
      <point x="447" y="41" type="line"/>
    </contour>
  </outline>
</glyph>
<glyph name="hcircumflex" format="1">
  <advance width="600"/>
  <unicode hex="0125"/>
  <outline>
    <contour>
      <point x="466" y="794" type="line"/>
      <point x="575" y="686" type="line"/>
      <point x="582" y="677"/>
      <point x="583" y="673"/>
      <point x="583" y="669" type="curve" smooth="yes"/>
      <point x="583" y="656"/>
      <point x="572" y="644"/>
      <point x="559" y="644" type="curve" smooth="yes"/>
      <point x="554" y="644"/>
      <point x="549" y="647"/>
      <point x="543" y="652" type="curve" smooth="yes"/>
      <point x="455" y="740" type="line"/>
      <point x="329" y="652" type="line" smooth="yes"/>
      <point x="321" y="647"/>
      <point x="314" y="644"/>
      <point x="309" y="644" type="curve" smooth="yes"/>
      <point x="299" y="644"/>
      <point x="293" y="652"/>
      <point x="293" y="660" type="curve" smooth="yes"/>
      <point x="293" y="669"/>
      <point x="298" y="676"/>
      <point x="307" y="682" type="curve"/>
      <point x="312" y="684" type="line"/>
    </contour>
    <contour>
      <point x="292" y="604" type="line"/>
      <point x="239" y="347" type="line"/>
      <point x="303" y="408"/>
      <point x="350" y="431"/>
      <point x="411" y="431" type="curve" smooth="yes"/>
      <point x="492" y="431"/>
      <point x="542" y="387"/>
      <point x="542" y="319" type="curve" smooth="yes"/>
      <point x="542" y="309"/>
      <point x="542" y="301"/>
      <point x="540" y="291" type="curve" smooth="yes"/>
      <point x="487" y="41" type="line"/>
      <point x="532" y="41" type="line" smooth="yes"/>
      <point x="549" y="41"/>
      <point x="556" y="36"/>
      <point x="556" y="25" type="curve" smooth="yes"/>
      <point x="556" y="10"/>
      <point x="542" y="0"/>
      <point x="524" y="0" type="curve" smooth="yes"/>
      <point x="392" y="0" type="line" smooth="yes"/>
      <point x="376" y="0"/>
      <point x="369" y="5"/>
      <point x="369" y="17" type="curve" smooth="yes"/>
      <point x="369" y="32"/>
      <point x="381" y="41"/>
      <point x="400" y="41" type="curve" smooth="yes"/>
      <point x="447" y="41" type="line"/>
      <point x="498" y="288" type="line" smooth="yes"/>
      <point x="500" y="295"/>
      <point x="501" y="303"/>
      <point x="501" y="309" type="curve" smooth="yes"/>
      <point x="501" y="330"/>
      <point x="493" y="350"/>
      <point x="477" y="364" type="curve"/>
      <point x="458" y="383"/>
      <point x="438" y="390"/>
      <point x="396" y="390" type="curve" smooth="yes"/>
      <point x="341" y="390"/>
      <point x="309" y="373"/>
      <point x="242" y="309" type="curve"/>
      <point x="228" y="296" type="line"/>
      <point x="174" y="41" type="line"/>
      <point x="218" y="41" type="line" smooth="yes"/>
      <point x="235" y="41"/>
      <point x="243" y="36"/>
      <point x="243" y="25" type="curve" smooth="yes"/>
      <point x="243" y="10"/>
      <point x="231" y="0"/>
      <point x="210" y="0" type="curve" smooth="yes"/>
      <point x="78" y="0" type="line" smooth="yes"/>
      <point x="62" y="0"/>
      <point x="55" y="5"/>
      <point x="55" y="17" type="curve" smooth="yes"/>
      <point x="55" y="32"/>
      <point x="67" y="41"/>
      <point x="87" y="41" type="curve" smooth="yes"/>
      <point x="133" y="41" type="line"/>
      <point x="244" y="563" type="line"/>
      <point x="189" y="563" type="line" smooth="yes"/>
      <point x="174" y="563"/>
      <point x="167" y="567"/>
      <point x="167" y="580" type="curve" smooth="yes"/>
      <point x="167" y="595"/>
      <point x="178" y="604"/>
      <point x="198" y="604" type="curve" smooth="yes"/>
    </contour>
  </outline>
</glyph>
<glyph name="hbar" format="1">
  <advance width="600"/>
  <unicode hex="0127"/>
  <outline>
    <contour>
      <point x="233" y="513" type="line"/>
      <point x="244" y="563" type="line"/>
      <point x="189" y="563" type="line" smooth="yes"/>
      <point x="174" y="563"/>
      <point x="167" y="567"/>
      <point x="167" y="580" type="curve" smooth="yes"/>
      <point x="167" y="595"/>
      <point x="178" y="604"/>
      <point x="198" y="604" type="curve" smooth="yes"/>
      <point x="292" y="604" type="line"/>
      <point x="274" y="513" type="line"/>
      <point x="351" y="513" type="line" smooth="yes"/>
      <point x="363" y="513"/>
      <point x="369" y="508"/>
      <point x="369" y="498" type="curve" smooth="yes"/>
      <point x="369" y="482"/>
      <point x="359" y="473"/>
      <point x="343" y="473" type="curve" smooth="yes"/>
      <point x="266" y="473" type="line"/>
      <point x="239" y="347" type="line"/>
      <point x="303" y="408"/>
      <point x="350" y="431"/>
      <point x="411" y="431" type="curve" smooth="yes"/>
      <point x="492" y="431"/>
      <point x="542" y="387"/>
      <point x="542" y="319" type="curve" smooth="yes"/>
      <point x="542" y="309"/>
      <point x="542" y="301"/>
      <point x="540" y="291" type="curve" smooth="yes"/>
      <point x="487" y="41" type="line"/>
      <point x="532" y="41" type="line" smooth="yes"/>
      <point x="549" y="41"/>
      <point x="556" y="36"/>
      <point x="556" y="25" type="curve" smooth="yes"/>
      <point x="556" y="10"/>
      <point x="542" y="0"/>
      <point x="524" y="0" type="curve" smooth="yes"/>
      <point x="392" y="0" type="line" smooth="yes"/>
      <point x="376" y="0"/>
      <point x="369" y="5"/>
      <point x="369" y="17" type="curve" smooth="yes"/>
      <point x="369" y="32"/>
      <point x="381" y="41"/>
      <point x="400" y="41" type="curve" smooth="yes"/>
      <point x="447" y="41" type="line"/>
      <point x="498" y="288" type="line" smooth="yes"/>
      <point x="500" y="295"/>
      <point x="501" y="303"/>
      <point x="501" y="309" type="curve" smooth="yes"/>
      <point x="501" y="330"/>
      <point x="493" y="350"/>
      <point x="477" y="364" type="curve"/>
      <point x="458" y="383"/>
      <point x="438" y="390"/>
      <point x="396" y="390" type="curve" smooth="yes"/>
      <point x="341" y="390"/>
      <point x="309" y="373"/>
      <point x="242" y="309" type="curve"/>
      <point x="228" y="296" type="line"/>
      <point x="174" y="41" type="line"/>
      <point x="218" y="41" type="line" smooth="yes"/>
      <point x="235" y="41"/>
      <point x="243" y="36"/>
      <point x="243" y="25" type="curve" smooth="yes"/>
      <point x="243" y="10"/>
      <point x="231" y="0"/>
      <point x="210" y="0" type="curve" smooth="yes"/>
      <point x="78" y="0" type="line" smooth="yes"/>
      <point x="62" y="0"/>
      <point x="55" y="5"/>
      <point x="55" y="17" type="curve" smooth="yes"/>
      <point x="55" y="32"/>
      <point x="67" y="41"/>
      <point x="87" y="41" type="curve" smooth="yes"/>
      <point x="133" y="41" type="line"/>
      <point x="225" y="473" type="line"/>
      <point x="154" y="473" type="line" smooth="yes"/>
      <point x="142" y="473"/>
      <point x="136" y="478"/>
      <point x="136" y="489" type="curve" smooth="yes"/>
      <point x="136" y="504"/>
      <point x="146" y="513"/>
      <point x="161" y="513" type="curve" smooth="yes"/>
    </contour>
  </outline>
</glyph>
<glyph name="Itilde" format="1">
  <advance width="600"/>
  <unicode hex="0128"/>
  <outline>
    <contour>
      <point x="581" y="690" type="curve" smooth="yes"/>
      <point x="591" y="690"/>
      <point x="598" y="683"/>
      <point x="598" y="674" type="curve" smooth="yes"/>
      <point x="598" y="665"/>
      <point x="594" y="660"/>
      <point x="576" y="645" type="curve" smooth="yes"/>
      <point x="541" y="615"/>
      <point x="517" y="603"/>
      <point x="492" y="603" type="curve" smooth="yes"/>
      <point x="470" y="603"/>
      <point x="453" y="610"/>
      <point x="418" y="634" type="curve" smooth="yes"/>
      <point x="401" y="646"/>
      <point x="390" y="651"/>
      <point x="378" y="651" type="curve" smooth="yes"/>
      <point x="358" y="651"/>
      <point x="347" y="645"/>
      <point x="311" y="614" type="curve"/>
      <point x="307" y="609"/>
      <point x="299" y="606"/>
      <point x="293" y="606" type="curve" smooth="yes"/>
      <point x="284" y="606"/>
      <point x="277" y="612"/>
      <point x="277" y="621" type="curve" smooth="yes"/>
      <point x="277" y="629"/>
      <point x="285" y="640"/>
      <point x="303" y="655" type="curve"/>
      <point x="337" y="680"/>
      <point x="361" y="693"/>
      <point x="386" y="693" type="curve" smooth="yes"/>
      <point x="405" y="693"/>
      <point x="417" y="687"/>
      <point x="445" y="670" type="curve"/>
      <point x="477" y="648"/>
      <point x="486" y="644"/>
      <point x="500" y="644" type="curve" smooth="yes"/>
      <point x="515" y="644"/>
      <point x="527" y="651"/>
      <point x="564" y="682" type="curve" smooth="yes"/>
      <point x="571" y="688"/>
      <point x="576" y="690"/>
    </contour>
    <contour>
      <point x="431" y="522" type="line"/>
      <point x="329" y="41" type="line"/>
      <point x="468" y="41" type="line" smooth="yes"/>
      <point x="485" y="41"/>
      <point x="492" y="36"/>
      <point x="492" y="25" type="curve" smooth="yes"/>
      <point x="492" y="10"/>
      <point x="479" y="0"/>
      <point x="460" y="0" type="curve" smooth="yes"/>
      <point x="140" y="0" type="line" smooth="yes"/>
      <point x="124" y="0"/>
      <point x="117" y="5"/>
      <point x="117" y="16" type="curve" smooth="yes"/>
      <point x="117" y="32"/>
      <point x="129" y="41"/>
      <point x="148" y="41" type="curve" smooth="yes"/>
      <point x="288" y="41" type="line"/>
      <point x="390" y="522" type="line"/>
      <point x="251" y="522" type="line" smooth="yes"/>
      <point x="235" y="522"/>
      <point x="228" y="527"/>
      <point x="228" y="538" type="curve" smooth="yes"/>
      <point x="228" y="553"/>
      <point x="240" y="563"/>
      <point x="258" y="563" type="curve" smooth="yes"/>
      <point x="579" y="563" type="line" smooth="yes"/>
      <point x="597" y="563"/>
      <point x="603" y="559"/>
      <point x="603" y="547" type="curve" smooth="yes"/>
      <point x="603" y="532"/>
      <point x="590" y="522"/>
      <point x="572" y="522" type="curve" smooth="yes"/>
    </contour>
  </outline>
</glyph>
